<?xml version="1.0" encoding="UTF-8" standalone="no"?>
<!DOCTYPE svg PUBLIC "-//W3C//DTD SVG 1.1//EN" "http://www.w3.org/Graphics/SVG/1.1/DTD/svg11.dtd">
<svg width="911px" height="193px" version="1.1" xmlns="http://www.w3.org/2000/svg" xmlns:xlink="http://www.w3.org/1999/xlink" xml:space="preserve" xmlns:serif="http://www.serif.com/" style="fill-rule:evenodd;clip-rule:evenodd;stroke-linecap:round;stroke-linejoin:round;stroke-miterlimit:1.5;">
    <g transform="matrix(1,0,0,1,-356,-280.699)">
        <rect x="356" y="373" width="233" height="74" style="fill:rgb(110,229,165);"/>
        <g transform="matrix(1,0,0,1,678,0)">
            <rect x="356" y="373" width="233" height="74" style="fill:rgb(199,110,229);"/>
        </g>
        <g transform="matrix(1,0,0,1,728.681,-6.01268)">
            <g transform="matrix(39.0893,0,0,39.0893,378,426)">
                <path d="M0.301,0.008C0.248,0.008 0.201,-0.001 0.161,-0.018C0.121,-0.035 0.09,-0.059 0.069,-0.091C0.047,-0.122 0.036,-0.159 0.036,-0.201L0.036,-0.223C0.036,-0.226 0.037,-0.229 0.04,-0.232C0.042,-0.234 0.045,-0.235 0.048,-0.235L0.162,-0.235C0.165,-0.235 0.168,-0.234 0.171,-0.232C0.173,-0.229 0.174,-0.226 0.174,-0.223L0.174,-0.208C0.174,-0.181 0.186,-0.159 0.211,-0.141C0.236,-0.122 0.269,-0.113 0.311,-0.113C0.346,-0.113 0.373,-0.121 0.39,-0.136C0.407,-0.151 0.416,-0.169 0.416,-0.191C0.416,-0.207 0.411,-0.221 0.4,-0.232C0.389,-0.243 0.375,-0.252 0.357,-0.261C0.338,-0.269 0.309,-0.28 0.269,-0.295C0.224,-0.31 0.187,-0.326 0.156,-0.342C0.125,-0.358 0.098,-0.38 0.078,-0.408C0.056,-0.435 0.046,-0.469 0.046,-0.51C0.046,-0.55 0.056,-0.585 0.077,-0.615C0.098,-0.645 0.126,-0.668 0.163,-0.684C0.2,-0.7 0.242,-0.708 0.29,-0.708C0.341,-0.708 0.386,-0.699 0.426,-0.681C0.465,-0.663 0.496,-0.638 0.519,-0.606C0.541,-0.573 0.552,-0.536 0.552,-0.493L0.552,-0.478C0.552,-0.475 0.551,-0.472 0.549,-0.47C0.546,-0.467 0.543,-0.466 0.54,-0.466L0.425,-0.466C0.422,-0.466 0.419,-0.467 0.417,-0.47C0.414,-0.472 0.413,-0.475 0.413,-0.478L0.413,-0.486C0.413,-0.514 0.402,-0.538 0.379,-0.558C0.356,-0.577 0.324,-0.587 0.284,-0.587C0.253,-0.587 0.228,-0.58 0.211,-0.567C0.193,-0.554 0.184,-0.535 0.184,-0.512C0.184,-0.495 0.189,-0.481 0.2,-0.47C0.21,-0.459 0.225,-0.448 0.246,-0.44C0.266,-0.431 0.297,-0.418 0.34,-0.403C0.387,-0.386 0.425,-0.37 0.452,-0.357C0.478,-0.344 0.503,-0.324 0.525,-0.298C0.546,-0.271 0.557,-0.237 0.557,-0.195C0.557,-0.132 0.534,-0.083 0.488,-0.047C0.442,-0.01 0.38,0.008 0.301,0.008Z" style="fill-rule:nonzero;"/>
            </g>
            <g transform="matrix(39.0893,0,0,39.0893,401.258,426)">
                <path d="M0.279,0.008C0.223,0.008 0.175,-0.007 0.135,-0.036C0.095,-0.065 0.068,-0.105 0.053,-0.156C0.044,-0.187 0.039,-0.221 0.039,-0.258C0.039,-0.297 0.044,-0.333 0.053,-0.364C0.068,-0.413 0.096,-0.452 0.136,-0.48C0.176,-0.508 0.224,-0.522 0.28,-0.522C0.335,-0.522 0.381,-0.508 0.42,-0.481C0.459,-0.453 0.486,-0.414 0.502,-0.365C0.513,-0.332 0.518,-0.297 0.518,-0.26C0.518,-0.224 0.513,-0.19 0.504,-0.159C0.489,-0.107 0.462,-0.066 0.423,-0.037C0.383,-0.007 0.335,0.008 0.279,0.008ZM0.279,-0.113C0.301,-0.113 0.32,-0.12 0.335,-0.133C0.35,-0.146 0.361,-0.165 0.368,-0.188C0.373,-0.209 0.376,-0.233 0.376,-0.258C0.376,-0.286 0.373,-0.31 0.368,-0.329C0.361,-0.352 0.349,-0.369 0.334,-0.382C0.319,-0.395 0.3,-0.401 0.278,-0.401C0.255,-0.401 0.237,-0.395 0.222,-0.382C0.207,-0.369 0.196,-0.352 0.189,-0.329C0.184,-0.313 0.181,-0.289 0.181,-0.258C0.181,-0.228 0.183,-0.205 0.188,-0.188C0.195,-0.165 0.206,-0.146 0.222,-0.133C0.237,-0.12 0.256,-0.113 0.279,-0.113Z" style="fill-rule:nonzero;"/>
            </g>
            <g transform="matrix(39.0893,0,0,39.0893,423.031,426)">
                <path d="M0.32,-0.522C0.373,-0.522 0.416,-0.506 0.449,-0.473C0.482,-0.44 0.498,-0.396 0.498,-0.34L0.498,-0.012C0.498,-0.009 0.497,-0.006 0.495,-0.004C0.492,-0.001 0.489,-0 0.486,-0L0.369,-0C0.366,-0 0.363,-0.001 0.361,-0.004C0.358,-0.006 0.357,-0.009 0.357,-0.012L0.357,-0.311C0.357,-0.338 0.349,-0.359 0.335,-0.376C0.32,-0.393 0.3,-0.401 0.275,-0.401C0.25,-0.401 0.231,-0.393 0.216,-0.376C0.201,-0.359 0.193,-0.338 0.193,-0.311L0.193,-0.012C0.193,-0.009 0.192,-0.006 0.19,-0.004C0.187,-0.001 0.184,-0 0.181,-0L0.064,-0C0.061,-0 0.058,-0.001 0.056,-0.004C0.053,-0.006 0.052,-0.009 0.052,-0.012L0.052,-0.502C0.052,-0.505 0.053,-0.508 0.056,-0.511C0.058,-0.513 0.061,-0.514 0.064,-0.514L0.181,-0.514C0.184,-0.514 0.187,-0.513 0.19,-0.511C0.192,-0.508 0.193,-0.505 0.193,-0.502L0.193,-0.467C0.193,-0.465 0.194,-0.464 0.195,-0.463C0.196,-0.462 0.197,-0.463 0.198,-0.464C0.225,-0.503 0.266,-0.522 0.32,-0.522Z" style="fill-rule:nonzero;"/>
            </g>
            <g transform="matrix(39.0893,0,0,39.0893,444.413,426)">
                <path d="M0.366,-0.502C0.366,-0.505 0.367,-0.508 0.37,-0.511C0.372,-0.513 0.375,-0.514 0.378,-0.514L0.495,-0.514C0.498,-0.514 0.501,-0.513 0.504,-0.511C0.506,-0.508 0.507,-0.505 0.507,-0.502L0.507,-0.046C0.507,0.041 0.482,0.104 0.432,0.141C0.381,0.178 0.316,0.197 0.237,0.197C0.214,0.197 0.188,0.195 0.159,0.192C0.152,0.191 0.149,0.187 0.149,0.179L0.153,0.076C0.153,0.067 0.158,0.064 0.167,0.065C0.191,0.069 0.213,0.071 0.233,0.071C0.276,0.071 0.309,0.062 0.332,0.043C0.355,0.024 0.366,-0.006 0.366,-0.047C0.366,-0.049 0.365,-0.05 0.364,-0.051C0.363,-0.051 0.361,-0.05 0.36,-0.049C0.335,-0.022 0.298,-0.008 0.249,-0.008C0.206,-0.008 0.166,-0.019 0.13,-0.04C0.093,-0.061 0.067,-0.094 0.052,-0.141C0.042,-0.172 0.037,-0.211 0.037,-0.26C0.037,-0.312 0.043,-0.354 0.055,-0.387C0.069,-0.428 0.093,-0.46 0.126,-0.485C0.159,-0.51 0.198,-0.522 0.242,-0.522C0.293,-0.522 0.333,-0.507 0.36,-0.476C0.361,-0.475 0.363,-0.474 0.364,-0.475C0.365,-0.475 0.366,-0.476 0.366,-0.478L0.366,-0.502ZM0.358,-0.179C0.363,-0.199 0.366,-0.226 0.366,-0.261C0.366,-0.282 0.365,-0.298 0.364,-0.309C0.363,-0.32 0.36,-0.331 0.357,-0.341C0.351,-0.359 0.341,-0.374 0.327,-0.385C0.313,-0.396 0.296,-0.401 0.275,-0.401C0.255,-0.401 0.238,-0.396 0.224,-0.385C0.21,-0.374 0.2,-0.359 0.193,-0.341C0.184,-0.321 0.179,-0.294 0.179,-0.26C0.179,-0.223 0.183,-0.196 0.191,-0.18C0.197,-0.162 0.208,-0.148 0.223,-0.137C0.238,-0.126 0.255,-0.12 0.276,-0.12C0.297,-0.12 0.315,-0.126 0.329,-0.137C0.343,-0.148 0.353,-0.162 0.358,-0.179Z" style="fill-rule:nonzero;"/>
            </g>
        </g>
        <g transform="matrix(1,0,0,1,49.9499,-3.56614)">
            <g transform="matrix(39.0893,0,0,39.0893,365.746,426)">
                <path d="M0.301,0.008C0.248,0.008 0.201,-0.001 0.161,-0.018C0.121,-0.035 0.09,-0.059 0.069,-0.091C0.047,-0.122 0.036,-0.159 0.036,-0.201L0.036,-0.223C0.036,-0.226 0.037,-0.229 0.04,-0.232C0.042,-0.234 0.045,-0.235 0.048,-0.235L0.162,-0.235C0.165,-0.235 0.168,-0.234 0.171,-0.232C0.173,-0.229 0.174,-0.226 0.174,-0.223L0.174,-0.208C0.174,-0.181 0.186,-0.159 0.211,-0.141C0.236,-0.122 0.269,-0.113 0.311,-0.113C0.346,-0.113 0.373,-0.121 0.39,-0.136C0.407,-0.151 0.416,-0.169 0.416,-0.191C0.416,-0.207 0.411,-0.221 0.4,-0.232C0.389,-0.243 0.375,-0.252 0.357,-0.261C0.338,-0.269 0.309,-0.28 0.269,-0.295C0.224,-0.31 0.187,-0.326 0.156,-0.342C0.125,-0.358 0.098,-0.38 0.078,-0.408C0.056,-0.435 0.046,-0.469 0.046,-0.51C0.046,-0.55 0.056,-0.585 0.077,-0.615C0.098,-0.645 0.126,-0.668 0.163,-0.684C0.2,-0.7 0.242,-0.708 0.29,-0.708C0.341,-0.708 0.386,-0.699 0.426,-0.681C0.465,-0.663 0.496,-0.638 0.519,-0.606C0.541,-0.573 0.552,-0.536 0.552,-0.493L0.552,-0.478C0.552,-0.475 0.551,-0.472 0.549,-0.47C0.546,-0.467 0.543,-0.466 0.54,-0.466L0.425,-0.466C0.422,-0.466 0.419,-0.467 0.417,-0.47C0.414,-0.472 0.413,-0.475 0.413,-0.478L0.413,-0.486C0.413,-0.514 0.402,-0.538 0.379,-0.558C0.356,-0.577 0.324,-0.587 0.284,-0.587C0.253,-0.587 0.228,-0.58 0.211,-0.567C0.193,-0.554 0.184,-0.535 0.184,-0.512C0.184,-0.495 0.189,-0.481 0.2,-0.47C0.21,-0.459 0.225,-0.448 0.246,-0.44C0.266,-0.431 0.297,-0.418 0.34,-0.403C0.387,-0.386 0.425,-0.37 0.452,-0.357C0.478,-0.344 0.503,-0.324 0.525,-0.298C0.546,-0.271 0.557,-0.237 0.557,-0.195C0.557,-0.132 0.534,-0.083 0.488,-0.047C0.442,-0.01 0.38,0.008 0.301,0.008Z" style="fill-rule:nonzero;"/>
            </g>
            <g transform="matrix(39.0893,0,0,39.0893,389.004,426)">
                <path d="M0.128,-0.572C0.105,-0.572 0.087,-0.58 0.072,-0.595C0.057,-0.61 0.049,-0.628 0.049,-0.651C0.049,-0.674 0.056,-0.693 0.071,-0.708C0.086,-0.723 0.105,-0.73 0.128,-0.73C0.151,-0.73 0.17,-0.723 0.185,-0.708C0.2,-0.693 0.207,-0.674 0.207,-0.651C0.207,-0.628 0.2,-0.61 0.185,-0.595C0.169,-0.58 0.151,-0.572 0.128,-0.572ZM0.068,-0C0.065,-0 0.062,-0.001 0.06,-0.004C0.057,-0.006 0.056,-0.009 0.056,-0.012L0.056,-0.503C0.056,-0.506 0.057,-0.509 0.06,-0.512C0.062,-0.514 0.065,-0.515 0.068,-0.515L0.185,-0.515C0.188,-0.515 0.191,-0.514 0.194,-0.512C0.196,-0.509 0.197,-0.506 0.197,-0.503L0.197,-0.012C0.197,-0.009 0.196,-0.006 0.194,-0.004C0.191,-0.001 0.188,-0 0.185,-0L0.068,-0Z" style="fill-rule:nonzero;"/>
            </g>
            <g transform="matrix(39.0893,0,0,39.0893,398.971,426)">
                <path d="M0.32,-0.522C0.373,-0.522 0.416,-0.506 0.449,-0.473C0.482,-0.44 0.498,-0.396 0.498,-0.34L0.498,-0.012C0.498,-0.009 0.497,-0.006 0.495,-0.004C0.492,-0.001 0.489,-0 0.486,-0L0.369,-0C0.366,-0 0.363,-0.001 0.361,-0.004C0.358,-0.006 0.357,-0.009 0.357,-0.012L0.357,-0.311C0.357,-0.338 0.349,-0.359 0.335,-0.376C0.32,-0.393 0.3,-0.401 0.275,-0.401C0.25,-0.401 0.231,-0.393 0.216,-0.376C0.201,-0.359 0.193,-0.338 0.193,-0.311L0.193,-0.012C0.193,-0.009 0.192,-0.006 0.19,-0.004C0.187,-0.001 0.184,-0 0.181,-0L0.064,-0C0.061,-0 0.058,-0.001 0.056,-0.004C0.053,-0.006 0.052,-0.009 0.052,-0.012L0.052,-0.502C0.052,-0.505 0.053,-0.508 0.056,-0.511C0.058,-0.513 0.061,-0.514 0.064,-0.514L0.181,-0.514C0.184,-0.514 0.187,-0.513 0.19,-0.511C0.192,-0.508 0.193,-0.505 0.193,-0.502L0.193,-0.467C0.193,-0.465 0.194,-0.464 0.195,-0.463C0.196,-0.462 0.197,-0.463 0.198,-0.464C0.225,-0.503 0.266,-0.522 0.32,-0.522Z" style="fill-rule:nonzero;"/>
            </g>
            <g transform="matrix(39.0893,0,0,39.0893,420.353,426)">
                <path d="M0.366,-0.502C0.366,-0.505 0.367,-0.508 0.37,-0.511C0.372,-0.513 0.375,-0.514 0.378,-0.514L0.495,-0.514C0.498,-0.514 0.501,-0.513 0.504,-0.511C0.506,-0.508 0.507,-0.505 0.507,-0.502L0.507,-0.046C0.507,0.041 0.482,0.104 0.432,0.141C0.381,0.178 0.316,0.197 0.237,0.197C0.214,0.197 0.188,0.195 0.159,0.192C0.152,0.191 0.149,0.187 0.149,0.179L0.153,0.076C0.153,0.067 0.158,0.064 0.167,0.065C0.191,0.069 0.213,0.071 0.233,0.071C0.276,0.071 0.309,0.062 0.332,0.043C0.355,0.024 0.366,-0.006 0.366,-0.047C0.366,-0.049 0.365,-0.05 0.364,-0.051C0.363,-0.051 0.361,-0.05 0.36,-0.049C0.335,-0.022 0.298,-0.008 0.249,-0.008C0.206,-0.008 0.166,-0.019 0.13,-0.04C0.093,-0.061 0.067,-0.094 0.052,-0.141C0.042,-0.172 0.037,-0.211 0.037,-0.26C0.037,-0.312 0.043,-0.354 0.055,-0.387C0.069,-0.428 0.093,-0.46 0.126,-0.485C0.159,-0.51 0.198,-0.522 0.242,-0.522C0.293,-0.522 0.333,-0.507 0.36,-0.476C0.361,-0.475 0.363,-0.474 0.364,-0.475C0.365,-0.475 0.366,-0.476 0.366,-0.478L0.366,-0.502ZM0.358,-0.179C0.363,-0.199 0.366,-0.226 0.366,-0.261C0.366,-0.282 0.365,-0.298 0.364,-0.309C0.363,-0.32 0.36,-0.331 0.357,-0.341C0.351,-0.359 0.341,-0.374 0.327,-0.385C0.313,-0.396 0.296,-0.401 0.275,-0.401C0.255,-0.401 0.238,-0.396 0.224,-0.385C0.21,-0.374 0.2,-0.359 0.193,-0.341C0.184,-0.321 0.179,-0.294 0.179,-0.26C0.179,-0.223 0.183,-0.196 0.191,-0.18C0.197,-0.162 0.208,-0.148 0.223,-0.137C0.238,-0.126 0.255,-0.12 0.276,-0.12C0.297,-0.12 0.315,-0.126 0.329,-0.137C0.343,-0.148 0.353,-0.162 0.358,-0.179Z" style="fill-rule:nonzero;"/>
            </g>
            <g transform="matrix(39.0893,0,0,39.0893,442.087,426)">
                <path d="M0.507,-0.31C0.511,-0.285 0.512,-0.256 0.511,-0.225C0.51,-0.217 0.506,-0.213 0.498,-0.213L0.189,-0.213C0.185,-0.213 0.184,-0.211 0.185,-0.208C0.187,-0.195 0.191,-0.181 0.196,-0.168C0.213,-0.131 0.249,-0.112 0.302,-0.112C0.345,-0.113 0.378,-0.13 0.403,-0.164C0.406,-0.168 0.409,-0.17 0.412,-0.17C0.414,-0.17 0.416,-0.169 0.419,-0.166L0.491,-0.095C0.494,-0.092 0.496,-0.089 0.496,-0.086C0.496,-0.085 0.495,-0.082 0.492,-0.078C0.47,-0.051 0.442,-0.029 0.407,-0.015C0.372,0 0.334,0.008 0.293,0.008C0.236,0.008 0.187,-0.005 0.148,-0.031C0.108,-0.057 0.079,-0.093 0.062,-0.14C0.048,-0.173 0.041,-0.217 0.041,-0.271C0.041,-0.308 0.046,-0.34 0.056,-0.368C0.071,-0.415 0.098,-0.453 0.137,-0.481C0.175,-0.509 0.22,-0.523 0.273,-0.523C0.34,-0.523 0.393,-0.504 0.434,-0.465C0.474,-0.426 0.498,-0.375 0.507,-0.31ZM0.274,-0.401C0.232,-0.401 0.204,-0.381 0.191,-0.342C0.188,-0.333 0.186,-0.323 0.184,-0.31C0.184,-0.307 0.186,-0.305 0.189,-0.305L0.362,-0.305C0.366,-0.305 0.367,-0.307 0.366,-0.31C0.363,-0.329 0.361,-0.339 0.361,-0.338C0.355,-0.358 0.345,-0.374 0.33,-0.385C0.315,-0.396 0.296,-0.401 0.274,-0.401Z" style="fill-rule:nonzero;"/>
            </g>
            <g transform="matrix(39.0893,0,0,39.0893,463.43,426)">
                <path d="M0.308,-0.521C0.332,-0.521 0.351,-0.516 0.365,-0.507C0.37,-0.504 0.372,-0.499 0.371,-0.492L0.35,-0.378C0.349,-0.37 0.345,-0.368 0.336,-0.371C0.326,-0.374 0.314,-0.376 0.301,-0.376C0.296,-0.376 0.288,-0.375 0.279,-0.374C0.255,-0.372 0.235,-0.363 0.218,-0.348C0.201,-0.332 0.193,-0.311 0.193,-0.285L0.193,-0.012C0.193,-0.009 0.192,-0.006 0.19,-0.004C0.187,-0.001 0.184,-0 0.181,-0L0.064,-0C0.061,-0 0.058,-0.001 0.056,-0.004C0.053,-0.006 0.052,-0.009 0.052,-0.012L0.052,-0.502C0.052,-0.505 0.053,-0.508 0.056,-0.511C0.058,-0.513 0.061,-0.514 0.064,-0.514L0.181,-0.514C0.184,-0.514 0.187,-0.513 0.19,-0.511C0.192,-0.508 0.193,-0.505 0.193,-0.502L0.193,-0.464C0.193,-0.462 0.194,-0.461 0.195,-0.46C0.196,-0.459 0.197,-0.46 0.198,-0.461C0.225,-0.501 0.262,-0.521 0.308,-0.521Z" style="fill-rule:nonzero;"/>
            </g>
        </g>
        <g transform="matrix(1,0,0,1,-73.5,-301.5)">
            <path d="M885,648L999,711.5L885,775L771,711.5L885,648Z" style="fill:rgb(229,183,110);"/>
        </g>
        <g transform="matrix(1,0,0,1,388.95,-6.01268)">
            <g transform="matrix(31,0,0,31,358.012,426)">
                <path d="M0.511,-0.376C0.523,-0.342 0.529,-0.302 0.529,-0.256C0.529,-0.21 0.523,-0.168 0.51,-0.131C0.495,-0.088 0.47,-0.055 0.438,-0.03C0.405,-0.005 0.364,0.008 0.315,0.008C0.267,0.008 0.23,-0.009 0.203,-0.042C0.202,-0.044 0.2,-0.045 0.199,-0.044C0.198,-0.043 0.197,-0.042 0.197,-0.04L0.197,0.174C0.197,0.177 0.196,0.18 0.194,0.183C0.191,0.185 0.188,0.186 0.185,0.186L0.068,0.186C0.065,0.186 0.062,0.185 0.06,0.183C0.057,0.18 0.056,0.177 0.056,0.174L0.056,-0.502C0.056,-0.505 0.057,-0.508 0.06,-0.511C0.062,-0.513 0.065,-0.514 0.068,-0.514L0.185,-0.514C0.188,-0.514 0.191,-0.513 0.194,-0.511C0.196,-0.508 0.197,-0.505 0.197,-0.502L0.197,-0.469C0.197,-0.467 0.198,-0.466 0.199,-0.466C0.2,-0.465 0.202,-0.466 0.203,-0.467C0.231,-0.504 0.27,-0.522 0.319,-0.522C0.365,-0.522 0.405,-0.509 0.439,-0.484C0.472,-0.458 0.496,-0.422 0.511,-0.376ZM0.358,-0.152C0.375,-0.178 0.383,-0.213 0.383,-0.258C0.383,-0.3 0.376,-0.333 0.362,-0.358C0.347,-0.387 0.322,-0.401 0.288,-0.401C0.257,-0.401 0.234,-0.387 0.219,-0.358C0.205,-0.334 0.198,-0.3 0.198,-0.257C0.198,-0.212 0.205,-0.178 0.22,-0.153C0.235,-0.126 0.258,-0.113 0.288,-0.113C0.318,-0.113 0.341,-0.126 0.358,-0.152Z" style="fill-rule:nonzero;"/>
            </g>
            <g transform="matrix(31,0,0,31,375.527,426)">
                <path d="M0.507,-0.31C0.511,-0.285 0.512,-0.256 0.511,-0.225C0.51,-0.217 0.506,-0.213 0.498,-0.213L0.189,-0.213C0.185,-0.213 0.184,-0.211 0.185,-0.208C0.187,-0.195 0.191,-0.181 0.196,-0.168C0.213,-0.131 0.249,-0.112 0.302,-0.112C0.345,-0.113 0.378,-0.13 0.403,-0.164C0.406,-0.168 0.409,-0.17 0.412,-0.17C0.414,-0.17 0.416,-0.169 0.419,-0.166L0.491,-0.095C0.494,-0.092 0.496,-0.089 0.496,-0.086C0.496,-0.085 0.495,-0.082 0.492,-0.078C0.47,-0.051 0.442,-0.029 0.407,-0.015C0.372,0 0.334,0.008 0.293,0.008C0.236,0.008 0.187,-0.005 0.148,-0.031C0.108,-0.057 0.079,-0.093 0.062,-0.14C0.048,-0.173 0.041,-0.217 0.041,-0.271C0.041,-0.308 0.046,-0.34 0.056,-0.368C0.071,-0.415 0.098,-0.453 0.137,-0.481C0.175,-0.509 0.22,-0.523 0.273,-0.523C0.34,-0.523 0.393,-0.504 0.434,-0.465C0.474,-0.426 0.498,-0.375 0.507,-0.31ZM0.274,-0.401C0.232,-0.401 0.204,-0.381 0.191,-0.342C0.188,-0.333 0.186,-0.323 0.184,-0.31C0.184,-0.307 0.186,-0.305 0.189,-0.305L0.362,-0.305C0.366,-0.305 0.367,-0.307 0.366,-0.31C0.363,-0.329 0.361,-0.339 0.361,-0.338C0.355,-0.358 0.345,-0.374 0.33,-0.385C0.315,-0.396 0.296,-0.401 0.274,-0.401Z" style="fill-rule:nonzero;"/>
            </g>
            <g transform="matrix(31,0,0,31,392.453,426)">
                <path d="M0.308,-0.521C0.332,-0.521 0.351,-0.516 0.365,-0.507C0.37,-0.504 0.372,-0.499 0.371,-0.492L0.35,-0.378C0.349,-0.37 0.345,-0.368 0.336,-0.371C0.326,-0.374 0.314,-0.376 0.301,-0.376C0.296,-0.376 0.288,-0.375 0.279,-0.374C0.255,-0.372 0.235,-0.363 0.218,-0.348C0.201,-0.332 0.193,-0.311 0.193,-0.285L0.193,-0.012C0.193,-0.009 0.192,-0.006 0.19,-0.004C0.187,-0.001 0.184,-0 0.181,-0L0.064,-0C0.061,-0 0.058,-0.001 0.056,-0.004C0.053,-0.006 0.052,-0.009 0.052,-0.012L0.052,-0.502C0.052,-0.505 0.053,-0.508 0.056,-0.511C0.058,-0.513 0.061,-0.514 0.064,-0.514L0.181,-0.514C0.184,-0.514 0.187,-0.513 0.19,-0.511C0.192,-0.508 0.193,-0.505 0.193,-0.502L0.193,-0.464C0.193,-0.462 0.194,-0.461 0.195,-0.46C0.196,-0.459 0.197,-0.46 0.198,-0.461C0.225,-0.501 0.262,-0.521 0.308,-0.521Z" style="fill-rule:nonzero;"/>
            </g>
            <g transform="matrix(31,0,0,31,404.512,426)">
                <path d="M0.345,-0.515C0.348,-0.515 0.351,-0.514 0.354,-0.512C0.356,-0.509 0.357,-0.506 0.357,-0.503L0.357,-0.408C0.357,-0.405 0.356,-0.402 0.354,-0.4C0.351,-0.397 0.348,-0.396 0.345,-0.396L0.248,-0.396C0.245,-0.396 0.243,-0.394 0.243,-0.391L0.243,-0.012C0.243,-0.009 0.242,-0.006 0.24,-0.004C0.237,-0.001 0.234,-0 0.231,-0L0.114,-0C0.111,-0 0.108,-0.001 0.106,-0.004C0.103,-0.006 0.102,-0.009 0.102,-0.012L0.102,-0.391C0.102,-0.394 0.1,-0.396 0.097,-0.396L0.038,-0.396C0.035,-0.396 0.032,-0.397 0.03,-0.4C0.027,-0.402 0.026,-0.405 0.026,-0.408L0.026,-0.503C0.026,-0.506 0.027,-0.509 0.03,-0.512C0.032,-0.514 0.035,-0.515 0.038,-0.515L0.097,-0.515C0.1,-0.515 0.102,-0.517 0.102,-0.52L0.102,-0.542C0.102,-0.583 0.108,-0.616 0.121,-0.639C0.134,-0.662 0.154,-0.678 0.183,-0.688C0.211,-0.697 0.25,-0.701 0.3,-0.7L0.338,-0.7C0.341,-0.7 0.344,-0.699 0.347,-0.697C0.349,-0.694 0.35,-0.691 0.35,-0.688L0.35,-0.607C0.35,-0.604 0.349,-0.601 0.347,-0.599C0.344,-0.596 0.341,-0.595 0.338,-0.595L0.305,-0.595C0.282,-0.594 0.266,-0.59 0.257,-0.581C0.247,-0.572 0.243,-0.555 0.243,-0.531L0.243,-0.52C0.243,-0.517 0.245,-0.515 0.248,-0.515L0.345,-0.515Z" style="fill-rule:nonzero;"/>
            </g>
            <g transform="matrix(31,0,0,31,415.548,426)">
                <path d="M0.279,0.008C0.223,0.008 0.175,-0.007 0.135,-0.036C0.095,-0.065 0.068,-0.105 0.053,-0.156C0.044,-0.187 0.039,-0.221 0.039,-0.258C0.039,-0.297 0.044,-0.333 0.053,-0.364C0.068,-0.413 0.096,-0.452 0.136,-0.48C0.176,-0.508 0.224,-0.522 0.28,-0.522C0.335,-0.522 0.381,-0.508 0.42,-0.481C0.459,-0.453 0.486,-0.414 0.502,-0.365C0.513,-0.332 0.518,-0.297 0.518,-0.26C0.518,-0.224 0.513,-0.19 0.504,-0.159C0.489,-0.107 0.462,-0.066 0.423,-0.037C0.383,-0.007 0.335,0.008 0.279,0.008ZM0.279,-0.113C0.301,-0.113 0.32,-0.12 0.335,-0.133C0.35,-0.146 0.361,-0.165 0.368,-0.188C0.373,-0.209 0.376,-0.233 0.376,-0.258C0.376,-0.286 0.373,-0.31 0.368,-0.329C0.361,-0.352 0.349,-0.369 0.334,-0.382C0.319,-0.395 0.3,-0.401 0.278,-0.401C0.255,-0.401 0.237,-0.395 0.222,-0.382C0.207,-0.369 0.196,-0.352 0.189,-0.329C0.184,-0.313 0.181,-0.289 0.181,-0.258C0.181,-0.228 0.183,-0.205 0.188,-0.188C0.195,-0.165 0.206,-0.146 0.222,-0.133C0.237,-0.12 0.256,-0.113 0.279,-0.113Z" style="fill-rule:nonzero;"/>
            </g>
            <g transform="matrix(31,0,0,31,432.815,426)">
                <path d="M0.308,-0.521C0.332,-0.521 0.351,-0.516 0.365,-0.507C0.37,-0.504 0.372,-0.499 0.371,-0.492L0.35,-0.378C0.349,-0.37 0.345,-0.368 0.336,-0.371C0.326,-0.374 0.314,-0.376 0.301,-0.376C0.296,-0.376 0.288,-0.375 0.279,-0.374C0.255,-0.372 0.235,-0.363 0.218,-0.348C0.201,-0.332 0.193,-0.311 0.193,-0.285L0.193,-0.012C0.193,-0.009 0.192,-0.006 0.19,-0.004C0.187,-0.001 0.184,-0 0.181,-0L0.064,-0C0.061,-0 0.058,-0.001 0.056,-0.004C0.053,-0.006 0.052,-0.009 0.052,-0.012L0.052,-0.502C0.052,-0.505 0.053,-0.508 0.056,-0.511C0.058,-0.513 0.061,-0.514 0.064,-0.514L0.181,-0.514C0.184,-0.514 0.187,-0.513 0.19,-0.511C0.192,-0.508 0.193,-0.505 0.193,-0.502L0.193,-0.464C0.193,-0.462 0.194,-0.461 0.195,-0.46C0.196,-0.459 0.197,-0.46 0.198,-0.461C0.225,-0.501 0.262,-0.521 0.308,-0.521Z" style="fill-rule:nonzero;"/>
            </g>
            <g transform="matrix(31,0,0,31,444.688,426)">
                <path d="M0.622,-0.522C0.674,-0.522 0.715,-0.506 0.744,-0.475C0.773,-0.444 0.788,-0.4 0.788,-0.343L0.788,-0.012C0.788,-0.009 0.787,-0.006 0.785,-0.004C0.782,-0.001 0.779,-0 0.776,-0L0.659,-0C0.656,-0 0.653,-0.001 0.651,-0.004C0.648,-0.006 0.647,-0.009 0.647,-0.012L0.647,-0.312C0.647,-0.339 0.64,-0.361 0.626,-0.377C0.612,-0.393 0.593,-0.401 0.57,-0.401C0.547,-0.401 0.528,-0.393 0.513,-0.377C0.498,-0.361 0.491,-0.34 0.491,-0.313L0.491,-0.012C0.491,-0.009 0.49,-0.006 0.488,-0.004C0.485,-0.001 0.482,-0 0.479,-0L0.363,-0C0.36,-0 0.357,-0.001 0.355,-0.004C0.352,-0.006 0.351,-0.009 0.351,-0.012L0.351,-0.312C0.351,-0.339 0.344,-0.36 0.329,-0.377C0.314,-0.393 0.295,-0.401 0.272,-0.401C0.251,-0.401 0.233,-0.395 0.219,-0.382C0.204,-0.369 0.196,-0.352 0.193,-0.329L0.193,-0.012C0.193,-0.009 0.192,-0.006 0.19,-0.004C0.187,-0.001 0.184,-0 0.181,-0L0.064,-0C0.061,-0 0.058,-0.001 0.056,-0.004C0.053,-0.006 0.052,-0.009 0.052,-0.012L0.052,-0.502C0.052,-0.505 0.053,-0.508 0.056,-0.511C0.058,-0.513 0.061,-0.514 0.064,-0.514L0.181,-0.514C0.184,-0.514 0.187,-0.513 0.19,-0.511C0.192,-0.508 0.193,-0.505 0.193,-0.502L0.193,-0.463C0.193,-0.461 0.194,-0.46 0.195,-0.459C0.196,-0.458 0.198,-0.459 0.199,-0.461C0.226,-0.502 0.269,-0.522 0.326,-0.522C0.359,-0.522 0.389,-0.515 0.414,-0.501C0.439,-0.487 0.458,-0.467 0.471,-0.441C0.473,-0.437 0.475,-0.437 0.478,-0.441C0.493,-0.468 0.513,-0.489 0.538,-0.502C0.563,-0.515 0.591,-0.522 0.622,-0.522Z" style="fill-rule:nonzero;"/>
            </g>
            <g transform="matrix(31,0,0,31,470.573,426)">
                <path d="M0.257,0.007C0.212,0.007 0.173,0.001 0.14,-0.012C0.107,-0.025 0.081,-0.042 0.063,-0.065C0.044,-0.088 0.035,-0.113 0.035,-0.142L0.035,-0.152C0.035,-0.155 0.036,-0.158 0.039,-0.161C0.041,-0.163 0.044,-0.164 0.047,-0.164L0.158,-0.164C0.161,-0.164 0.164,-0.163 0.167,-0.161C0.169,-0.158 0.17,-0.155 0.17,-0.152L0.17,-0.151C0.17,-0.136 0.178,-0.124 0.195,-0.114C0.211,-0.103 0.231,-0.098 0.256,-0.098C0.279,-0.098 0.297,-0.102 0.311,-0.112C0.325,-0.121 0.332,-0.132 0.332,-0.145C0.332,-0.157 0.326,-0.166 0.314,-0.172C0.302,-0.178 0.282,-0.184 0.255,-0.191C0.224,-0.199 0.199,-0.207 0.181,-0.214C0.138,-0.229 0.104,-0.247 0.079,-0.268C0.054,-0.289 0.041,-0.32 0.041,-0.36C0.041,-0.409 0.06,-0.448 0.099,-0.478C0.137,-0.507 0.188,-0.521 0.251,-0.521C0.294,-0.521 0.331,-0.514 0.363,-0.501C0.395,-0.487 0.42,-0.468 0.438,-0.443C0.455,-0.418 0.464,-0.39 0.464,-0.359C0.464,-0.356 0.463,-0.353 0.461,-0.351C0.458,-0.348 0.455,-0.347 0.452,-0.347L0.345,-0.347C0.342,-0.347 0.339,-0.348 0.337,-0.351C0.334,-0.353 0.333,-0.356 0.333,-0.359C0.333,-0.374 0.326,-0.386 0.311,-0.396C0.296,-0.406 0.276,-0.411 0.251,-0.411C0.229,-0.411 0.211,-0.407 0.197,-0.399C0.183,-0.391 0.176,-0.38 0.176,-0.366C0.176,-0.353 0.183,-0.343 0.197,-0.336C0.21,-0.329 0.233,-0.322 0.265,-0.315C0.272,-0.313 0.281,-0.311 0.29,-0.309C0.299,-0.306 0.309,-0.303 0.32,-0.3C0.367,-0.286 0.405,-0.268 0.432,-0.246C0.459,-0.224 0.473,-0.192 0.473,-0.15C0.473,-0.101 0.454,-0.062 0.415,-0.035C0.376,-0.007 0.323,0.007 0.257,0.007Z" style="fill-rule:nonzero;"/>
            </g>
        </g>
        <g transform="matrix(-1,0,0,1,1286.5,0)">
            <g transform="matrix(-1,0,0,1,930.5,280.699)">
                <path d="M242,136.051L233,129.301L242,122.551L242,136.051Z"/>
                <path d="M341.5,129.301L240.2,129.301" style="fill:none;stroke:black;stroke-width:3px;"/>
            </g>
        </g>
        <g transform="matrix(1,-0,-0,1,356,280.699)">
            <path d="M669,122.551L678,129.301L669,136.051L669,122.551Z"/>
            <path d="M569.383,129.301L670.8,129.301" style="fill:none;stroke:black;stroke-width:3px;"/>
        </g>
        <g transform="matrix(1,0,0,1,181.942,-179.101)">
            <g transform="matrix(20,0,0,20,784.17,580)">
                <path d="M0.15,-0.697C0.153,-0.699 0.158,-0.7 0.165,-0.7L0.286,-0.7C0.289,-0.7 0.292,-0.699 0.295,-0.697C0.297,-0.694 0.298,-0.691 0.298,-0.688L0.298,-0.012C0.298,-0.009 0.297,-0.006 0.295,-0.004C0.292,-0.001 0.289,-0 0.286,-0L0.169,-0C0.166,-0 0.163,-0.001 0.161,-0.004C0.158,-0.006 0.157,-0.009 0.157,-0.012L0.157,-0.56C0.157,-0.561 0.156,-0.563 0.155,-0.564C0.154,-0.565 0.152,-0.566 0.151,-0.565L0.052,-0.538L0.048,-0.537C0.042,-0.537 0.039,-0.541 0.039,-0.548L0.036,-0.634C0.036,-0.641 0.039,-0.645 0.045,-0.648L0.15,-0.697Z" style="fill-rule:nonzero;"/>
            </g>
            <g transform="matrix(20,0,0,20,791.25,580)">
                <path d="M0.179,-0.332C0.156,-0.332 0.137,-0.339 0.123,-0.355C0.108,-0.37 0.1,-0.388 0.1,-0.411C0.1,-0.434 0.107,-0.453 0.122,-0.468C0.137,-0.483 0.156,-0.49 0.179,-0.49C0.202,-0.49 0.221,-0.483 0.236,-0.468C0.251,-0.453 0.258,-0.434 0.258,-0.411C0.258,-0.388 0.251,-0.37 0.236,-0.355C0.221,-0.339 0.202,-0.332 0.179,-0.332ZM0.179,-0.005C0.156,-0.005 0.137,-0.012 0.123,-0.028C0.108,-0.043 0.1,-0.061 0.1,-0.084C0.1,-0.107 0.107,-0.126 0.122,-0.141C0.137,-0.156 0.156,-0.163 0.179,-0.163C0.202,-0.163 0.221,-0.156 0.236,-0.141C0.251,-0.126 0.258,-0.107 0.258,-0.084C0.258,-0.061 0.251,-0.043 0.236,-0.028C0.221,-0.012 0.202,-0.005 0.179,-0.005Z" style="fill-rule:nonzero;"/>
            </g>
            <g transform="matrix(20,0,0,20,798.53,580)">
                <path d="M0.463,-0.688C0.463,-0.691 0.464,-0.694 0.467,-0.697C0.469,-0.699 0.472,-0.7 0.475,-0.7L0.592,-0.7C0.595,-0.7 0.598,-0.699 0.601,-0.697C0.603,-0.694 0.604,-0.691 0.604,-0.688L0.604,-0.012C0.604,-0.009 0.603,-0.006 0.601,-0.004C0.598,-0.001 0.595,-0 0.592,-0L0.479,-0C0.472,-0 0.468,-0.003 0.465,-0.008L0.206,-0.436C0.205,-0.438 0.203,-0.439 0.202,-0.439C0.201,-0.438 0.2,-0.437 0.2,-0.434L0.202,-0.012C0.202,-0.009 0.201,-0.006 0.199,-0.004C0.196,-0.001 0.193,-0 0.19,-0L0.073,-0C0.07,-0 0.067,-0.001 0.065,-0.004C0.062,-0.006 0.061,-0.009 0.061,-0.012L0.061,-0.688C0.061,-0.691 0.062,-0.694 0.065,-0.697C0.067,-0.699 0.07,-0.7 0.073,-0.7L0.186,-0.7C0.193,-0.7 0.197,-0.697 0.2,-0.692L0.458,-0.266C0.459,-0.264 0.461,-0.263 0.462,-0.264C0.463,-0.264 0.464,-0.265 0.464,-0.268L0.463,-0.688Z" style="fill-rule:nonzero;"/>
            </g>
        </g>
        <g transform="matrix(1,0,0,1,-154.442,-179.101)">
            <g transform="matrix(20,0,0,20,787.28,580)">
                <path d="M0.15,-0.697C0.153,-0.699 0.158,-0.7 0.165,-0.7L0.286,-0.7C0.289,-0.7 0.292,-0.699 0.295,-0.697C0.297,-0.694 0.298,-0.691 0.298,-0.688L0.298,-0.012C0.298,-0.009 0.297,-0.006 0.295,-0.004C0.292,-0.001 0.289,-0 0.286,-0L0.169,-0C0.166,-0 0.163,-0.001 0.161,-0.004C0.158,-0.006 0.157,-0.009 0.157,-0.012L0.157,-0.56C0.157,-0.561 0.156,-0.563 0.155,-0.564C0.154,-0.565 0.152,-0.566 0.151,-0.565L0.052,-0.538L0.048,-0.537C0.042,-0.537 0.039,-0.541 0.039,-0.548L0.036,-0.634C0.036,-0.641 0.039,-0.645 0.045,-0.648L0.15,-0.697Z" style="fill-rule:nonzero;"/>
            </g>
            <g transform="matrix(20,0,0,20,794.36,580)">
                <path d="M0.179,-0.332C0.156,-0.332 0.137,-0.339 0.123,-0.355C0.108,-0.37 0.1,-0.388 0.1,-0.411C0.1,-0.434 0.107,-0.453 0.122,-0.468C0.137,-0.483 0.156,-0.49 0.179,-0.49C0.202,-0.49 0.221,-0.483 0.236,-0.468C0.251,-0.453 0.258,-0.434 0.258,-0.411C0.258,-0.388 0.251,-0.37 0.236,-0.355C0.221,-0.339 0.202,-0.332 0.179,-0.332ZM0.179,-0.005C0.156,-0.005 0.137,-0.012 0.123,-0.028C0.108,-0.043 0.1,-0.061 0.1,-0.084C0.1,-0.107 0.107,-0.126 0.122,-0.141C0.137,-0.156 0.156,-0.163 0.179,-0.163C0.202,-0.163 0.221,-0.156 0.236,-0.141C0.251,-0.126 0.258,-0.107 0.258,-0.084C0.258,-0.061 0.251,-0.043 0.236,-0.028C0.221,-0.012 0.202,-0.005 0.179,-0.005Z" style="fill-rule:nonzero;"/>
            </g>
            <g transform="matrix(20,0,0,20,801.64,580)">
                <path d="M0.15,-0.697C0.153,-0.699 0.158,-0.7 0.165,-0.7L0.286,-0.7C0.289,-0.7 0.292,-0.699 0.295,-0.697C0.297,-0.694 0.298,-0.691 0.298,-0.688L0.298,-0.012C0.298,-0.009 0.297,-0.006 0.295,-0.004C0.292,-0.001 0.289,-0 0.286,-0L0.169,-0C0.166,-0 0.163,-0.001 0.161,-0.004C0.158,-0.006 0.157,-0.009 0.157,-0.012L0.157,-0.56C0.157,-0.561 0.156,-0.563 0.155,-0.564C0.154,-0.565 0.152,-0.566 0.151,-0.565L0.052,-0.538L0.048,-0.537C0.042,-0.537 0.039,-0.541 0.039,-0.548L0.036,-0.634C0.036,-0.641 0.039,-0.645 0.045,-0.648L0.15,-0.697Z" style="fill-rule:nonzero;"/>
            </g>
        </g>
        <g transform="matrix(1,0,0,1,12.5388,-285.101)">
            <g transform="matrix(20,0,0,20,748.83,580)">
                <path d="M0.59,-0.648C0.589,-0.641 0.585,-0.638 0.579,-0.638L0.223,-0.638C0.221,-0.638 0.219,-0.637 0.218,-0.634L0.188,-0.387C0.188,-0.384 0.189,-0.383 0.192,-0.383L0.441,-0.383C0.448,-0.383 0.45,-0.38 0.449,-0.373L0.444,-0.331C0.443,-0.324 0.439,-0.321 0.433,-0.321L0.184,-0.321C0.181,-0.321 0.18,-0.32 0.18,-0.317L0.142,-0.01C0.141,-0.003 0.137,-0 0.131,-0L0.081,-0C0.078,-0 0.076,-0.001 0.075,-0.003C0.073,-0.005 0.072,-0.007 0.073,-0.01L0.157,-0.69C0.157,-0.693 0.158,-0.695 0.16,-0.697C0.162,-0.699 0.164,-0.7 0.167,-0.7L0.586,-0.7C0.589,-0.7 0.592,-0.699 0.594,-0.697C0.595,-0.695 0.596,-0.693 0.595,-0.69L0.59,-0.648Z" style="fill:rgb(168,168,168);fill-rule:nonzero;"/>
            </g>
            <g transform="matrix(20,0,0,20,759.05,580)">
                <path d="M0.244,0.008C0.197,0.008 0.159,-0.004 0.128,-0.029C0.097,-0.054 0.078,-0.088 0.071,-0.131C0.069,-0.145 0.068,-0.161 0.068,-0.179C0.068,-0.199 0.07,-0.224 0.073,-0.254C0.079,-0.305 0.088,-0.345 0.101,-0.376C0.118,-0.419 0.146,-0.452 0.183,-0.477C0.22,-0.502 0.262,-0.514 0.309,-0.514C0.355,-0.514 0.393,-0.502 0.424,-0.477C0.454,-0.452 0.473,-0.419 0.48,-0.377C0.483,-0.364 0.484,-0.349 0.484,-0.33C0.484,-0.315 0.482,-0.29 0.478,-0.254C0.471,-0.201 0.462,-0.16 0.45,-0.131C0.433,-0.088 0.406,-0.054 0.369,-0.029C0.332,-0.004 0.291,0.008 0.244,0.008ZM0.252,-0.054C0.283,-0.054 0.31,-0.063 0.335,-0.081C0.359,-0.098 0.377,-0.122 0.388,-0.152C0.397,-0.175 0.404,-0.208 0.409,-0.253C0.413,-0.284 0.415,-0.31 0.415,-0.331C0.415,-0.342 0.415,-0.349 0.414,-0.354C0.41,-0.384 0.398,-0.408 0.378,-0.426C0.357,-0.443 0.331,-0.452 0.3,-0.452C0.269,-0.452 0.241,-0.443 0.217,-0.426C0.193,-0.408 0.175,-0.384 0.163,-0.354C0.155,-0.332 0.148,-0.298 0.143,-0.253C0.139,-0.223 0.137,-0.197 0.137,-0.176C0.137,-0.165 0.137,-0.157 0.138,-0.152C0.141,-0.122 0.153,-0.098 0.174,-0.081C0.194,-0.063 0.22,-0.054 0.252,-0.054Z" style="fill:rgb(168,168,168);fill-rule:nonzero;"/>
            </g>
            <g transform="matrix(20,0,0,20,769.63,580)">
                <path d="M0.319,-0.511C0.34,-0.511 0.358,-0.507 0.373,-0.498C0.377,-0.495 0.378,-0.491 0.377,-0.485L0.36,-0.436C0.357,-0.429 0.352,-0.427 0.347,-0.43C0.336,-0.435 0.324,-0.437 0.31,-0.437L0.297,-0.436C0.263,-0.435 0.234,-0.422 0.209,-0.398C0.184,-0.373 0.17,-0.342 0.165,-0.305L0.128,-0.01C0.128,-0.007 0.127,-0.005 0.125,-0.003C0.123,-0.001 0.12,-0 0.117,-0L0.068,-0C0.062,-0 0.059,-0.003 0.059,-0.01L0.119,-0.496C0.12,-0.503 0.124,-0.506 0.13,-0.506L0.179,-0.506C0.182,-0.506 0.185,-0.505 0.187,-0.503C0.188,-0.501 0.189,-0.499 0.188,-0.496L0.18,-0.435C0.18,-0.433 0.181,-0.432 0.182,-0.432C0.183,-0.431 0.184,-0.432 0.185,-0.433C0.201,-0.458 0.22,-0.477 0.243,-0.491C0.266,-0.504 0.291,-0.511 0.319,-0.511Z" style="fill:rgb(168,168,168);fill-rule:nonzero;"/>
            </g>
            <g transform="matrix(20,0,0,20,776.59,580)">
                <path d="M0.476,-0.338C0.476,-0.313 0.473,-0.279 0.467,-0.236C0.467,-0.233 0.466,-0.231 0.464,-0.229C0.462,-0.227 0.459,-0.226 0.456,-0.226L0.143,-0.226C0.14,-0.226 0.139,-0.225 0.139,-0.222C0.136,-0.193 0.135,-0.174 0.135,-0.166C0.135,-0.132 0.146,-0.105 0.168,-0.085C0.189,-0.064 0.22,-0.054 0.259,-0.054C0.287,-0.054 0.312,-0.06 0.334,-0.073C0.355,-0.086 0.373,-0.104 0.388,-0.127C0.393,-0.133 0.398,-0.134 0.402,-0.131L0.437,-0.108C0.442,-0.105 0.443,-0.1 0.439,-0.094C0.419,-0.062 0.392,-0.037 0.358,-0.019C0.323,-0 0.285,0.009 0.242,0.009C0.196,0.008 0.159,-0.003 0.131,-0.025C0.103,-0.047 0.084,-0.078 0.075,-0.117C0.071,-0.134 0.069,-0.154 0.069,-0.175C0.069,-0.198 0.071,-0.225 0.075,-0.255C0.078,-0.284 0.082,-0.307 0.085,-0.324C0.088,-0.341 0.093,-0.357 0.098,-0.371C0.114,-0.414 0.14,-0.449 0.177,-0.475C0.214,-0.501 0.256,-0.514 0.303,-0.514C0.362,-0.514 0.405,-0.499 0.433,-0.468C0.461,-0.437 0.475,-0.394 0.476,-0.338ZM0.295,-0.452C0.264,-0.452 0.237,-0.444 0.214,-0.427C0.191,-0.409 0.174,-0.387 0.163,-0.358C0.158,-0.345 0.153,-0.322 0.147,-0.29C0.147,-0.287 0.148,-0.286 0.151,-0.286L0.402,-0.286C0.405,-0.286 0.406,-0.287 0.406,-0.29C0.407,-0.317 0.408,-0.334 0.408,-0.341C0.408,-0.374 0.398,-0.401 0.378,-0.422C0.358,-0.442 0.33,-0.452 0.295,-0.452Z" style="fill:rgb(168,168,168);fill-rule:nonzero;"/>
            </g>
            <g transform="matrix(20,0,0,20,786.93,580)">
                <path d="M0.178,-0.598C0.164,-0.598 0.153,-0.603 0.144,-0.612C0.135,-0.62 0.13,-0.632 0.13,-0.646C0.13,-0.664 0.136,-0.679 0.149,-0.692C0.161,-0.704 0.175,-0.71 0.192,-0.71C0.206,-0.71 0.218,-0.706 0.227,-0.697C0.236,-0.688 0.24,-0.677 0.24,-0.662C0.24,-0.644 0.234,-0.629 0.222,-0.617C0.21,-0.604 0.195,-0.598 0.178,-0.598ZM0.078,-0.001C0.072,-0.001 0.069,-0.004 0.069,-0.011L0.129,-0.497C0.13,-0.504 0.134,-0.507 0.14,-0.507L0.189,-0.507C0.192,-0.507 0.195,-0.506 0.197,-0.504C0.198,-0.502 0.199,-0.5 0.198,-0.497L0.138,-0.011C0.137,-0.004 0.133,-0.001 0.127,-0.001L0.078,-0.001Z" style="fill:rgb(168,168,168);fill-rule:nonzero;"/>
            </g>
            <g transform="matrix(20,0,0,20,791.89,580)">
                <path d="M0.422,-0.496C0.422,-0.499 0.423,-0.501 0.425,-0.503C0.427,-0.505 0.43,-0.506 0.433,-0.506L0.482,-0.506C0.488,-0.506 0.491,-0.503 0.491,-0.496L0.432,-0.017C0.423,0.058 0.395,0.112 0.349,0.147C0.303,0.182 0.244,0.199 0.171,0.199C0.156,0.199 0.144,0.199 0.137,0.198C0.13,0.197 0.127,0.194 0.128,0.187L0.136,0.141C0.137,0.134 0.141,0.131 0.147,0.132L0.174,0.133C0.233,0.133 0.278,0.121 0.308,0.097C0.338,0.072 0.356,0.034 0.363,-0.019L0.368,-0.056C0.368,-0.057 0.368,-0.058 0.367,-0.059C0.366,-0.059 0.364,-0.058 0.363,-0.057C0.329,-0.017 0.284,0.003 0.229,0.003C0.187,0.003 0.151,-0.009 0.121,-0.032C0.091,-0.055 0.073,-0.088 0.067,-0.131C0.066,-0.146 0.065,-0.158 0.065,-0.168C0.065,-0.193 0.067,-0.221 0.071,-0.253C0.078,-0.311 0.087,-0.354 0.099,-0.381C0.116,-0.421 0.141,-0.453 0.174,-0.478C0.207,-0.502 0.245,-0.514 0.288,-0.514C0.345,-0.514 0.387,-0.494 0.412,-0.455C0.413,-0.454 0.414,-0.453 0.415,-0.454C0.416,-0.455 0.417,-0.456 0.417,-0.457L0.422,-0.496ZM0.375,-0.153C0.378,-0.164 0.381,-0.175 0.383,-0.187C0.385,-0.199 0.388,-0.221 0.392,-0.254C0.397,-0.299 0.4,-0.327 0.4,-0.339C0.4,-0.346 0.4,-0.351 0.399,-0.355C0.398,-0.383 0.388,-0.406 0.369,-0.425C0.35,-0.443 0.326,-0.452 0.295,-0.452C0.264,-0.452 0.237,-0.443 0.214,-0.425C0.191,-0.407 0.173,-0.384 0.162,-0.355C0.153,-0.334 0.146,-0.301 0.14,-0.255C0.137,-0.23 0.135,-0.207 0.135,-0.184C0.135,-0.172 0.136,-0.162 0.137,-0.154C0.14,-0.126 0.152,-0.103 0.172,-0.085C0.191,-0.066 0.216,-0.057 0.247,-0.057C0.279,-0.057 0.306,-0.066 0.329,-0.084C0.351,-0.102 0.366,-0.125 0.375,-0.153Z" style="fill:rgb(168,168,168);fill-rule:nonzero;"/>
            </g>
            <g transform="matrix(20,0,0,20,802.27,580)">
                <path d="M0.325,-0.513C0.372,-0.513 0.408,-0.5 0.435,-0.474C0.462,-0.448 0.475,-0.413 0.475,-0.368C0.475,-0.363 0.474,-0.353 0.473,-0.34L0.433,-0.01C0.432,-0.003 0.428,-0 0.422,-0L0.372,-0C0.369,-0 0.367,-0.001 0.366,-0.003C0.364,-0.005 0.363,-0.007 0.364,-0.01L0.403,-0.326C0.404,-0.331 0.404,-0.337 0.404,-0.346C0.404,-0.378 0.395,-0.404 0.377,-0.423C0.358,-0.442 0.333,-0.451 0.302,-0.451C0.266,-0.451 0.236,-0.44 0.211,-0.417C0.186,-0.394 0.172,-0.365 0.167,-0.328L0.128,-0.01C0.128,-0.007 0.127,-0.005 0.125,-0.003C0.123,-0.001 0.12,-0 0.117,-0L0.068,-0C0.062,-0 0.059,-0.003 0.059,-0.01L0.119,-0.496C0.12,-0.503 0.124,-0.506 0.13,-0.506L0.179,-0.506C0.182,-0.506 0.185,-0.505 0.187,-0.503C0.188,-0.501 0.189,-0.499 0.188,-0.496L0.183,-0.453C0.182,-0.452 0.183,-0.451 0.184,-0.45C0.185,-0.449 0.186,-0.45 0.187,-0.451C0.203,-0.472 0.223,-0.487 0.247,-0.498C0.27,-0.508 0.296,-0.513 0.325,-0.513Z" style="fill:rgb(168,168,168);fill-rule:nonzero;"/>
            </g>
            <g transform="matrix(20,0,0,20,816.61,580)">
                <path d="M0.081,-0C0.078,-0 0.076,-0.001 0.075,-0.003C0.073,-0.005 0.072,-0.007 0.073,-0.01L0.157,-0.69C0.157,-0.693 0.158,-0.695 0.16,-0.697C0.162,-0.699 0.164,-0.7 0.167,-0.7L0.217,-0.7C0.224,-0.7 0.226,-0.697 0.225,-0.69L0.184,-0.351C0.183,-0.35 0.184,-0.349 0.185,-0.348C0.186,-0.347 0.187,-0.348 0.188,-0.349L0.537,-0.695C0.54,-0.698 0.545,-0.7 0.55,-0.7L0.606,-0.7C0.611,-0.7 0.613,-0.698 0.613,-0.695C0.613,-0.693 0.612,-0.691 0.609,-0.688L0.338,-0.411C0.336,-0.41 0.336,-0.408 0.337,-0.405L0.547,-0.012C0.548,-0.011 0.548,-0.01 0.548,-0.008C0.548,-0.006 0.547,-0.004 0.545,-0.003C0.543,-0.001 0.541,-0 0.538,-0L0.482,-0C0.476,-0 0.472,-0.002 0.471,-0.006L0.284,-0.354C0.283,-0.357 0.281,-0.357 0.278,-0.355L0.174,-0.254C0.172,-0.252 0.171,-0.25 0.171,-0.249L0.142,-0.01C0.141,-0.003 0.137,-0 0.131,-0L0.081,-0Z" style="fill:rgb(168,168,168);fill-rule:nonzero;"/>
            </g>
            <g transform="matrix(20,0,0,20,828.15,580)">
                <path d="M0.476,-0.338C0.476,-0.313 0.473,-0.279 0.467,-0.236C0.467,-0.233 0.466,-0.231 0.464,-0.229C0.462,-0.227 0.459,-0.226 0.456,-0.226L0.143,-0.226C0.14,-0.226 0.139,-0.225 0.139,-0.222C0.136,-0.193 0.135,-0.174 0.135,-0.166C0.135,-0.132 0.146,-0.105 0.168,-0.085C0.189,-0.064 0.22,-0.054 0.259,-0.054C0.287,-0.054 0.312,-0.06 0.334,-0.073C0.355,-0.086 0.373,-0.104 0.388,-0.127C0.393,-0.133 0.398,-0.134 0.402,-0.131L0.437,-0.108C0.442,-0.105 0.443,-0.1 0.439,-0.094C0.419,-0.062 0.392,-0.037 0.358,-0.019C0.323,-0 0.285,0.009 0.242,0.009C0.196,0.008 0.159,-0.003 0.131,-0.025C0.103,-0.047 0.084,-0.078 0.075,-0.117C0.071,-0.134 0.069,-0.154 0.069,-0.175C0.069,-0.198 0.071,-0.225 0.075,-0.255C0.078,-0.284 0.082,-0.307 0.085,-0.324C0.088,-0.341 0.093,-0.357 0.098,-0.371C0.114,-0.414 0.14,-0.449 0.177,-0.475C0.214,-0.501 0.256,-0.514 0.303,-0.514C0.362,-0.514 0.405,-0.499 0.433,-0.468C0.461,-0.437 0.475,-0.394 0.476,-0.338ZM0.295,-0.452C0.264,-0.452 0.237,-0.444 0.214,-0.427C0.191,-0.409 0.174,-0.387 0.163,-0.358C0.158,-0.345 0.153,-0.322 0.147,-0.29C0.147,-0.287 0.148,-0.286 0.151,-0.286L0.402,-0.286C0.405,-0.286 0.406,-0.287 0.406,-0.29C0.407,-0.317 0.408,-0.334 0.408,-0.341C0.408,-0.374 0.398,-0.401 0.378,-0.422C0.358,-0.442 0.33,-0.452 0.295,-0.452Z" style="fill:rgb(168,168,168);fill-rule:nonzero;"/>
            </g>
            <g transform="matrix(20,0,0,20,838.23,580)">
                <path d="M0.011,0.2C0.006,0.2 0.005,0.197 0.006,0.19L0.011,0.15C0.011,0.147 0.012,0.145 0.014,0.143C0.016,0.141 0.019,0.14 0.022,0.14L0.025,0.14C0.05,0.139 0.071,0.136 0.086,0.129C0.1,0.122 0.114,0.109 0.126,0.09C0.138,0.071 0.152,0.042 0.169,0.003C0.17,0.002 0.17,0.001 0.171,-0.001C0.171,-0.002 0.171,-0.002 0.17,-0.003L0.067,-0.495L0.067,-0.497C0.067,-0.503 0.07,-0.506 0.076,-0.506L0.127,-0.506C0.132,-0.506 0.136,-0.503 0.138,-0.498L0.214,-0.094C0.215,-0.093 0.216,-0.092 0.217,-0.092C0.218,-0.092 0.219,-0.093 0.22,-0.094L0.394,-0.498C0.395,-0.501 0.396,-0.503 0.399,-0.504C0.402,-0.505 0.404,-0.506 0.406,-0.506L0.457,-0.506C0.464,-0.506 0.466,-0.502 0.463,-0.495L0.218,0.044C0.197,0.089 0.179,0.122 0.163,0.143C0.146,0.164 0.127,0.179 0.106,0.188C0.085,0.196 0.055,0.2 0.018,0.2L0.011,0.2Z" style="fill:rgb(168,168,168);fill-rule:nonzero;"/>
            </g>
        </g>
        <g transform="matrix(1,0,0,0.771084,0,85.3855)">
            <g transform="matrix(1,-0,-0,1.29688,356,253.297)">
                <path d="M801.25,83.301L794.5,92.301L787.75,83.301L801.25,83.301Z" style="fill:rgb(168,168,168);"/>
                <path d="M116.5,92.301L116.5,28.301L794.5,28.301L794.5,85.101" style="fill:none;stroke:rgb(168,168,168);stroke-width:2px;stroke-dasharray:6,4,0,0,0,0;"/>
            </g>
        </g>
    </g>
</svg>
