<?xml version="1.0" encoding="UTF-8" standalone="no"?>
<!DOCTYPE svg PUBLIC "-//W3C//DTD SVG 1.1//EN" "http://www.w3.org/Graphics/SVG/1.1/DTD/svg11.dtd">
<svg width="911px" height="193px" version="1.1" xmlns="http://www.w3.org/2000/svg" xmlns:xlink="http://www.w3.org/1999/xlink" xml:space="preserve" xmlns:serif="http://www.serif.com/" style="fill-rule:evenodd;clip-rule:evenodd;stroke-linecap:round;stroke-linejoin:round;stroke-miterlimit:1.5;">
    <g transform="matrix(1,0,0,1,-356,-280.699)">
        <rect x="356" y="373" width="233" height="74" style="fill:rgb(110,229,165);"/>
        <g transform="matrix(1,0,0,1,678,0)">
            <rect x="356" y="373" width="233" height="74" style="fill:rgb(199,110,229);"/>
        </g>
        <g transform="matrix(1,0,0,1,728.681,-6.01268)">
            <g transform="matrix(39.0893,0,0,39.0893,374.345,426)">
                <path d="M0.527,-0.7C0.534,-0.7 0.537,-0.697 0.537,-0.69L0.537,-0.626C0.537,-0.619 0.534,-0.616 0.527,-0.616L0.335,-0.616C0.332,-0.616 0.331,-0.615 0.331,-0.612L0.331,-0.01C0.331,-0.003 0.328,-0 0.321,-0L0.245,-0C0.238,-0 0.235,-0.003 0.235,-0.01L0.235,-0.612C0.235,-0.615 0.234,-0.616 0.231,-0.616L0.048,-0.616C0.041,-0.616 0.038,-0.619 0.038,-0.626L0.038,-0.69C0.038,-0.697 0.041,-0.7 0.048,-0.7L0.527,-0.7Z" style="fill-rule:nonzero;"/>
            </g>
            <g transform="matrix(39.0893,0,0,39.0893,394.672,426)">
                <path d="M0.293,-0.514C0.314,-0.514 0.334,-0.51 0.351,-0.501C0.356,-0.499 0.357,-0.495 0.356,-0.489L0.34,-0.414C0.339,-0.408 0.335,-0.406 0.328,-0.408C0.317,-0.413 0.303,-0.415 0.288,-0.415L0.274,-0.414C0.243,-0.413 0.217,-0.402 0.197,-0.382C0.176,-0.361 0.166,-0.335 0.166,-0.302L0.166,-0.01C0.166,-0.003 0.163,-0 0.156,-0L0.08,-0C0.073,-0 0.07,-0.003 0.07,-0.01L0.07,-0.499C0.07,-0.506 0.073,-0.509 0.08,-0.509L0.156,-0.509C0.163,-0.509 0.166,-0.506 0.166,-0.499L0.166,-0.446C0.166,-0.444 0.167,-0.443 0.168,-0.443C0.169,-0.442 0.169,-0.443 0.17,-0.444C0.2,-0.491 0.241,-0.514 0.293,-0.514Z" style="fill-rule:nonzero;"/>
            </g>
            <g transform="matrix(39.0893,0,0,39.0893,409.017,426)">
                <path d="M0.256,-0.517C0.297,-0.517 0.332,-0.51 0.363,-0.496C0.393,-0.481 0.416,-0.461 0.433,-0.436C0.449,-0.41 0.457,-0.381 0.457,-0.348L0.457,-0.01C0.457,-0.003 0.454,-0 0.447,-0L0.371,-0C0.364,-0 0.361,-0.003 0.361,-0.01L0.361,-0.046C0.361,-0.049 0.359,-0.05 0.356,-0.048C0.339,-0.03 0.318,-0.016 0.293,-0.007C0.268,0.003 0.24,0.008 0.209,0.008C0.16,0.008 0.119,-0.005 0.087,-0.03C0.054,-0.055 0.038,-0.092 0.038,-0.143C0.038,-0.195 0.056,-0.236 0.093,-0.266C0.129,-0.295 0.18,-0.31 0.245,-0.31L0.357,-0.31C0.36,-0.31 0.361,-0.311 0.361,-0.314L0.361,-0.341C0.361,-0.37 0.353,-0.393 0.336,-0.41C0.319,-0.426 0.293,-0.434 0.258,-0.434C0.23,-0.434 0.207,-0.428 0.19,-0.418C0.172,-0.407 0.161,-0.392 0.157,-0.373C0.155,-0.366 0.151,-0.363 0.145,-0.364L0.064,-0.375C0.057,-0.376 0.054,-0.379 0.055,-0.383C0.06,-0.422 0.081,-0.455 0.118,-0.48C0.155,-0.505 0.201,-0.517 0.256,-0.517ZM0.23,-0.073C0.265,-0.073 0.296,-0.082 0.322,-0.101C0.348,-0.12 0.361,-0.143 0.361,-0.172L0.361,-0.231C0.361,-0.234 0.36,-0.235 0.357,-0.235L0.263,-0.235C0.224,-0.235 0.192,-0.227 0.169,-0.212C0.146,-0.197 0.134,-0.175 0.134,-0.148C0.134,-0.123 0.143,-0.105 0.161,-0.092C0.178,-0.079 0.201,-0.073 0.23,-0.073Z" style="fill-rule:nonzero;"/>
            </g>
            <g transform="matrix(39.0893,0,0,39.0893,429.227,426)">
                <path d="M0.274,0.008C0.223,0.008 0.18,-0.005 0.144,-0.031C0.108,-0.056 0.083,-0.091 0.07,-0.135C0.06,-0.166 0.055,-0.206 0.055,-0.256C0.055,-0.302 0.06,-0.342 0.07,-0.377C0.083,-0.42 0.108,-0.454 0.145,-0.479C0.181,-0.504 0.224,-0.517 0.274,-0.517C0.324,-0.517 0.368,-0.504 0.405,-0.479C0.442,-0.454 0.467,-0.422 0.478,-0.383C0.482,-0.372 0.485,-0.361 0.486,-0.35C0.486,-0.345 0.483,-0.341 0.477,-0.34L0.402,-0.329L0.4,-0.329C0.395,-0.329 0.392,-0.332 0.39,-0.338L0.387,-0.354C0.382,-0.377 0.369,-0.396 0.348,-0.411C0.327,-0.426 0.302,-0.434 0.273,-0.434C0.244,-0.434 0.22,-0.426 0.2,-0.411C0.18,-0.396 0.167,-0.375 0.161,-0.35C0.155,-0.326 0.152,-0.294 0.152,-0.255C0.152,-0.216 0.155,-0.185 0.161,-0.161C0.168,-0.134 0.181,-0.113 0.201,-0.098C0.22,-0.083 0.244,-0.075 0.273,-0.075C0.302,-0.075 0.328,-0.083 0.349,-0.098C0.37,-0.113 0.383,-0.133 0.388,-0.158C0.389,-0.159 0.389,-0.16 0.389,-0.161C0.388,-0.162 0.388,-0.162 0.389,-0.163L0.389,-0.167C0.391,-0.172 0.395,-0.174 0.4,-0.173L0.475,-0.161C0.48,-0.16 0.483,-0.157 0.483,-0.153L0.483,-0.149C0.483,-0.143 0.481,-0.136 0.478,-0.127C0.467,-0.086 0.442,-0.054 0.405,-0.029C0.368,-0.004 0.324,0.008 0.274,0.008Z" style="fill-rule:nonzero;"/>
            </g>
            <g transform="matrix(39.0893,0,0,39.0893,449.787,426)">
                <path d="M0.08,-0C0.073,-0 0.07,-0.003 0.07,-0.01L0.07,-0.69C0.07,-0.697 0.073,-0.7 0.08,-0.7L0.156,-0.7C0.163,-0.7 0.166,-0.697 0.166,-0.69L0.166,-0.305C0.166,-0.304 0.167,-0.303 0.168,-0.302C0.169,-0.301 0.17,-0.302 0.171,-0.303L0.356,-0.504C0.359,-0.507 0.363,-0.509 0.368,-0.509L0.457,-0.509C0.461,-0.509 0.464,-0.508 0.465,-0.506C0.466,-0.503 0.465,-0.5 0.462,-0.497L0.333,-0.348C0.332,-0.345 0.331,-0.343 0.332,-0.342L0.485,-0.012L0.486,-0.008C0.486,-0.003 0.483,-0 0.477,-0L0.397,-0C0.392,-0 0.388,-0.003 0.386,-0.008L0.267,-0.28C0.266,-0.283 0.264,-0.284 0.262,-0.281L0.168,-0.177C0.167,-0.174 0.166,-0.173 0.166,-0.172L0.166,-0.01C0.166,-0.003 0.163,-0 0.156,-0L0.08,-0Z" style="fill-rule:nonzero;"/>
            </g>
        </g>
        <g transform="matrix(1,0,0,1,49.9499,-3.56614)">
            <g transform="matrix(39.0893,0,0,39.0893,373.387,426)">
                <path d="M0.507,-0C0.501,-0 0.497,-0.003 0.495,-0.008L0.459,-0.125C0.458,-0.127 0.457,-0.128 0.455,-0.128L0.174,-0.128C0.172,-0.128 0.171,-0.127 0.17,-0.125L0.134,-0.008C0.132,-0.003 0.128,-0 0.122,-0L0.041,-0C0.034,-0 0.031,-0.004 0.033,-0.011L0.252,-0.692C0.254,-0.697 0.258,-0.7 0.264,-0.7L0.364,-0.7C0.37,-0.7 0.374,-0.697 0.376,-0.692L0.597,-0.011L0.598,-0.007C0.598,-0.002 0.595,-0 0.589,-0L0.507,-0ZM0.195,-0.209C0.194,-0.208 0.195,-0.207 0.196,-0.206C0.197,-0.205 0.198,-0.204 0.199,-0.204L0.429,-0.204C0.43,-0.204 0.432,-0.205 0.433,-0.206C0.434,-0.207 0.434,-0.208 0.433,-0.209L0.317,-0.58C0.316,-0.581 0.315,-0.582 0.314,-0.582C0.313,-0.582 0.312,-0.581 0.311,-0.58L0.195,-0.209Z" style="fill-rule:nonzero;"/>
            </g>
            <g transform="matrix(39.0893,0,0,39.0893,398.014,426)">
                <path d="M0.293,-0.514C0.314,-0.514 0.334,-0.51 0.351,-0.501C0.356,-0.499 0.357,-0.495 0.356,-0.489L0.34,-0.414C0.339,-0.408 0.335,-0.406 0.328,-0.408C0.317,-0.413 0.303,-0.415 0.288,-0.415L0.274,-0.414C0.243,-0.413 0.217,-0.402 0.197,-0.382C0.176,-0.361 0.166,-0.335 0.166,-0.302L0.166,-0.01C0.166,-0.003 0.163,-0 0.156,-0L0.08,-0C0.073,-0 0.07,-0.003 0.07,-0.01L0.07,-0.499C0.07,-0.506 0.073,-0.509 0.08,-0.509L0.156,-0.509C0.163,-0.509 0.166,-0.506 0.166,-0.499L0.166,-0.446C0.166,-0.444 0.167,-0.443 0.168,-0.443C0.169,-0.442 0.169,-0.443 0.17,-0.444C0.2,-0.491 0.241,-0.514 0.293,-0.514Z" style="fill-rule:nonzero;"/>
            </g>
            <g transform="matrix(39.0893,0,0,39.0893,412.946,426)">
                <path d="M0.321,-0.44C0.321,-0.433 0.318,-0.43 0.311,-0.43L0.203,-0.43C0.2,-0.43 0.199,-0.429 0.199,-0.426L0.199,-0.161C0.199,-0.133 0.205,-0.113 0.218,-0.101C0.231,-0.088 0.25,-0.082 0.277,-0.082L0.306,-0.082C0.313,-0.082 0.316,-0.079 0.316,-0.072L0.316,-0.01C0.316,-0.003 0.313,-0 0.306,-0C0.285,0.001 0.269,0.002 0.26,0.002C0.209,0.002 0.171,-0.007 0.146,-0.026C0.12,-0.044 0.107,-0.078 0.107,-0.127L0.107,-0.426C0.107,-0.429 0.106,-0.43 0.103,-0.43L0.042,-0.43C0.035,-0.43 0.032,-0.433 0.032,-0.44L0.032,-0.499C0.032,-0.506 0.035,-0.509 0.042,-0.509L0.103,-0.509C0.106,-0.509 0.107,-0.51 0.107,-0.513L0.107,-0.631C0.107,-0.638 0.11,-0.641 0.117,-0.641L0.189,-0.641C0.196,-0.641 0.199,-0.638 0.199,-0.631L0.199,-0.513C0.199,-0.51 0.2,-0.509 0.203,-0.509L0.311,-0.509C0.318,-0.509 0.321,-0.506 0.321,-0.499L0.321,-0.44Z" style="fill-rule:nonzero;"/>
            </g>
            <g transform="matrix(39.0893,0,0,39.0893,427.37,426)">
                <path d="M0.128,-0.589C0.109,-0.589 0.094,-0.595 0.082,-0.607C0.07,-0.619 0.064,-0.634 0.064,-0.653C0.064,-0.672 0.07,-0.687 0.082,-0.699C0.094,-0.711 0.109,-0.717 0.128,-0.717C0.147,-0.717 0.162,-0.711 0.174,-0.699C0.186,-0.687 0.192,-0.672 0.192,-0.653C0.192,-0.634 0.186,-0.619 0.174,-0.607C0.162,-0.595 0.147,-0.589 0.128,-0.589ZM0.088,-0.001C0.081,-0.001 0.078,-0.004 0.078,-0.011L0.078,-0.499C0.078,-0.506 0.081,-0.509 0.088,-0.509L0.164,-0.509C0.171,-0.509 0.174,-0.506 0.174,-0.499L0.174,-0.011C0.174,-0.004 0.171,-0.001 0.164,-0.001L0.088,-0.001Z" style="fill-rule:nonzero;"/>
            </g>
            <g transform="matrix(39.0893,0,0,39.0893,437.338,426)">
                <path d="M0.249,0.006C0.209,0.006 0.174,0 0.144,-0.012C0.113,-0.024 0.09,-0.041 0.073,-0.062C0.056,-0.083 0.048,-0.106 0.048,-0.131L0.048,-0.142C0.048,-0.149 0.051,-0.152 0.058,-0.152L0.13,-0.152C0.137,-0.152 0.14,-0.149 0.14,-0.142L0.14,-0.137C0.14,-0.118 0.15,-0.102 0.171,-0.088C0.191,-0.074 0.217,-0.067 0.248,-0.067C0.278,-0.067 0.302,-0.074 0.321,-0.087C0.34,-0.099 0.349,-0.116 0.349,-0.136C0.349,-0.155 0.34,-0.17 0.323,-0.18C0.306,-0.189 0.278,-0.199 0.239,-0.21C0.201,-0.221 0.169,-0.232 0.144,-0.243C0.118,-0.254 0.096,-0.269 0.079,-0.29C0.061,-0.31 0.052,-0.336 0.052,-0.368C0.052,-0.413 0.07,-0.448 0.105,-0.475C0.139,-0.501 0.186,-0.514 0.244,-0.514C0.283,-0.514 0.317,-0.508 0.347,-0.496C0.376,-0.483 0.399,-0.466 0.415,-0.444C0.431,-0.422 0.439,-0.397 0.439,-0.37L0.439,-0.367C0.439,-0.36 0.436,-0.357 0.429,-0.357L0.359,-0.357C0.352,-0.357 0.349,-0.36 0.349,-0.367L0.349,-0.37C0.349,-0.389 0.339,-0.405 0.321,-0.419C0.302,-0.432 0.276,-0.438 0.243,-0.438C0.214,-0.438 0.19,-0.432 0.172,-0.421C0.153,-0.41 0.144,-0.394 0.144,-0.375C0.144,-0.356 0.153,-0.341 0.171,-0.331C0.188,-0.321 0.217,-0.31 0.256,-0.299C0.295,-0.288 0.327,-0.278 0.353,-0.268C0.378,-0.257 0.4,-0.242 0.418,-0.222C0.436,-0.201 0.445,-0.175 0.445,-0.142C0.445,-0.097 0.427,-0.061 0.392,-0.034C0.356,-0.007 0.308,0.006 0.249,0.006Z" style="fill-rule:nonzero;"/>
            </g>
            <g transform="matrix(39.0893,0,0,39.0893,456.335,426)">
                <path d="M0.321,-0.44C0.321,-0.433 0.318,-0.43 0.311,-0.43L0.203,-0.43C0.2,-0.43 0.199,-0.429 0.199,-0.426L0.199,-0.161C0.199,-0.133 0.205,-0.113 0.218,-0.101C0.231,-0.088 0.25,-0.082 0.277,-0.082L0.306,-0.082C0.313,-0.082 0.316,-0.079 0.316,-0.072L0.316,-0.01C0.316,-0.003 0.313,-0 0.306,-0C0.285,0.001 0.269,0.002 0.26,0.002C0.209,0.002 0.171,-0.007 0.146,-0.026C0.12,-0.044 0.107,-0.078 0.107,-0.127L0.107,-0.426C0.107,-0.429 0.106,-0.43 0.103,-0.43L0.042,-0.43C0.035,-0.43 0.032,-0.433 0.032,-0.44L0.032,-0.499C0.032,-0.506 0.035,-0.509 0.042,-0.509L0.103,-0.509C0.106,-0.509 0.107,-0.51 0.107,-0.513L0.107,-0.631C0.107,-0.638 0.11,-0.641 0.117,-0.641L0.189,-0.641C0.196,-0.641 0.199,-0.638 0.199,-0.631L0.199,-0.513C0.199,-0.51 0.2,-0.509 0.203,-0.509L0.311,-0.509C0.318,-0.509 0.321,-0.506 0.321,-0.499L0.321,-0.44Z" style="fill-rule:nonzero;"/>
            </g>
        </g>
        <g transform="matrix(1,0,0,1,-73.5,-301.5)">
            <path d="M885,648L999,711.5L885,775L771,711.5L885,648Z" style="fill:rgb(229,183,110);"/>
        </g>
        <g transform="matrix(1,0,0,1,388.95,-6.01268)">
            <g transform="matrix(31,0,0,31,360.352,426)">
                <path d="M0.473,-0.38C0.483,-0.348 0.488,-0.306 0.488,-0.253C0.488,-0.2 0.484,-0.158 0.475,-0.129C0.463,-0.086 0.441,-0.053 0.41,-0.029C0.378,-0.004 0.338,0.008 0.29,0.008C0.264,0.008 0.24,0.003 0.218,-0.008C0.196,-0.018 0.178,-0.033 0.163,-0.052C0.162,-0.053 0.161,-0.054 0.16,-0.054C0.159,-0.053 0.158,-0.052 0.158,-0.051L0.158,0.184C0.158,0.191 0.155,0.194 0.148,0.194L0.097,0.194C0.09,0.194 0.087,0.191 0.087,0.184L0.087,-0.496C0.087,-0.503 0.09,-0.506 0.097,-0.506L0.148,-0.506C0.155,-0.506 0.158,-0.503 0.158,-0.496L0.158,-0.454C0.158,-0.453 0.159,-0.452 0.16,-0.452C0.161,-0.451 0.162,-0.452 0.163,-0.453C0.178,-0.472 0.196,-0.487 0.218,-0.498C0.239,-0.509 0.263,-0.514 0.29,-0.514C0.337,-0.514 0.376,-0.502 0.408,-0.478C0.439,-0.454 0.461,-0.421 0.473,-0.38ZM0.394,-0.127C0.401,-0.142 0.407,-0.158 0.411,-0.177C0.414,-0.195 0.416,-0.22 0.416,-0.253C0.416,-0.284 0.415,-0.309 0.412,-0.327C0.409,-0.344 0.405,-0.36 0.398,-0.374C0.39,-0.398 0.376,-0.417 0.356,-0.431C0.335,-0.445 0.311,-0.452 0.283,-0.452C0.256,-0.452 0.234,-0.445 0.216,-0.431C0.198,-0.417 0.185,-0.398 0.176,-0.375C0.17,-0.362 0.166,-0.346 0.163,-0.328C0.16,-0.31 0.159,-0.285 0.159,-0.253C0.159,-0.221 0.16,-0.196 0.163,-0.178C0.166,-0.159 0.17,-0.143 0.177,-0.129C0.185,-0.106 0.198,-0.088 0.217,-0.075C0.235,-0.061 0.257,-0.054 0.282,-0.054C0.309,-0.054 0.332,-0.061 0.352,-0.074C0.371,-0.087 0.385,-0.105 0.394,-0.127Z" style="fill-rule:nonzero;"/>
            </g>
            <g transform="matrix(31,0,0,31,377.247,426)">
                <path d="M0.468,-0.338C0.471,-0.319 0.472,-0.296 0.472,-0.268L0.472,-0.236C0.472,-0.229 0.469,-0.226 0.462,-0.226L0.139,-0.226C0.136,-0.226 0.135,-0.225 0.135,-0.222C0.136,-0.185 0.138,-0.162 0.141,-0.151C0.148,-0.121 0.164,-0.097 0.188,-0.08C0.212,-0.063 0.243,-0.054 0.28,-0.054C0.308,-0.054 0.333,-0.06 0.354,-0.073C0.375,-0.086 0.392,-0.104 0.404,-0.127C0.408,-0.133 0.413,-0.134 0.418,-0.131L0.457,-0.108C0.462,-0.105 0.464,-0.1 0.461,-0.094C0.444,-0.062 0.419,-0.037 0.386,-0.019C0.353,-0 0.314,0.009 0.271,0.009C0.224,0.008 0.184,-0.003 0.152,-0.025C0.12,-0.047 0.097,-0.078 0.083,-0.117C0.071,-0.149 0.065,-0.195 0.065,-0.255C0.065,-0.283 0.066,-0.306 0.067,-0.324C0.068,-0.341 0.07,-0.357 0.074,-0.371C0.085,-0.414 0.108,-0.449 0.143,-0.475C0.177,-0.501 0.218,-0.514 0.267,-0.514C0.328,-0.514 0.374,-0.499 0.407,-0.468C0.44,-0.437 0.46,-0.394 0.468,-0.338ZM0.267,-0.452C0.234,-0.452 0.207,-0.444 0.186,-0.427C0.164,-0.409 0.15,-0.387 0.143,-0.358C0.139,-0.344 0.136,-0.321 0.135,-0.29C0.135,-0.287 0.136,-0.286 0.139,-0.286L0.398,-0.286C0.401,-0.286 0.402,-0.287 0.402,-0.29C0.401,-0.32 0.399,-0.341 0.396,-0.354C0.389,-0.384 0.374,-0.408 0.352,-0.426C0.329,-0.443 0.301,-0.452 0.267,-0.452Z" style="fill-rule:nonzero;"/>
            </g>
            <g transform="matrix(31,0,0,31,393.77,426)">
                <path d="M0.284,-0.511C0.306,-0.511 0.325,-0.507 0.341,-0.498C0.346,-0.495 0.348,-0.491 0.347,-0.485L0.336,-0.436C0.334,-0.429 0.33,-0.427 0.323,-0.43C0.312,-0.435 0.299,-0.437 0.284,-0.437L0.271,-0.436C0.236,-0.435 0.208,-0.422 0.185,-0.398C0.162,-0.373 0.151,-0.342 0.151,-0.305L0.151,-0.01C0.151,-0.003 0.148,-0 0.141,-0L0.09,-0C0.083,-0 0.08,-0.003 0.08,-0.01L0.08,-0.496C0.08,-0.503 0.083,-0.506 0.09,-0.506L0.141,-0.506C0.148,-0.506 0.151,-0.503 0.151,-0.496L0.151,-0.435C0.151,-0.433 0.152,-0.432 0.153,-0.432C0.154,-0.431 0.154,-0.432 0.155,-0.433C0.169,-0.458 0.187,-0.477 0.209,-0.491C0.23,-0.504 0.255,-0.511 0.284,-0.511Z" style="fill-rule:nonzero;"/>
            </g>
            <g transform="matrix(31,0,0,31,405.488,426)">
                <path d="M0.28,-0.638C0.243,-0.638 0.218,-0.63 0.205,-0.614C0.192,-0.597 0.185,-0.569 0.185,-0.53L0.185,-0.51C0.185,-0.507 0.186,-0.506 0.189,-0.506L0.301,-0.506C0.308,-0.506 0.311,-0.503 0.311,-0.496L0.311,-0.451C0.311,-0.444 0.308,-0.441 0.301,-0.441L0.189,-0.441C0.186,-0.441 0.185,-0.44 0.185,-0.437L0.185,-0.01C0.185,-0.003 0.182,-0 0.175,-0L0.125,-0C0.118,-0 0.115,-0.003 0.115,-0.01L0.115,-0.437C0.115,-0.44 0.114,-0.441 0.111,-0.441L0.044,-0.441C0.037,-0.441 0.034,-0.444 0.034,-0.451L0.034,-0.496C0.034,-0.503 0.037,-0.506 0.044,-0.506L0.111,-0.506C0.114,-0.506 0.115,-0.507 0.115,-0.51L0.115,-0.534C0.115,-0.575 0.12,-0.608 0.129,-0.632C0.138,-0.655 0.155,-0.673 0.178,-0.684C0.2,-0.695 0.233,-0.7 0.274,-0.7L0.303,-0.7C0.31,-0.7 0.313,-0.697 0.313,-0.69L0.313,-0.648C0.313,-0.641 0.31,-0.638 0.303,-0.638L0.28,-0.638Z" style="fill-rule:nonzero;"/>
            </g>
            <g transform="matrix(31,0,0,31,415.067,426)">
                <path d="M0.273,0.008C0.225,0.008 0.184,-0.004 0.149,-0.029C0.114,-0.054 0.09,-0.088 0.077,-0.131C0.068,-0.162 0.063,-0.203 0.063,-0.254C0.063,-0.305 0.068,-0.346 0.077,-0.376C0.09,-0.419 0.113,-0.452 0.148,-0.477C0.183,-0.502 0.225,-0.514 0.274,-0.514C0.321,-0.514 0.362,-0.502 0.397,-0.477C0.431,-0.452 0.454,-0.419 0.467,-0.377C0.476,-0.348 0.481,-0.307 0.481,-0.254C0.481,-0.2 0.476,-0.159 0.467,-0.131C0.454,-0.088 0.431,-0.054 0.397,-0.029C0.362,-0.004 0.321,0.008 0.273,0.008ZM0.273,-0.054C0.305,-0.054 0.332,-0.063 0.355,-0.081C0.378,-0.098 0.393,-0.122 0.401,-0.152C0.407,-0.176 0.41,-0.21 0.41,-0.253C0.41,-0.297 0.407,-0.331 0.402,-0.354C0.394,-0.384 0.379,-0.408 0.356,-0.426C0.333,-0.443 0.305,-0.452 0.272,-0.452C0.239,-0.452 0.212,-0.443 0.189,-0.426C0.166,-0.408 0.151,-0.384 0.143,-0.354C0.138,-0.331 0.135,-0.297 0.135,-0.253C0.135,-0.209 0.138,-0.175 0.143,-0.152C0.15,-0.122 0.166,-0.098 0.189,-0.081C0.212,-0.063 0.24,-0.054 0.273,-0.054Z" style="fill-rule:nonzero;"/>
            </g>
            <g transform="matrix(31,0,0,31,431.962,426)">
                <path d="M0.284,-0.511C0.306,-0.511 0.325,-0.507 0.341,-0.498C0.346,-0.495 0.348,-0.491 0.347,-0.485L0.336,-0.436C0.334,-0.429 0.33,-0.427 0.323,-0.43C0.312,-0.435 0.299,-0.437 0.284,-0.437L0.271,-0.436C0.236,-0.435 0.208,-0.422 0.185,-0.398C0.162,-0.373 0.151,-0.342 0.151,-0.305L0.151,-0.01C0.151,-0.003 0.148,-0 0.141,-0L0.09,-0C0.083,-0 0.08,-0.003 0.08,-0.01L0.08,-0.496C0.08,-0.503 0.083,-0.506 0.09,-0.506L0.141,-0.506C0.148,-0.506 0.151,-0.503 0.151,-0.496L0.151,-0.435C0.151,-0.433 0.152,-0.432 0.153,-0.432C0.154,-0.431 0.154,-0.432 0.155,-0.433C0.169,-0.458 0.187,-0.477 0.209,-0.491C0.23,-0.504 0.255,-0.511 0.284,-0.511Z" style="fill-rule:nonzero;"/>
            </g>
            <g transform="matrix(31,0,0,31,443.246,426)">
                <path d="M0.592,-0.513C0.642,-0.513 0.682,-0.498 0.711,-0.468C0.74,-0.438 0.754,-0.397 0.754,-0.345L0.754,-0.01C0.754,-0.003 0.751,-0 0.744,-0L0.694,-0C0.687,-0 0.684,-0.003 0.684,-0.01L0.684,-0.331C0.684,-0.368 0.674,-0.397 0.653,-0.419C0.631,-0.44 0.604,-0.451 0.57,-0.451C0.535,-0.451 0.506,-0.44 0.485,-0.419C0.463,-0.398 0.452,-0.369 0.452,-0.333L0.452,-0.01C0.452,-0.003 0.449,-0 0.442,-0L0.391,-0C0.384,-0 0.381,-0.003 0.381,-0.01L0.381,-0.331C0.381,-0.368 0.371,-0.397 0.35,-0.419C0.329,-0.44 0.302,-0.451 0.267,-0.451C0.232,-0.451 0.204,-0.44 0.183,-0.419C0.162,-0.398 0.151,-0.369 0.151,-0.333L0.151,-0.01C0.151,-0.003 0.148,-0 0.141,-0L0.09,-0C0.083,-0 0.08,-0.003 0.08,-0.01L0.08,-0.496C0.08,-0.503 0.083,-0.506 0.09,-0.506L0.141,-0.506C0.148,-0.506 0.151,-0.503 0.151,-0.496L0.151,-0.456C0.151,-0.455 0.152,-0.454 0.153,-0.454C0.154,-0.453 0.155,-0.454 0.156,-0.455C0.171,-0.474 0.19,-0.489 0.213,-0.499C0.236,-0.508 0.261,-0.513 0.289,-0.513C0.324,-0.513 0.353,-0.506 0.378,-0.492C0.403,-0.478 0.421,-0.458 0.434,-0.431C0.435,-0.428 0.437,-0.428 0.439,-0.431C0.454,-0.458 0.474,-0.479 0.501,-0.493C0.528,-0.506 0.558,-0.513 0.592,-0.513Z" style="fill-rule:nonzero;"/>
            </g>
            <g transform="matrix(31,0,0,31,468.883,426)">
                <path d="M0.246,0.005C0.209,0.005 0.175,-0.001 0.147,-0.013C0.118,-0.025 0.095,-0.041 0.08,-0.061C0.064,-0.081 0.056,-0.103 0.056,-0.128L0.056,-0.14C0.056,-0.147 0.059,-0.15 0.066,-0.15L0.114,-0.15C0.121,-0.15 0.124,-0.147 0.124,-0.14L0.124,-0.132C0.124,-0.11 0.135,-0.091 0.159,-0.075C0.182,-0.058 0.21,-0.05 0.245,-0.05C0.28,-0.05 0.308,-0.058 0.329,-0.074C0.35,-0.089 0.361,-0.109 0.361,-0.133C0.361,-0.15 0.356,-0.163 0.345,-0.174C0.334,-0.185 0.321,-0.193 0.306,-0.199C0.291,-0.205 0.267,-0.213 0.236,-0.222C0.199,-0.233 0.168,-0.243 0.144,-0.254C0.12,-0.265 0.1,-0.28 0.084,-0.299C0.067,-0.318 0.059,-0.342 0.059,-0.371C0.059,-0.414 0.076,-0.448 0.109,-0.473C0.142,-0.498 0.186,-0.511 0.241,-0.511C0.278,-0.511 0.31,-0.505 0.339,-0.493C0.367,-0.481 0.389,-0.464 0.404,-0.444C0.419,-0.423 0.427,-0.399 0.427,-0.373L0.427,-0.37C0.427,-0.363 0.424,-0.36 0.417,-0.36L0.37,-0.36C0.363,-0.36 0.36,-0.363 0.36,-0.37L0.36,-0.373C0.36,-0.396 0.349,-0.415 0.328,-0.43C0.306,-0.445 0.277,-0.453 0.24,-0.453C0.206,-0.453 0.179,-0.446 0.158,-0.433C0.137,-0.419 0.127,-0.4 0.127,-0.376C0.127,-0.353 0.137,-0.336 0.157,-0.324C0.177,-0.312 0.208,-0.3 0.25,-0.288C0.289,-0.277 0.32,-0.266 0.344,-0.256C0.368,-0.246 0.389,-0.232 0.406,-0.213C0.423,-0.194 0.432,-0.169 0.432,-0.138C0.432,-0.095 0.415,-0.06 0.381,-0.034C0.347,-0.008 0.302,0.005 0.246,0.005Z" style="fill-rule:nonzero;"/>
            </g>
        </g>
        <g transform="matrix(-1,0,0,1,1286.5,0)">
            <g transform="matrix(-1,0,0,1,930.5,280.699)">
                <path d="M242,136.051L233,129.301L242,122.551L242,136.051Z"/>
                <path d="M341.5,129.301L240.2,129.301" style="fill:none;stroke:black;stroke-width:3px;"/>
            </g>
        </g>
        <g transform="matrix(1,-0,-0,1,356,280.699)">
            <path d="M669,122.551L678,129.301L669,136.051L669,122.551Z"/>
            <path d="M569.383,129.301L670.8,129.301" style="fill:none;stroke:black;stroke-width:3px;"/>
        </g>
        <g transform="matrix(1,0,0,1,181.942,-179.101)">
            <g transform="matrix(20,0,0,20,784.17,580)">
                <path d="M0.15,-0.697C0.153,-0.699 0.158,-0.7 0.165,-0.7L0.286,-0.7C0.289,-0.7 0.292,-0.699 0.295,-0.697C0.297,-0.694 0.298,-0.691 0.298,-0.688L0.298,-0.012C0.298,-0.009 0.297,-0.006 0.295,-0.004C0.292,-0.001 0.289,-0 0.286,-0L0.169,-0C0.166,-0 0.163,-0.001 0.161,-0.004C0.158,-0.006 0.157,-0.009 0.157,-0.012L0.157,-0.56C0.157,-0.561 0.156,-0.563 0.155,-0.564C0.154,-0.565 0.152,-0.566 0.151,-0.565L0.052,-0.538L0.048,-0.537C0.042,-0.537 0.039,-0.541 0.039,-0.548L0.036,-0.634C0.036,-0.641 0.039,-0.645 0.045,-0.648L0.15,-0.697Z" style="fill-rule:nonzero;"/>
            </g>
            <g transform="matrix(20,0,0,20,791.25,580)">
                <path d="M0.179,-0.332C0.156,-0.332 0.137,-0.339 0.123,-0.355C0.108,-0.37 0.1,-0.388 0.1,-0.411C0.1,-0.434 0.107,-0.453 0.122,-0.468C0.137,-0.483 0.156,-0.49 0.179,-0.49C0.202,-0.49 0.221,-0.483 0.236,-0.468C0.251,-0.453 0.258,-0.434 0.258,-0.411C0.258,-0.388 0.251,-0.37 0.236,-0.355C0.221,-0.339 0.202,-0.332 0.179,-0.332ZM0.179,-0.005C0.156,-0.005 0.137,-0.012 0.123,-0.028C0.108,-0.043 0.1,-0.061 0.1,-0.084C0.1,-0.107 0.107,-0.126 0.122,-0.141C0.137,-0.156 0.156,-0.163 0.179,-0.163C0.202,-0.163 0.221,-0.156 0.236,-0.141C0.251,-0.126 0.258,-0.107 0.258,-0.084C0.258,-0.061 0.251,-0.043 0.236,-0.028C0.221,-0.012 0.202,-0.005 0.179,-0.005Z" style="fill-rule:nonzero;"/>
            </g>
            <g transform="matrix(20,0,0,20,798.53,580)">
                <path d="M0.463,-0.688C0.463,-0.691 0.464,-0.694 0.467,-0.697C0.469,-0.699 0.472,-0.7 0.475,-0.7L0.592,-0.7C0.595,-0.7 0.598,-0.699 0.601,-0.697C0.603,-0.694 0.604,-0.691 0.604,-0.688L0.604,-0.012C0.604,-0.009 0.603,-0.006 0.601,-0.004C0.598,-0.001 0.595,-0 0.592,-0L0.479,-0C0.472,-0 0.468,-0.003 0.465,-0.008L0.206,-0.436C0.205,-0.438 0.203,-0.439 0.202,-0.439C0.201,-0.438 0.2,-0.437 0.2,-0.434L0.202,-0.012C0.202,-0.009 0.201,-0.006 0.199,-0.004C0.196,-0.001 0.193,-0 0.19,-0L0.073,-0C0.07,-0 0.067,-0.001 0.065,-0.004C0.062,-0.006 0.061,-0.009 0.061,-0.012L0.061,-0.688C0.061,-0.691 0.062,-0.694 0.065,-0.697C0.067,-0.699 0.07,-0.7 0.073,-0.7L0.186,-0.7C0.193,-0.7 0.197,-0.697 0.2,-0.692L0.458,-0.266C0.459,-0.264 0.461,-0.263 0.462,-0.264C0.463,-0.264 0.464,-0.265 0.464,-0.268L0.463,-0.688Z" style="fill-rule:nonzero;"/>
            </g>
        </g>
        <g transform="matrix(1,0,0,1,-154.442,-179.101)">
            <g transform="matrix(20,0,0,20,787.28,580)">
                <path d="M0.15,-0.697C0.153,-0.699 0.158,-0.7 0.165,-0.7L0.286,-0.7C0.289,-0.7 0.292,-0.699 0.295,-0.697C0.297,-0.694 0.298,-0.691 0.298,-0.688L0.298,-0.012C0.298,-0.009 0.297,-0.006 0.295,-0.004C0.292,-0.001 0.289,-0 0.286,-0L0.169,-0C0.166,-0 0.163,-0.001 0.161,-0.004C0.158,-0.006 0.157,-0.009 0.157,-0.012L0.157,-0.56C0.157,-0.561 0.156,-0.563 0.155,-0.564C0.154,-0.565 0.152,-0.566 0.151,-0.565L0.052,-0.538L0.048,-0.537C0.042,-0.537 0.039,-0.541 0.039,-0.548L0.036,-0.634C0.036,-0.641 0.039,-0.645 0.045,-0.648L0.15,-0.697Z" style="fill-rule:nonzero;"/>
            </g>
            <g transform="matrix(20,0,0,20,794.36,580)">
                <path d="M0.179,-0.332C0.156,-0.332 0.137,-0.339 0.123,-0.355C0.108,-0.37 0.1,-0.388 0.1,-0.411C0.1,-0.434 0.107,-0.453 0.122,-0.468C0.137,-0.483 0.156,-0.49 0.179,-0.49C0.202,-0.49 0.221,-0.483 0.236,-0.468C0.251,-0.453 0.258,-0.434 0.258,-0.411C0.258,-0.388 0.251,-0.37 0.236,-0.355C0.221,-0.339 0.202,-0.332 0.179,-0.332ZM0.179,-0.005C0.156,-0.005 0.137,-0.012 0.123,-0.028C0.108,-0.043 0.1,-0.061 0.1,-0.084C0.1,-0.107 0.107,-0.126 0.122,-0.141C0.137,-0.156 0.156,-0.163 0.179,-0.163C0.202,-0.163 0.221,-0.156 0.236,-0.141C0.251,-0.126 0.258,-0.107 0.258,-0.084C0.258,-0.061 0.251,-0.043 0.236,-0.028C0.221,-0.012 0.202,-0.005 0.179,-0.005Z" style="fill-rule:nonzero;"/>
            </g>
            <g transform="matrix(20,0,0,20,801.64,580)">
                <path d="M0.15,-0.697C0.153,-0.699 0.158,-0.7 0.165,-0.7L0.286,-0.7C0.289,-0.7 0.292,-0.699 0.295,-0.697C0.297,-0.694 0.298,-0.691 0.298,-0.688L0.298,-0.012C0.298,-0.009 0.297,-0.006 0.295,-0.004C0.292,-0.001 0.289,-0 0.286,-0L0.169,-0C0.166,-0 0.163,-0.001 0.161,-0.004C0.158,-0.006 0.157,-0.009 0.157,-0.012L0.157,-0.56C0.157,-0.561 0.156,-0.563 0.155,-0.564C0.154,-0.565 0.152,-0.566 0.151,-0.565L0.052,-0.538L0.048,-0.537C0.042,-0.537 0.039,-0.541 0.039,-0.548L0.036,-0.634C0.036,-0.641 0.039,-0.645 0.045,-0.648L0.15,-0.697Z" style="fill-rule:nonzero;"/>
            </g>
        </g>
        <g transform="matrix(1,0,0,1,12.5388,-285.101)">
            <g transform="matrix(20,0,0,20,748.83,580)">
                <path d="M0.59,-0.648C0.589,-0.641 0.585,-0.638 0.579,-0.638L0.223,-0.638C0.221,-0.638 0.219,-0.637 0.218,-0.634L0.188,-0.387C0.188,-0.384 0.189,-0.383 0.192,-0.383L0.441,-0.383C0.448,-0.383 0.45,-0.38 0.449,-0.373L0.444,-0.331C0.443,-0.324 0.439,-0.321 0.433,-0.321L0.184,-0.321C0.181,-0.321 0.18,-0.32 0.18,-0.317L0.142,-0.01C0.141,-0.003 0.137,-0 0.131,-0L0.081,-0C0.078,-0 0.076,-0.001 0.075,-0.003C0.073,-0.005 0.072,-0.007 0.073,-0.01L0.157,-0.69C0.157,-0.693 0.158,-0.695 0.16,-0.697C0.162,-0.699 0.164,-0.7 0.167,-0.7L0.586,-0.7C0.589,-0.7 0.592,-0.699 0.594,-0.697C0.595,-0.695 0.596,-0.693 0.595,-0.69L0.59,-0.648Z" style="fill:rgb(168,168,168);fill-rule:nonzero;"/>
            </g>
            <g transform="matrix(20,0,0,20,759.05,580)">
                <path d="M0.244,0.008C0.197,0.008 0.159,-0.004 0.128,-0.029C0.097,-0.054 0.078,-0.088 0.071,-0.131C0.069,-0.145 0.068,-0.161 0.068,-0.179C0.068,-0.199 0.07,-0.224 0.073,-0.254C0.079,-0.305 0.088,-0.345 0.101,-0.376C0.118,-0.419 0.146,-0.452 0.183,-0.477C0.22,-0.502 0.262,-0.514 0.309,-0.514C0.355,-0.514 0.393,-0.502 0.424,-0.477C0.454,-0.452 0.473,-0.419 0.48,-0.377C0.483,-0.364 0.484,-0.349 0.484,-0.33C0.484,-0.315 0.482,-0.29 0.478,-0.254C0.471,-0.201 0.462,-0.16 0.45,-0.131C0.433,-0.088 0.406,-0.054 0.369,-0.029C0.332,-0.004 0.291,0.008 0.244,0.008ZM0.252,-0.054C0.283,-0.054 0.31,-0.063 0.335,-0.081C0.359,-0.098 0.377,-0.122 0.388,-0.152C0.397,-0.175 0.404,-0.208 0.409,-0.253C0.413,-0.284 0.415,-0.31 0.415,-0.331C0.415,-0.342 0.415,-0.349 0.414,-0.354C0.41,-0.384 0.398,-0.408 0.378,-0.426C0.357,-0.443 0.331,-0.452 0.3,-0.452C0.269,-0.452 0.241,-0.443 0.217,-0.426C0.193,-0.408 0.175,-0.384 0.163,-0.354C0.155,-0.332 0.148,-0.298 0.143,-0.253C0.139,-0.223 0.137,-0.197 0.137,-0.176C0.137,-0.165 0.137,-0.157 0.138,-0.152C0.141,-0.122 0.153,-0.098 0.174,-0.081C0.194,-0.063 0.22,-0.054 0.252,-0.054Z" style="fill:rgb(168,168,168);fill-rule:nonzero;"/>
            </g>
            <g transform="matrix(20,0,0,20,769.63,580)">
                <path d="M0.319,-0.511C0.34,-0.511 0.358,-0.507 0.373,-0.498C0.377,-0.495 0.378,-0.491 0.377,-0.485L0.36,-0.436C0.357,-0.429 0.352,-0.427 0.347,-0.43C0.336,-0.435 0.324,-0.437 0.31,-0.437L0.297,-0.436C0.263,-0.435 0.234,-0.422 0.209,-0.398C0.184,-0.373 0.17,-0.342 0.165,-0.305L0.128,-0.01C0.128,-0.007 0.127,-0.005 0.125,-0.003C0.123,-0.001 0.12,-0 0.117,-0L0.068,-0C0.062,-0 0.059,-0.003 0.059,-0.01L0.119,-0.496C0.12,-0.503 0.124,-0.506 0.13,-0.506L0.179,-0.506C0.182,-0.506 0.185,-0.505 0.187,-0.503C0.188,-0.501 0.189,-0.499 0.188,-0.496L0.18,-0.435C0.18,-0.433 0.181,-0.432 0.182,-0.432C0.183,-0.431 0.184,-0.432 0.185,-0.433C0.201,-0.458 0.22,-0.477 0.243,-0.491C0.266,-0.504 0.291,-0.511 0.319,-0.511Z" style="fill:rgb(168,168,168);fill-rule:nonzero;"/>
            </g>
            <g transform="matrix(20,0,0,20,776.59,580)">
                <path d="M0.476,-0.338C0.476,-0.313 0.473,-0.279 0.467,-0.236C0.467,-0.233 0.466,-0.231 0.464,-0.229C0.462,-0.227 0.459,-0.226 0.456,-0.226L0.143,-0.226C0.14,-0.226 0.139,-0.225 0.139,-0.222C0.136,-0.193 0.135,-0.174 0.135,-0.166C0.135,-0.132 0.146,-0.105 0.168,-0.085C0.189,-0.064 0.22,-0.054 0.259,-0.054C0.287,-0.054 0.312,-0.06 0.334,-0.073C0.355,-0.086 0.373,-0.104 0.388,-0.127C0.393,-0.133 0.398,-0.134 0.402,-0.131L0.437,-0.108C0.442,-0.105 0.443,-0.1 0.439,-0.094C0.419,-0.062 0.392,-0.037 0.358,-0.019C0.323,-0 0.285,0.009 0.242,0.009C0.196,0.008 0.159,-0.003 0.131,-0.025C0.103,-0.047 0.084,-0.078 0.075,-0.117C0.071,-0.134 0.069,-0.154 0.069,-0.175C0.069,-0.198 0.071,-0.225 0.075,-0.255C0.078,-0.284 0.082,-0.307 0.085,-0.324C0.088,-0.341 0.093,-0.357 0.098,-0.371C0.114,-0.414 0.14,-0.449 0.177,-0.475C0.214,-0.501 0.256,-0.514 0.303,-0.514C0.362,-0.514 0.405,-0.499 0.433,-0.468C0.461,-0.437 0.475,-0.394 0.476,-0.338ZM0.295,-0.452C0.264,-0.452 0.237,-0.444 0.214,-0.427C0.191,-0.409 0.174,-0.387 0.163,-0.358C0.158,-0.345 0.153,-0.322 0.147,-0.29C0.147,-0.287 0.148,-0.286 0.151,-0.286L0.402,-0.286C0.405,-0.286 0.406,-0.287 0.406,-0.29C0.407,-0.317 0.408,-0.334 0.408,-0.341C0.408,-0.374 0.398,-0.401 0.378,-0.422C0.358,-0.442 0.33,-0.452 0.295,-0.452Z" style="fill:rgb(168,168,168);fill-rule:nonzero;"/>
            </g>
            <g transform="matrix(20,0,0,20,786.93,580)">
                <path d="M0.178,-0.598C0.164,-0.598 0.153,-0.603 0.144,-0.612C0.135,-0.62 0.13,-0.632 0.13,-0.646C0.13,-0.664 0.136,-0.679 0.149,-0.692C0.161,-0.704 0.175,-0.71 0.192,-0.71C0.206,-0.71 0.218,-0.706 0.227,-0.697C0.236,-0.688 0.24,-0.677 0.24,-0.662C0.24,-0.644 0.234,-0.629 0.222,-0.617C0.21,-0.604 0.195,-0.598 0.178,-0.598ZM0.078,-0.001C0.072,-0.001 0.069,-0.004 0.069,-0.011L0.129,-0.497C0.13,-0.504 0.134,-0.507 0.14,-0.507L0.189,-0.507C0.192,-0.507 0.195,-0.506 0.197,-0.504C0.198,-0.502 0.199,-0.5 0.198,-0.497L0.138,-0.011C0.137,-0.004 0.133,-0.001 0.127,-0.001L0.078,-0.001Z" style="fill:rgb(168,168,168);fill-rule:nonzero;"/>
            </g>
            <g transform="matrix(20,0,0,20,791.89,580)">
                <path d="M0.422,-0.496C0.422,-0.499 0.423,-0.501 0.425,-0.503C0.427,-0.505 0.43,-0.506 0.433,-0.506L0.482,-0.506C0.488,-0.506 0.491,-0.503 0.491,-0.496L0.432,-0.017C0.423,0.058 0.395,0.112 0.349,0.147C0.303,0.182 0.244,0.199 0.171,0.199C0.156,0.199 0.144,0.199 0.137,0.198C0.13,0.197 0.127,0.194 0.128,0.187L0.136,0.141C0.137,0.134 0.141,0.131 0.147,0.132L0.174,0.133C0.233,0.133 0.278,0.121 0.308,0.097C0.338,0.072 0.356,0.034 0.363,-0.019L0.368,-0.056C0.368,-0.057 0.368,-0.058 0.367,-0.059C0.366,-0.059 0.364,-0.058 0.363,-0.057C0.329,-0.017 0.284,0.003 0.229,0.003C0.187,0.003 0.151,-0.009 0.121,-0.032C0.091,-0.055 0.073,-0.088 0.067,-0.131C0.066,-0.146 0.065,-0.158 0.065,-0.168C0.065,-0.193 0.067,-0.221 0.071,-0.253C0.078,-0.311 0.087,-0.354 0.099,-0.381C0.116,-0.421 0.141,-0.453 0.174,-0.478C0.207,-0.502 0.245,-0.514 0.288,-0.514C0.345,-0.514 0.387,-0.494 0.412,-0.455C0.413,-0.454 0.414,-0.453 0.415,-0.454C0.416,-0.455 0.417,-0.456 0.417,-0.457L0.422,-0.496ZM0.375,-0.153C0.378,-0.164 0.381,-0.175 0.383,-0.187C0.385,-0.199 0.388,-0.221 0.392,-0.254C0.397,-0.299 0.4,-0.327 0.4,-0.339C0.4,-0.346 0.4,-0.351 0.399,-0.355C0.398,-0.383 0.388,-0.406 0.369,-0.425C0.35,-0.443 0.326,-0.452 0.295,-0.452C0.264,-0.452 0.237,-0.443 0.214,-0.425C0.191,-0.407 0.173,-0.384 0.162,-0.355C0.153,-0.334 0.146,-0.301 0.14,-0.255C0.137,-0.23 0.135,-0.207 0.135,-0.184C0.135,-0.172 0.136,-0.162 0.137,-0.154C0.14,-0.126 0.152,-0.103 0.172,-0.085C0.191,-0.066 0.216,-0.057 0.247,-0.057C0.279,-0.057 0.306,-0.066 0.329,-0.084C0.351,-0.102 0.366,-0.125 0.375,-0.153Z" style="fill:rgb(168,168,168);fill-rule:nonzero;"/>
            </g>
            <g transform="matrix(20,0,0,20,802.27,580)">
                <path d="M0.325,-0.513C0.372,-0.513 0.408,-0.5 0.435,-0.474C0.462,-0.448 0.475,-0.413 0.475,-0.368C0.475,-0.363 0.474,-0.353 0.473,-0.34L0.433,-0.01C0.432,-0.003 0.428,-0 0.422,-0L0.372,-0C0.369,-0 0.367,-0.001 0.366,-0.003C0.364,-0.005 0.363,-0.007 0.364,-0.01L0.403,-0.326C0.404,-0.331 0.404,-0.337 0.404,-0.346C0.404,-0.378 0.395,-0.404 0.377,-0.423C0.358,-0.442 0.333,-0.451 0.302,-0.451C0.266,-0.451 0.236,-0.44 0.211,-0.417C0.186,-0.394 0.172,-0.365 0.167,-0.328L0.128,-0.01C0.128,-0.007 0.127,-0.005 0.125,-0.003C0.123,-0.001 0.12,-0 0.117,-0L0.068,-0C0.062,-0 0.059,-0.003 0.059,-0.01L0.119,-0.496C0.12,-0.503 0.124,-0.506 0.13,-0.506L0.179,-0.506C0.182,-0.506 0.185,-0.505 0.187,-0.503C0.188,-0.501 0.189,-0.499 0.188,-0.496L0.183,-0.453C0.182,-0.452 0.183,-0.451 0.184,-0.45C0.185,-0.449 0.186,-0.45 0.187,-0.451C0.203,-0.472 0.223,-0.487 0.247,-0.498C0.27,-0.508 0.296,-0.513 0.325,-0.513Z" style="fill:rgb(168,168,168);fill-rule:nonzero;"/>
            </g>
            <g transform="matrix(20,0,0,20,816.61,580)">
                <path d="M0.081,-0C0.078,-0 0.076,-0.001 0.075,-0.003C0.073,-0.005 0.072,-0.007 0.073,-0.01L0.157,-0.69C0.157,-0.693 0.158,-0.695 0.16,-0.697C0.162,-0.699 0.164,-0.7 0.167,-0.7L0.217,-0.7C0.224,-0.7 0.226,-0.697 0.225,-0.69L0.184,-0.351C0.183,-0.35 0.184,-0.349 0.185,-0.348C0.186,-0.347 0.187,-0.348 0.188,-0.349L0.537,-0.695C0.54,-0.698 0.545,-0.7 0.55,-0.7L0.606,-0.7C0.611,-0.7 0.613,-0.698 0.613,-0.695C0.613,-0.693 0.612,-0.691 0.609,-0.688L0.338,-0.411C0.336,-0.41 0.336,-0.408 0.337,-0.405L0.547,-0.012C0.548,-0.011 0.548,-0.01 0.548,-0.008C0.548,-0.006 0.547,-0.004 0.545,-0.003C0.543,-0.001 0.541,-0 0.538,-0L0.482,-0C0.476,-0 0.472,-0.002 0.471,-0.006L0.284,-0.354C0.283,-0.357 0.281,-0.357 0.278,-0.355L0.174,-0.254C0.172,-0.252 0.171,-0.25 0.171,-0.249L0.142,-0.01C0.141,-0.003 0.137,-0 0.131,-0L0.081,-0Z" style="fill:rgb(168,168,168);fill-rule:nonzero;"/>
            </g>
            <g transform="matrix(20,0,0,20,828.15,580)">
                <path d="M0.476,-0.338C0.476,-0.313 0.473,-0.279 0.467,-0.236C0.467,-0.233 0.466,-0.231 0.464,-0.229C0.462,-0.227 0.459,-0.226 0.456,-0.226L0.143,-0.226C0.14,-0.226 0.139,-0.225 0.139,-0.222C0.136,-0.193 0.135,-0.174 0.135,-0.166C0.135,-0.132 0.146,-0.105 0.168,-0.085C0.189,-0.064 0.22,-0.054 0.259,-0.054C0.287,-0.054 0.312,-0.06 0.334,-0.073C0.355,-0.086 0.373,-0.104 0.388,-0.127C0.393,-0.133 0.398,-0.134 0.402,-0.131L0.437,-0.108C0.442,-0.105 0.443,-0.1 0.439,-0.094C0.419,-0.062 0.392,-0.037 0.358,-0.019C0.323,-0 0.285,0.009 0.242,0.009C0.196,0.008 0.159,-0.003 0.131,-0.025C0.103,-0.047 0.084,-0.078 0.075,-0.117C0.071,-0.134 0.069,-0.154 0.069,-0.175C0.069,-0.198 0.071,-0.225 0.075,-0.255C0.078,-0.284 0.082,-0.307 0.085,-0.324C0.088,-0.341 0.093,-0.357 0.098,-0.371C0.114,-0.414 0.14,-0.449 0.177,-0.475C0.214,-0.501 0.256,-0.514 0.303,-0.514C0.362,-0.514 0.405,-0.499 0.433,-0.468C0.461,-0.437 0.475,-0.394 0.476,-0.338ZM0.295,-0.452C0.264,-0.452 0.237,-0.444 0.214,-0.427C0.191,-0.409 0.174,-0.387 0.163,-0.358C0.158,-0.345 0.153,-0.322 0.147,-0.29C0.147,-0.287 0.148,-0.286 0.151,-0.286L0.402,-0.286C0.405,-0.286 0.406,-0.287 0.406,-0.29C0.407,-0.317 0.408,-0.334 0.408,-0.341C0.408,-0.374 0.398,-0.401 0.378,-0.422C0.358,-0.442 0.33,-0.452 0.295,-0.452Z" style="fill:rgb(168,168,168);fill-rule:nonzero;"/>
            </g>
            <g transform="matrix(20,0,0,20,838.23,580)">
                <path d="M0.011,0.2C0.006,0.2 0.005,0.197 0.006,0.19L0.011,0.15C0.011,0.147 0.012,0.145 0.014,0.143C0.016,0.141 0.019,0.14 0.022,0.14L0.025,0.14C0.05,0.139 0.071,0.136 0.086,0.129C0.1,0.122 0.114,0.109 0.126,0.09C0.138,0.071 0.152,0.042 0.169,0.003C0.17,0.002 0.17,0.001 0.171,-0.001C0.171,-0.002 0.171,-0.002 0.17,-0.003L0.067,-0.495L0.067,-0.497C0.067,-0.503 0.07,-0.506 0.076,-0.506L0.127,-0.506C0.132,-0.506 0.136,-0.503 0.138,-0.498L0.214,-0.094C0.215,-0.093 0.216,-0.092 0.217,-0.092C0.218,-0.092 0.219,-0.093 0.22,-0.094L0.394,-0.498C0.395,-0.501 0.396,-0.503 0.399,-0.504C0.402,-0.505 0.404,-0.506 0.406,-0.506L0.457,-0.506C0.464,-0.506 0.466,-0.502 0.463,-0.495L0.218,0.044C0.197,0.089 0.179,0.122 0.163,0.143C0.146,0.164 0.127,0.179 0.106,0.188C0.085,0.196 0.055,0.2 0.018,0.2L0.011,0.2Z" style="fill:rgb(168,168,168);fill-rule:nonzero;"/>
            </g>
        </g>
        <g transform="matrix(1,0,0,0.771084,0,85.3855)">
            <g transform="matrix(1,-0,-0,1.29688,356,253.297)">
                <path d="M801.25,83.301L794.5,92.301L787.75,83.301L801.25,83.301Z" style="fill:rgb(168,168,168);"/>
                <path d="M116.5,92.301L116.5,28.301L794.5,28.301L794.5,85.101" style="fill:none;stroke:rgb(168,168,168);stroke-width:2px;stroke-dasharray:6,4,0,0,0,0;"/>
            </g>
        </g>
    </g>
</svg>
