<?xml version="1.0" encoding="UTF-8" standalone="no"?>
<!DOCTYPE svg PUBLIC "-//W3C//DTD SVG 1.1//EN" "http://www.w3.org/Graphics/SVG/1.1/DTD/svg11.dtd">
<svg width="1920px" height="1080px" version="1.1" xmlns="http://www.w3.org/2000/svg" xmlns:xlink="http://www.w3.org/1999/xlink" xml:space="preserve" xmlns:serif="http://www.serif.com/" style="fill-rule:evenodd;clip-rule:evenodd;stroke-linecap:round;">
    <g transform="matrix(1,0,0,1,-42,-8.52651e-14)">
        <g transform="matrix(0.354215,0,0,0.354215,398.729,180.465)">
            <path d="M398.7,50L400.325,50C408.653,53.967 416.764,58.373 424.625,63.2C515.108,115.233 605.592,167.283 696.075,219.35C703.223,223.165 707.339,231 706.425,239.05C706.225,348.775 706.425,458.475 706.3,568.15C705.123,573.382 701.922,577.941 697.4,580.825C601.183,636.225 504.958,691.592 408.725,746.925C403.964,750.554 397.439,750.921 392.3,747.85C295.967,692.617 199.725,637.283 103.575,581.85C97.198,578.835 93.241,572.246 93.575,565.2L93.575,236.125C93.094,229.108 96.931,222.464 103.25,219.375C193.617,167.408 283.983,115.408 374.35,63.375C382.4,58.775 390.3,53.9 398.7,50" style="fill:rgb(1,150,57);fill-rule:nonzero;"/>
            <path d="M219.175,263.45L219.175,534.925C218.942,545.045 222.791,554.844 229.85,562.1C243.607,575.69 265.174,577.847 281.35,567.25C292.048,559.981 298.47,547.859 298.475,534.925C298.475,469.425 298.35,403.925 298.475,338.425C358.192,409.925 418.033,481.325 478,552.625C494.912,569.758 519.442,577.136 543,572.175C559.776,568.87 572.516,554.907 574.275,537.9C574.408,445.55 574.408,353.208 574.275,260.875C572.5,240.551 555.276,224.766 534.875,224.766C514.474,224.766 497.25,240.551 495.475,260.875C495.475,327.425 495.075,393.9 495.475,460.425C436.825,391.275 378.9,321.525 320.475,252.125C304.811,232.04 279.426,221.958 254.25,225.825C234.955,227.973 219.966,244.052 219.175,263.45Z" style="fill:white;fill-rule:nonzero;"/>
        </g>
        <g transform="matrix(0.545858,0,0,0.545858,66.8383,316.924)">
            <g transform="matrix(1,0,0,1,219,345)">
                <path d="M0.122,230.114L0.122,297.771C0.122,297.771 -0.366,336.293 35.596,335.439C41.204,335.196 61.928,336.171 67.048,320.079C67.048,319.714 67.048,332.514 67.048,332.514L91.916,332.514L91.962,230.114L67.093,230.114L67.048,293.382C67.048,293.382 67.779,316.056 46.568,314.959C25.356,313.862 25.722,295.211 25.722,295.211L25.6,230.114L0.122,230.114Z" style="fill:rgb(174,200,77);fill-rule:nonzero;"/>
            </g>
            <g transform="matrix(1,0,0,1,219,345)">
                <path d="M132.389,335.196L142.629,335.196L176.031,252.544L209.432,334.952L219.672,334.952L261.12,182.327L236.008,175.988L210.895,270.342L181.151,195.981L170.666,195.981L141.897,269.611L116.054,175.988L91.185,182.327L132.389,335.196Z" style="fill:rgb(20,18,21);fill-rule:nonzero;"/>
            </g>
            <g transform="matrix(1,0,0,1,219,345)">
                <path d="M260.389,300.574C260.389,300.574 266.728,319.592 277.211,326.419C287.695,333.245 305.493,335.926 314.026,335.683C322.56,335.439 365.959,334.708 366.446,294.479C370.103,273.999 352.305,259.126 347.429,256.201C342.552,253.275 326.704,243.035 314.026,239.378C301.349,235.721 288.914,227.675 287.939,221.336C286.964,214.998 287.939,196.468 315.246,196.224C334.263,198.175 334.994,206.221 337.92,210.609L343.04,221.092L364.007,211.341C364.007,211.341 355.717,191.592 353.767,189.885C351.817,188.178 344.015,175.988 313.295,176.232C282.575,176.475 264.534,189.154 263.314,211.096C262.095,233.039 266.727,243.279 289.158,256.932C303.055,264.491 317.684,266.197 332.8,277.656C343.284,286.19 341.09,295.943 340.846,300.087C340.601,304.231 335.481,315.934 314.27,314.959C293.059,313.984 288.914,305.451 287.451,303.013C285.989,300.574 280.869,290.579 280.869,290.579L260.389,300.574Z" style="fill:rgb(20,18,21);fill-rule:nonzero;"/>
            </g>
            <g transform="matrix(1,0,0,1,219,345)">
                <rect x="486.156" y="178.67" width="25.844" height="154.575" style="fill:rgb(20,18,21);"/>
            </g>
            <g transform="matrix(1,0,0,1,219,345)">
                <path d="M431.786,250.838L431.786,271.074L451.779,271.074L451.779,312.034C451.779,312.034 445.683,315.691 432.274,315.204C418.864,314.716 397.654,316.422 395.946,255.47C394.239,194.518 423.254,196.468 426.666,196.468C430.079,196.468 447.146,196.712 455.924,220.849C456.168,221.093 476.891,211.096 476.891,211.096C476.891,211.096 467.87,174.281 427.886,176.232C387.901,178.182 372.541,198.906 370.347,250.838C368.153,302.769 386.438,336.659 430.08,334.952C473.722,333.245 476.891,329.588 476.891,329.588L476.831,250.899L431.786,250.838Z" style="fill:rgb(20,18,21);fill-rule:nonzero;"/>
            </g>
            <g transform="matrix(1,0,0,1,219,345)">
                <circle cx="347.672" cy="204.026" r="8.534" style="fill:rgb(174,200,77);"/>
            </g>
            <g transform="matrix(1,0,0,1,219,345)">
                <circle cx="347.672" cy="204.026" r="2.56" style="fill:rgb(37,35,38);"/>
            </g>
            <g transform="matrix(1,0,0,1,219,345)">
                <path d="M25.708,287.528L25.6,230.114L0.122,230.114L0.122,296.586C7.416,292.54 16.111,289.421 25.708,287.528Z" style="fill-rule:nonzero;"/>
            </g>
            <g transform="matrix(1,0,0,1,219,345)">
                <path d="M91.962,230.114L67.093,230.114L67.052,287.182C76.272,288.83 84.709,291.602 91.933,295.241L91.962,230.114Z" style="fill-rule:nonzero;"/>
            </g>
            <g transform="matrix(1,0,0,1,219,345)">
                <path d="M0.122,297.771C0.122,297.771 -0.366,336.293 35.596,335.439C41.204,335.196 61.928,336.171 67.048,320.079C67.048,319.714 67.048,332.514 67.048,332.514L91.916,332.514L91.933,295.241C84.71,291.602 76.273,288.83 67.052,287.182L67.048,293.382C67.048,293.382 67.779,316.056 46.568,314.959C25.356,313.862 25.722,295.211 25.722,295.211L25.708,287.528C16.111,289.421 7.416,292.54 0.122,296.586L0.122,297.771Z" style="fill:white;fill-opacity:0.1;fill-rule:nonzero;"/>
            </g>
            <g transform="matrix(1,0,0,1,219,345)">
                <path d="M217.154,246.827L210.895,270.342L200.731,244.934C183.989,242.799 168.496,240.162 154.599,237.102L141.897,269.611L131.272,231.122C119.278,227.541 109.12,223.58 101.156,219.323L132.389,335.196L142.629,335.196L176.031,252.544L209.433,334.952L219.673,334.952L243.004,249.039C234.15,248.429 225.521,247.688 217.154,246.827Z" style="fill-rule:nonzero;"/>
            </g>
            <g transform="matrix(1,0,0,1,219,345)">
                <path d="M261.12,182.327L236.008,175.988L217.155,246.827C225.522,247.688 234.151,248.429 243.004,249.039L261.12,182.327Z" style="fill:white;fill-opacity:0.1;fill-rule:nonzero;"/>
            </g>
            <g transform="matrix(1,0,0,1,219,345)">
                <path d="M116.054,175.988L91.185,182.327L101.157,219.323C109.121,223.58 119.278,227.541 131.273,231.122L116.054,175.988Z" style="fill:white;fill-opacity:0.1;fill-rule:nonzero;"/>
            </g>
            <g transform="matrix(1,0,0,1,219,345)">
                <path d="M181.151,195.981L170.667,195.981L154.6,237.102C168.497,240.163 183.99,242.799 200.732,244.934L181.151,195.981Z" style="fill:white;fill-opacity:0.1;fill-rule:nonzero;"/>
            </g>
            <g transform="matrix(1,0,0,1,219,345)">
                <path d="M313.295,176.232C282.575,176.475 264.534,189.154 263.314,211.096C262.284,229.639 265.433,239.824 279.969,250.774C287.756,250.975 295.66,251.081 303.664,251.081C315.294,251.081 326.715,250.862 337.863,250.443C330.939,246.43 321.877,241.642 314.026,239.378C301.349,235.721 288.914,227.675 287.939,221.336C286.964,214.998 287.939,196.468 315.246,196.224C334.263,198.175 334.994,206.221 337.92,210.609L343.04,221.092L364.007,211.341C364.007,211.341 355.717,191.592 353.767,189.885C351.817,188.178 344.015,175.988 313.295,176.232Z" style="fill:white;fill-opacity:0.1;fill-rule:nonzero;"/>
            </g>
            <g transform="matrix(1,0,0,1,219,345)">
                <path d="M427.886,176.232C388.484,178.154 372.994,198.308 370.452,248.592C379.191,247.922 387.697,247.124 395.934,246.208C397.283,194.732 423.438,196.468 426.668,196.468C430.081,196.468 447.148,196.712 455.925,220.849C456.168,221.093 476.891,211.096 476.891,211.096C476.891,211.096 467.87,174.281 427.886,176.232Z" style="fill:white;fill-opacity:0.1;fill-rule:nonzero;"/>
            </g>
            <g transform="matrix(1,0,0,1,219,345)">
                <path d="M486.156,227.863C496.704,224.182 505.424,220.168 512,215.897L512,178.67L486.156,178.67L486.156,227.863Z" style="fill:white;fill-opacity:0.1;fill-rule:nonzero;"/>
            </g>
        </g>
        <g transform="matrix(0.317111,0,0,0.317111,603.42,518.278)">
            <path d="M799.544,614.073C799.544,629.684 620.56,642.34 399.772,642.34C178.984,642.34 0,629.684 0,614.073C0,603.974 76.196,594.643 199.886,589.593C323.576,584.544 475.968,584.544 599.658,589.593C723.348,594.643 799.544,603.974 799.544,614.073Z" style="fill:url(#_Linear1);fill-rule:nonzero;"/>
            <path d="M345.746,625.455C338.006,622.992 337.979,621.904 345.109,600.255C352.23,578.635 348.967,558.557 335.767,542.775C317.817,521.314 309.174,503.002 306.419,480.596C304.053,461.361 303.304,459.836 295.472,458.332C290.22,457.324 282.963,459.321 265.669,466.535C240.507,477.031 234.515,481.639 228.577,495.059C225.458,502.109 225.083,506.332 226.853,514.487C229.013,524.444 237.867,540.473 241.218,540.495C242.093,540.501 246.925,543.81 251.956,547.85C260.305,554.552 260.878,555.717 258.515,561.181C253.382,573.053 241.187,587.447 236.261,587.447C233.497,587.447 222.211,579.542 209.788,568.904C185.386,548.01 184.364,545.915 181.843,511.667C178.836,470.804 188.885,451.733 233.639,413.365L261.709,389.301L263.502,374.705C265.35,359.657 262.745,323.827 258.364,304.049C255.776,292.365 247.235,281.236 239.13,278.988C230.3,276.538 225.124,281.592 218.406,299.225C211.158,318.249 204.231,324.886 191.623,324.886C183.77,324.886 176.442,319.863 171.382,311.011C167.756,304.669 165.651,266.564 167.819,246.507C168.862,236.858 168.921,227.089 167.952,224.798C166.374,221.07 152.788,213.005 120.757,196.783C114.934,193.834 108.146,189.864 105.672,187.96C103.198,186.056 96.779,182.555 91.406,180.18C79.238,174.802 47.509,156.25 50.479,156.25C56.099,156.25 79.913,163.58 92.591,169.211C100.33,172.649 107.738,175.462 109.054,175.462C110.369,175.462 125.29,180.265 142.21,186.135C159.131,192.005 174.596,196.808 176.578,196.808C181.284,196.808 182.022,192.737 180.514,175.092C179.829,167.077 179.859,160.519 180.581,160.519C181.303,160.519 184.421,162.067 187.51,163.958C196.947,169.736 217.247,173.275 241.106,173.302C263.919,173.329 293.698,177.854 305.079,183.026C321.406,190.445 340.344,213.619 364.368,255.575C381.07,284.743 399.016,297.094 424.736,297.121C435.133,297.133 462.872,292.847 500.437,285.426C531.41,279.307 572.299,277.932 588.17,282.475C607.532,288.017 633.134,302.834 654.302,320.748C674.113,337.515 677.165,341.237 689.335,363.486C703.859,390.039 719.889,427.776 734.144,468.974C736.175,474.845 740.465,484.719 743.677,490.918C752.248,507.456 751.821,508.465 736.246,508.465C719.341,508.465 711.413,505.799 700.331,496.389C689.703,487.364 686.926,481.842 670.29,436.643C661.769,413.492 653.474,399.599 648.172,399.599C644.54,399.599 637.187,424.408 637.187,436.666C637.187,445.371 642.643,457.132 656.747,478.833C679.661,514.086 691.714,563.921 686.889,603.457L684.805,620.534L669.535,621.169C645.493,622.17 645.734,622.504 645.734,588.126C645.734,551.527 643.241,543.601 627.09,528.841C620.382,522.71 605.331,505.291 593.643,490.132C581.956,474.973 570.764,462.57 568.771,462.57C564.193,462.57 561.91,475.036 561.667,501.364C561.507,518.702 560.824,521.637 555.709,526.98C541.841,541.464 532.106,567.837 526.105,607.184C524.777,615.893 523.638,617.522 517.993,618.79C509.692,620.654 486.689,620.959 484.707,619.232C482.997,617.742 485.993,594.092 492.789,555.427C495.368,540.752 498.183,521.06 499.045,511.667C500.579,494.947 497.151,463.62 493.093,457.283C491.406,454.647 482.816,454.076 442.635,453.929C416.002,453.831 386.793,452.955 377.728,451.982L361.244,450.213L361.244,457.527C361.244,465.36 363.252,472.264 376.678,510.6C381.406,524.101 388.258,544.685 391.905,556.34L398.534,577.532L392.94,594.764C389.863,604.241 385.297,615.597 382.792,620C378.375,627.766 377.857,628 365.468,627.836C358.444,627.744 349.569,626.672 345.746,625.455L345.746,625.455Z" style="fill:rgb(73,152,72);fill-rule:nonzero;"/>
        </g>
        <g transform="matrix(1.2535,0,0,1.2535,40.7667,22.1)">
            <path d="M519.257,112.732L585.923,147.717C657.647,185.355 693.507,204.174 713.42,237.991C733.333,271.808 733.333,313.889 733.333,398.05L733.333,401.95C733.333,486.11 733.333,528.193 713.42,562.01C693.507,595.827 657.647,614.643 585.923,652.283L519.257,687.267C460.737,717.977 431.477,733.333 400,733.333C368.523,733.333 339.263,717.977 280.743,687.267L214.076,652.283C142.354,614.643 106.493,595.827 86.58,562.01C66.667,528.193 66.667,486.11 66.667,401.95L66.667,398.05C66.667,313.889 66.667,271.808 86.58,237.991C106.493,204.174 142.354,185.355 214.076,147.717L280.743,112.732C339.263,82.022 368.523,66.667 400,66.667C431.477,66.667 460.737,82.022 519.257,112.732Z" style="fill:none;fill-rule:nonzero;stroke:rgb(28,39,76);stroke-width:23.93px;"/>
            <path d="M700,250L400,400M400,400L100,250M400,400L400,716.667" style="fill:none;fill-rule:nonzero;stroke:rgb(28,39,76);stroke-width:23.93px;"/>
        </g>
    </g>
    <g transform="matrix(0.462004,0,0,0.462004,1184.16,259.666)">
        <g transform="matrix(1,0,0,1,-3.9433,180.23)">
            <path d="M656.71,-7.089C676.977,-16.683 696.424,-27.233 714.847,-38.944C715.493,-39.368 716.147,-39.743 716.793,-40.167C709.279,-21.07 712.955,12.418 713.039,12.273C724.889,-22.438 739.554,-52.982 761.783,-72.399C770.266,-64.806 776.706,-50.569 781.997,-32.517C784.616,-57.366 780.139,-71.249 777.946,-76.316C788.863,-63.368 808.68,-56.14 829.991,-49.856C806.045,-64.392 790.199,-78.734 783.987,-92.811C852.299,-113.829 926.277,-138.968 1003.95,-166.837C997.855,-171.428 991.308,-172.006 984.505,-170.008C970.482,-164.906 878.285,-131.696 752.865,-93.764C749.302,-92.686 745.708,-91.613 742.097,-90.526C741.09,-90.219 740.071,-89.929 739.082,-89.635C725.908,-85.683 712.416,-81.716 698.62,-77.715C695.476,-76.811 692.333,-75.907 689.172,-74.99C689.106,-74.968 689.04,-74.947 688.991,-74.938L654.477,-6.003C655.189,-6.339 655.971,-6.727 656.718,-7.088L656.71,-7.089Z" style="fill:url(#_Linear2);fill-rule:nonzero;"/>
        </g>
        <g transform="matrix(1,0,0,1,-3.9433,180.23)">
            <path d="M23.148,66.819C42.219,74.015 62.756,75.904 82.881,78.093C94.735,79.217 106.619,80.007 118.511,80.586C126.68,63.482 134.849,46.379 143.019,29.275C111.528,30.131 79.932,29.451 48.626,25.735C79.569,28.838 110.763,27.584 141.755,25.905C119.385,-0.764 94.846,-25.523 69.825,-49.683C46.306,-37.844 23.534,-21.333 11.191,2.561C4.891,17.107 1.24,34.095 6.37,49.542C9.126,57.436 15.435,63.702 23.143,66.819L23.148,66.819Z" style="fill:url(#_Linear3);fill-rule:nonzero;"/>
        </g>
        <g transform="matrix(1,0,0,1,-3.9433,180.23)">
            <path d="M280.24,-67.687C280.086,-67.82 279.951,-67.966 279.797,-68.099L282.417,-65.268C282.65,-65.139 282.857,-65.045 283.072,-64.903C282.125,-65.847 281.174,-66.76 280.24,-67.687L280.24,-67.687Z" style="fill:none;fill-rule:nonzero;"/>
        </g>
        <g transform="matrix(1,0,0,1,-3.9433,180.23)">
            <path d="M368.72,-99.463C370.409,-97.999 372.036,-96.434 373.64,-94.825C372.036,-96.434 370.391,-97.986 368.72,-99.463Z" style="fill:none;fill-rule:nonzero;"/>
        </g>
        <g transform="matrix(1,0,0,1,-3.9433,180.23)">
            <path d="M640.89,-71.352C640.117,-71.136 639.345,-70.92 638.586,-70.686C622.667,-66.181 607.142,-61.885 591.943,-57.778C574.891,-53.173 558.316,-48.813 542.17,-44.689C525.154,-40.331 508.633,-36.23 492.59,-32.374C475.761,-28.319 459.463,-24.548 443.703,-21.012C430.878,-18.142 418.407,-15.426 406.277,-12.879C402.244,-12.028 398.229,-11.191 394.248,-10.38C386.367,-8.762 378.606,-7.205 371.025,-5.699C364.014,-4.314 357.139,-3.004 350.366,-1.741C348.112,-1.304 345.879,-0.91 343.642,-0.486C343.285,-0.413 342.914,-0.358 342.557,-0.285L344.783,2.125L342.224,7.259C342.776,7.152 343.323,7.076 343.888,6.986C354.124,5.213 364.404,3.353 374.728,1.404C380.693,0.274 386.677,-0.87 392.664,-2.045C409.264,-5.299 425.904,-8.72 442.554,-12.313C459.38,-15.927 476.186,-19.717 492.93,-23.627C509.379,-27.455 525.753,-31.419 542.026,-35.446C558.268,-39.478 574.384,-43.607 590.332,-47.777C606.986,-52.141 623.412,-56.555 639.577,-61.024C643.223,-62.026 646.869,-63.029 650.503,-64.049C663.535,-67.675 676.346,-71.303 688.967,-74.927L693.022,-83.037L690.525,-85.739C690.145,-85.622 689.766,-85.505 689.404,-85.402C672.862,-80.517 656.695,-75.828 640.89,-71.354L640.89,-71.352Z" style="fill:none;fill-rule:nonzero;"/>
        </g>
        <g transform="matrix(1,0,0,1,-3.9433,180.23)">
            <path d="M374.86,-93.62C374.848,-93.637 374.829,-93.624 374.816,-93.642C374.816,-93.642 374.828,-93.624 374.86,-93.62Z" style="fill:none;fill-rule:nonzero;"/>
        </g>
        <g transform="matrix(1,0,0,1,-3.9433,180.23)">
            <path d="M415.36,-112.668C417.877,-110.309 420.442,-107.849 423.077,-105.33C423.089,-105.313 423.121,-105.308 423.134,-105.29C421.845,-106.585 420.57,-107.861 419.272,-109.094C417.974,-110.326 416.685,-111.51 415.36,-112.668L415.36,-112.668Z" style="fill:rgb(190,32,46);fill-rule:nonzero;"/>
        </g>
        <g transform="matrix(1,0,0,1,-3.9433,180.23)">
            <path d="M415.36,-112.668C417.877,-110.309 420.442,-107.849 423.077,-105.33C423.089,-105.313 423.121,-105.308 423.134,-105.29C421.845,-106.585 420.57,-107.861 419.272,-109.094C417.974,-110.326 416.685,-111.51 415.36,-112.668L415.36,-112.668Z" style="fill:rgb(190,32,46);fill-opacity:0.35;fill-rule:nonzero;"/>
        </g>
        <g transform="matrix(1,0,0,1,-3.9433,180.23)">
            <path d="M374.77,-93.664C374.77,-93.664 374.782,-93.646 374.801,-93.659C374.813,-93.641 374.832,-93.655 374.845,-93.637C374.451,-94.058 374.034,-94.435 373.653,-94.838C372.035,-96.465 370.391,-98.016 368.733,-99.476C370.701,-97.561 372.732,-95.637 374.77,-93.664L374.77,-93.664Z" style="fill:rgb(190,32,46);fill-rule:nonzero;"/>
        </g>
        <g transform="matrix(1,0,0,1,-3.9433,180.23)">
            <path d="M374.77,-93.664C374.77,-93.664 374.782,-93.646 374.801,-93.659C374.813,-93.641 374.832,-93.655 374.845,-93.637C374.451,-94.058 374.034,-94.435 373.653,-94.838C372.035,-96.465 370.391,-98.016 368.733,-99.476C370.701,-97.561 372.732,-95.637 374.77,-93.664L374.77,-93.664Z" style="fill:rgb(190,32,46);fill-opacity:0.35;fill-rule:nonzero;"/>
        </g>
        <g transform="matrix(1,0,0,1,-3.9433,180.23)">
            <path d="M294.05,14.994C277.089,17.501 260.327,19.723 243.832,21.637C226.71,23.632 209.877,25.276 193.416,26.534C192.459,26.612 191.471,26.686 190.497,26.778C174.279,27.993 158.433,28.822 143.008,29.257L118.5,80.568C121.659,80.722 124.854,80.85 128.111,80.987C140.362,81.451 153.381,81.73 167.013,81.801C182.378,81.877 198.573,81.667 215.373,81.2C230.895,80.748 246.974,80.047 263.424,79.071C277.427,78.236 291.74,77.227 306.262,75.98C306.804,75.935 307.33,75.902 307.872,75.856C321.192,53.686 330.762,30.134 342.207,7.273C326.024,10.054 309.966,12.632 294.05,14.995L294.05,14.994Z" style="fill:url(#_Linear4);fill-rule:nonzero;"/>
        </g>
        <g transform="matrix(1,0,0,1,-3.9433,180.23)">
            <path d="M639.56,-61.01C623.381,-56.559 606.956,-52.145 590.315,-47.763C574.38,-43.575 558.269,-39.477 542.009,-35.432C525.749,-31.387 509.379,-27.453 492.913,-23.613C476.169,-19.703 459.35,-15.93 442.537,-12.299C425.905,-8.719 409.247,-5.285 392.647,-2.031C386.659,-0.856 380.676,0.288 374.711,1.418C364.386,3.367 354.106,5.228 343.871,7C343.319,7.108 342.773,7.184 342.208,7.273L307.878,75.856C308.963,75.765 310.034,75.657 311.119,75.566C326.509,74.196 342.134,72.625 357.898,70.759C373.82,68.886 389.863,66.731 405.96,64.316C419.542,62.284 433.122,60.063 446.684,57.634C449.437,57.129 452.142,56.633 454.864,56.123C471.847,52.942 487.958,49.474 503.229,45.833C520.525,41.706 536.739,37.339 551.838,32.838C561.776,29.887 571.252,26.867 580.269,23.858C587.909,21.211 595.501,18.463 602.979,15.635C620.633,8.993 637.819,1.793 654.479,-6.005C666.119,-28.618 678.148,-51.593 688.993,-74.94C676.371,-71.316 663.525,-67.662 650.493,-64.036C646.878,-63.029 643.214,-62.013 639.567,-61.011L639.56,-61.01Z" style="fill:url(#_Linear5);fill-rule:nonzero;"/>
        </g>
        <g transform="matrix(1,0,0,1,-3.9433,180.23)">
            <path d="M343.66,-0.499C345.879,-0.91 348.116,-1.334 350.384,-1.753C357.144,-3.034 364.018,-4.344 371.043,-5.712C378.637,-7.199 386.368,-8.761 394.266,-10.392C398.246,-11.203 402.231,-12.045 406.295,-12.891C418.426,-15.438 430.897,-18.155 443.721,-21.024C459.48,-24.56 475.779,-28.331 492.608,-32.386C508.651,-36.242 525.172,-40.343 542.187,-44.701C558.333,-48.826 574.926,-53.199 591.96,-57.79C607.158,-61.898 622.684,-66.193 638.603,-70.698C639.376,-70.914 640.148,-71.13 640.908,-71.364C656.712,-75.839 672.879,-80.528 689.391,-85.417C689.77,-85.534 690.15,-85.651 690.512,-85.755L671.369,-106.431C671.609,-105.922 671.897,-105.423 672.136,-104.915C648.84,-129.343 602.216,-150.193 560.256,-154.912C540.918,-157.09 520.262,-156.754 497.843,-153.987C481.153,-151.928 463.49,-148.517 444.652,-143.768C428.188,-139.627 410.838,-134.5 392.468,-128.343C400.307,-124.579 407.946,-119.27 415.399,-112.697C416.693,-111.543 418.013,-110.355 419.311,-109.122C420.609,-107.89 421.903,-106.627 423.174,-105.319C423.162,-105.337 423.129,-105.341 423.117,-105.359C394.87,-123.291 364.495,-125.297 333.144,-119.885C342.536,-116.616 356.386,-110.258 368.747,-99.506C370.436,-98.042 372.062,-96.478 373.666,-94.869C374.079,-94.461 374.478,-94.071 374.859,-93.668C374.847,-93.685 374.828,-93.672 374.815,-93.69C374.815,-93.69 374.803,-93.707 374.784,-93.694C364.679,-99.7 355.161,-104.028 345.62,-106.831C343.582,-107.433 341.536,-107.973 339.475,-108.421C336.35,-109.121 333.214,-109.65 330.043,-110.042C328.017,-110.296 325.982,-110.488 323.919,-110.605C319.095,-110.896 314.158,-110.857 309.042,-110.467C307.482,-110.352 305.916,-110.206 304.315,-110.034C302.087,-109.672 299.921,-109.3 297.786,-108.924C288.141,-107.206 279.783,-105.343 272.606,-103.479C269.017,-102.546 265.746,-101.63 262.757,-100.703C261.569,-100.344 260.412,-99.98 259.304,-99.625C255.992,-98.541 253.099,-97.521 250.608,-96.552C246.88,-95.105 244.039,-93.794 242.041,-92.751C243.343,-92.401 244.738,-91.926 246.207,-91.314C256.357,-87.097 270.098,-77.148 279.798,-68.099L262.215,-87.079L279.798,-68.099C279.951,-67.966 280.087,-67.819 280.241,-67.686C281.192,-66.773 282.139,-65.829 283.104,-64.898C282.871,-65.027 282.664,-65.071 282.449,-65.213L342.613,-0.323C342.953,-0.383 343.292,-0.443 343.663,-0.498L343.66,-0.499Z" style="fill:url(#_Linear6);fill-rule:nonzero;"/>
        </g>
        <g transform="matrix(1,0,0,1,-3.9433,180.23)">
            <path d="M141.76,25.873C156.068,25.005 172.119,23.749 190.002,21.93C190.928,21.847 191.89,21.738 192.833,21.642C208.304,20.048 225.121,18.086 243.321,15.622C259.042,13.513 275.76,11.049 293.566,8.163C309.077,5.662 325.454,2.847 342.609,-0.324L283.119,-64.893C258.383,-78.46 242.298,-81.687 223.278,-81.44C218.103,-81.279 212.755,-81.018 207.296,-80.647C190.585,-79.505 172.827,-77.368 155.692,-74.54C139.152,-71.798 123.257,-68.408 109.462,-64.627C100.691,-62.212 92.778,-59.637 86.13,-56.985C80.268,-54.642 74.864,-52.199 69.843,-49.683C94.944,-25.633 124.432,4.74 141.774,25.874L141.76,25.873Z" style="fill:url(#_Linear7);fill-rule:nonzero;"/>
        </g>
        <g transform="matrix(1,0,0,1,-3.9433,180.23)">
            <path d="M419.27,-109.098C420.568,-107.865 421.861,-106.602 423.132,-105.295C421.861,-106.602 420.568,-107.865 419.27,-109.098Z" style="fill:rgb(190,32,46);fill-rule:nonzero;"/>
        </g>
        <g transform="matrix(1,0,0,1,-3.9433,180.23)">
            <path d="M419.27,-109.098C420.568,-107.865 421.861,-106.602 423.132,-105.295C421.861,-106.602 420.568,-107.865 419.27,-109.098Z" style="fill:rgb(190,32,46);fill-opacity:0.35;fill-rule:nonzero;"/>
        </g>
        <g transform="matrix(1,0,0,1,-3.9433,180.23)">
            <path d="M419.27,-109.098C420.568,-107.865 421.861,-106.602 423.132,-105.295C421.861,-106.602 420.568,-107.865 419.27,-109.098Z" style="fill:url(#_Linear8);fill-rule:nonzero;"/>
        </g>
        <g transform="matrix(1,0,0,1,-3.9433,180.23)">
            <path d="M374.86,-93.62C374.466,-94.041 374.049,-94.418 373.668,-94.821C374.049,-94.418 374.448,-94.028 374.86,-93.62Z" style="fill:rgb(190,32,46);fill-rule:nonzero;"/>
        </g>
        <g transform="matrix(1,0,0,1,-3.9433,180.23)">
            <path d="M374.86,-93.62C374.466,-94.041 374.049,-94.418 373.668,-94.821C374.049,-94.418 374.448,-94.028 374.86,-93.62Z" style="fill:rgb(190,32,46);fill-opacity:0.35;fill-rule:nonzero;"/>
        </g>
        <g transform="matrix(1,0,0,1,-3.9433,180.23)">
            <path d="M374.86,-93.62C374.466,-94.041 374.049,-94.418 373.668,-94.821C374.049,-94.418 374.448,-94.028 374.86,-93.62Z" style="fill:url(#_Linear9);fill-rule:nonzero;"/>
        </g>
        <g transform="matrix(1,0,0,1,-3.9433,180.23)">
            <path d="M374.81,-93.66C374.81,-93.66 374.798,-93.677 374.779,-93.664C374.779,-93.664 374.791,-93.647 374.81,-93.66Z" style="fill:rgb(190,32,46);fill-rule:nonzero;"/>
        </g>
        <g transform="matrix(1,0,0,1,-3.9433,180.23)">
            <path d="M374.81,-93.66C374.81,-93.66 374.798,-93.677 374.779,-93.664C374.779,-93.664 374.791,-93.647 374.81,-93.66Z" style="fill:rgb(190,32,46);fill-opacity:0.35;fill-rule:nonzero;"/>
        </g>
        <g transform="matrix(1,0,0,1,-3.9433,180.23)">
            <path d="M374.81,-93.66C374.81,-93.66 374.798,-93.677 374.779,-93.664C374.779,-93.664 374.791,-93.647 374.81,-93.66Z" style="fill:url(#_Linear10);fill-rule:nonzero;"/>
        </g>
        <g transform="matrix(1,0,0,1,-3.9433,180.23)">
            <path d="M697.74,-87.88C710.596,-91.705 723.643,-95.644 736.932,-99.736C737.131,-99.801 737.312,-99.853 737.51,-99.918C739.391,-100.489 741.259,-101.078 743.14,-101.65C752.089,-104.417 760.095,-106.978 778.318,-112.779C775.976,-123.745 780.936,-137.628 787.487,-152.142C776.412,-142.916 769.1,-130.06 767.424,-114.743C739.282,-156.511 703.25,-183.76 660.354,-179.858C656.522,-179.513 652.671,-178.935 648.73,-178.071C665.168,-177.583 677.097,-170.707 690.179,-150.806C690.223,-150.783 690.28,-150.743 690.324,-150.721C690.28,-150.743 690.223,-150.783 690.179,-150.806C656.749,-169.586 634.215,-174.744 604.952,-172.363C598.016,-171.801 590.702,-170.824 582.77,-169.497C626.246,-163.624 654.561,-140.46 671.356,-106.411L672.132,-104.917L690.499,-85.735C692.918,-86.431 695.324,-87.145 697.748,-87.872L697.74,-87.88Z" style="fill:url(#_Linear11);fill-rule:nonzero;"/>
        </g>
    </g>
    <g transform="matrix(0.401893,0,0,0.401893,1491.37,566.859)">
        <path d="M531.64,385L437.037,284.295L426.141,291.5C373.71,260.592 334.48,216.01 314.355,149.155C242.693,166.784 159.141,212 105.308,273.168C105.318,273.18 105.329,273.191 105.338,273.205C51.879,331.074 17.428,385.529 8.305,405.334L60.474,405.668C58.459,382.244 64.564,362.717 80.474,341C152.641,242.5 423.641,356 530.641,417.5L587.641,417C587.64,417 579.14,379.5 531.64,385Z" style="fill:rgb(209,164,26);fill-rule:nonzero;"/>
        <path d="M428.14,291.5C318.013,236.551 288.14,102.5 315.14,10.5C315.14,10.5 335.64,20 355.14,66C399.786,53.201 451.807,51.999 497.14,64.5C497.14,64.5 502.64,28.5 535.64,11.5C540.632,32.839 573.64,202.5 428.14,291.5Z" style="fill:rgb(255,220,118);fill-rule:nonzero;"/>
        <path d="M229.617,185.124L261.671,169.555L279.988,219.01L229.617,185.124ZM193.672,203.212L213.591,191.306L231.907,223.59L193.672,203.212ZM154.979,228.168L172.378,216.721L181.078,246.485L154.979,228.168ZM463.151,310.592L451.703,299.145L435.677,324.329L463.151,310.592ZM486.047,338.066L476.889,328.908L449.413,347.224L486.047,338.066ZM315.64,137.417L314.329,119.186L346.384,135.442L315.64,137.417ZM325.779,164.061L319.39,150.5L341.805,159.711L325.779,164.061ZM536.417,144.828L540.995,131.092L515.81,141.623L536.417,144.828ZM527.259,172.761L529.548,161.542L511.232,167.037L527.259,172.761ZM305.173,208.249L365.158,208.249L365.158,215.668L305.173,215.668L305.173,208.249ZM305.173,190.39L365.158,190.39L365.158,197.808L305.173,197.808L305.173,190.39ZM488.336,208.249L548.321,208.249L548.321,215.668L488.336,215.668L488.336,208.249ZM488.336,190.39L548.321,190.39L548.321,197.808L488.336,197.808L488.336,190.39Z" style="fill-rule:nonzero;"/>
        <path d="M547.277,76.878L547.177,76.727C547.135,65.165 543.55,16.297 536.977,2.843C519.139,9.662 486.657,31.804 479.405,54.38C444.271,49.089 404.606,49.728 369.699,55.768C363.897,31.368 334.794,12.897 312.807,2.407C303.536,18.165 299.411,54.627 300.476,80.624C300.437,80.651 300.393,80.677 300.354,80.707C304.434,189.481 357.473,257.209 426.832,298.256C498.232,257.209 549.231,177.166 547.19,76.829C547.219,76.846 547.251,76.86 547.277,76.878ZM427.816,284.154C318.789,229.427 298.164,91.007 316.752,17.351C321.92,45.856 331.304,63.642 351.657,72.308C370.537,66.863 392.48,63.569 414.92,62.543L431.099,99.955L443.067,62.458C463.774,63.286 483.997,66.096 501.712,71.012C520.41,57.329 527.778,36.35 531.631,18.106C536.571,39.36 536.006,85.378 536.028,85.378L536.166,84.623C538,175.152 492.189,247.215 427.817,284.156L427.816,284.154Z" style="fill-rule:nonzero;"/>
        <path d="M583.444,397.576C572.247,384.965 550.35,379.013 531.991,379.447C518.98,363.871 443.593,283.898 443.593,283.898L438.358,290.511L529.478,389.021L533.421,388.681C558.128,386.552 572.18,400.038 576.034,404.234C578.755,407.314 580.408,410.117 581.316,412.308L531.223,412.308C416.53,352.107 315.663,309.691 209.358,300.342C209.593,285.362 212.236,268.418 217.336,249.49L207.498,246.799C202.264,266.229 199.52,283.742 199.202,299.477C187.96,298.725 176.697,298.348 165.43,298.348C155.82,298.348 147.069,299.246 139.136,300.811C128.733,290.344 119.87,280.377 112.39,270.938C162.03,218.944 244.082,171.741 315.255,154.411L312.942,144.377C236.33,162.962 152.463,213.472 105.771,262.501C84.102,233.083 75.398,208.911 72.905,190.668C69.687,167.636 75.165,146.429 88.771,129.325C110.078,102.645 140.224,100.82 171.502,106.065C170.895,111.013 171.541,115.734 173.508,118.652C181.737,130.875 225.867,135.186 252.389,123.327C232.896,95.963 193.455,82.509 182.576,87.753C178.949,89.532 176.229,92.793 174.347,96.623C163.58,94.687 152.905,93.248 145.107,93.294C117.68,93.496 96.6,103.145 80.961,122.711C65.548,141.98 59.315,165.81 62.941,191.807C66.385,216.434 78.49,242.659 98.753,269.796L88.985,280.56C39.572,336.201 3.305,396.177 3.305,405.98L3.305,411.111L68.584,411.111L67.44,405.023C63.745,385.412 71.112,360.783 86.207,342.541C95.682,331.049 111.367,317.912 136.073,311.756C157.969,333.26 185.939,355.996 216.993,378.115L265.499,378.115L265.499,372.984C265.499,367.191 262.644,362.129 257.476,358.709C249.814,353.67 237.983,352.963 227.103,356.697C216.745,345.092 210.918,329.56 209.672,310.406C315.07,319.801 415.71,362.627 529.269,422.373L591.828,422.373L591.826,418.31C590.829,406.31 583.446,397.574 583.446,397.574L583.444,397.576ZM77.981,336.461C62.523,355.229 54.408,380.018 56.221,401.225L14.968,401.225C23.241,383.233 56.222,331.217 104.727,278.539C111.437,286.887 118.894,295.301 127.099,303.852C103.298,311.081 87.433,324.512 77.686,336.461L77.981,336.461ZM366.803,114.946L366.8,114.945L366.798,114.95L366.803,114.946Z" style="fill-rule:nonzero;"/>
        <path d="M507.276,115.793L507.276,109.106C482.504,109.106 467.667,118.905 460.569,139.786L406.994,139.786C410.74,123.073 411.382,106.68 405.863,97.201C402.75,91.867 397.849,89.028 391.691,89.028C369.62,89.028 360.91,111.649 360.553,112.61L366.8,114.944C367.049,114.117 374.356,95.74 391.754,95.74C395.555,95.74 398.225,97.274 400.156,100.594C404.676,108.378 403.942,123.672 400.187,139.745L369.736,139.745L369.736,146.431L398.695,146.458C395.604,157.425 391.277,168.254 386.401,176.909L384.823,179.68L423.058,203.72L401.581,217.87L405.268,223.456L429.309,207.635L455.18,224.53L458.729,218.878L434.689,204.018L472.466,179.519C472.453,179.504 472.446,179.49 472.437,179.477L472.307,179.401L472.35,179.394C464.43,167.72 461.933,157.739 465.227,146.432L496.446,146.473L496.513,139.833L467.436,139.833C472.932,127.172 480.488,115.793 507.276,115.793ZM429.036,199.572L400.876,181.828L456.054,181.842L429.036,199.572ZM458.431,146.458C456.05,154.013 457.012,165.393 462.85,175.077L394.851,175.077C398.995,166.789 402.819,156.692 405.612,146.458L458.431,146.458Z" style="fill-rule:nonzero;"/>
    </g>
    <g transform="matrix(1.2535,0,0,1.2535,913.767,38.6)">
        <path d="M519.257,112.732L585.923,147.717C657.647,185.355 693.507,204.174 713.42,237.991C733.333,271.808 733.333,313.889 733.333,398.05L733.333,401.95C733.333,486.11 733.333,528.193 713.42,562.01C693.507,595.827 657.647,614.643 585.923,652.283L519.257,687.267C460.737,717.977 431.477,733.333 400,733.333C368.523,733.333 339.263,717.977 280.743,687.267L214.076,652.283C142.354,614.643 106.493,595.827 86.58,562.01C66.667,528.193 66.667,486.11 66.667,401.95L66.667,398.05C66.667,313.889 66.667,271.808 86.58,237.991C106.493,204.174 142.354,185.355 214.076,147.717L280.743,112.732C339.263,82.022 368.523,66.667 400,66.667C431.477,66.667 460.737,82.022 519.257,112.732Z" style="fill:none;fill-rule:nonzero;stroke:rgb(28,39,76);stroke-width:23.93px;"/>
        <path d="M700,250L400,400M400,400L100,250M400,400L400,716.667" style="fill:none;fill-rule:nonzero;stroke:rgb(28,39,76);stroke-width:23.93px;"/>
    </g>
    <g transform="matrix(0.331429,0,0,0.331429,1078.43,523.429)">
        <circle cx="400" cy="400" r="350" style="fill:rgb(136,146,191);"/>
        <g transform="matrix(0.931401,0,0,0.931401,14.543,42.1883)">
            <g transform="matrix(0.898182,0,0,0.898182,99.7273,121)">
                <path d="M360.98,250L402.98,250L391.11,313.105L428.85,313.105C449.548,313.548 464.965,318.173 475.113,326.983C485.46,335.79 488.505,352.535 484.245,377.203L463.852,487.223L421.242,487.223L440.72,382.158C442.748,371.143 442.14,363.325 438.895,358.7C435.65,354.075 428.65,351.763 417.895,351.763L384.11,351.433L359.152,487.223L317.152,487.223L360.98,250Z" style="fill:white;fill-rule:nonzero;"/>
            </g>
            <g transform="matrix(0.898182,0,0,0.898182,99.7273,121)">
                <path d="M168.523,313.108L250.09,313.108C274.03,313.325 291.38,320.818 302.135,335.573C312.89,350.33 316.44,370.483 312.788,396.035C311.37,407.712 308.223,419.163 303.353,430.398C298.685,441.63 292.195,451.76 283.875,460.792C273.727,472.245 262.873,479.513 251.308,482.6C239.742,485.685 227.769,487.225 215.394,487.225L178.871,487.225L167.306,550L125,550L168.523,313.108ZM185.871,449.89L204.072,351.103L210.22,351.103C212.454,351.103 214.785,350.99 217.22,350.773C233.454,350.553 246.943,352.205 257.7,355.728C268.655,359.25 272.308,372.578 268.655,395.705C264.195,423.24 255.465,439.318 242.482,443.943C229.498,448.35 213.263,450.44 193.785,450.22L189.524,450.22C188.306,450.22 187.089,450.108 185.871,449.89Z" style="fill:white;"/>
            </g>
            <g transform="matrix(0.898182,0,0,0.898182,99.7273,121)">
                <path d="M610.913,313.108L529.345,313.108L485.823,550L528.127,550L539.695,487.225L576.218,487.225C588.593,487.225 600.565,485.685 612.13,482.6C623.698,479.513 634.55,472.245 644.698,460.792C653.017,451.76 659.507,441.63 664.175,430.398C669.045,419.163 672.193,407.712 673.61,396.035C677.262,370.483 673.715,350.33 662.958,335.573C652.203,320.818 634.855,313.325 610.913,313.108ZM564.895,351.103L546.695,449.89C547.913,450.108 549.13,450.22 550.348,450.22L554.608,450.22C574.088,450.44 590.32,448.35 603.305,443.943C616.287,439.318 625.017,423.24 629.48,395.705C633.132,372.578 629.48,359.25 618.523,355.728C607.768,352.205 594.278,350.553 578.043,350.773C575.608,350.99 573.278,351.103 571.043,351.103L564.895,351.103Z" style="fill:white;"/>
            </g>
        </g>
        <g transform="matrix(1.25355,0,0,1.25355,-49.875,-96.6539)">
            <g transform="matrix(182.248,0,0,182.248,152,345.545)">
                <path d="M0.689,-0.546C0.732,-0.546 0.765,-0.533 0.787,-0.508C0.809,-0.483 0.82,-0.447 0.82,-0.402C0.82,-0.388 0.819,-0.373 0.817,-0.357L0.767,-0L0.643,-0L0.693,-0.359C0.694,-0.37 0.695,-0.38 0.695,-0.391C0.695,-0.43 0.68,-0.45 0.65,-0.45C0.625,-0.45 0.6,-0.437 0.575,-0.41C0.549,-0.383 0.528,-0.349 0.513,-0.308L0.47,-0L0.346,-0L0.396,-0.359C0.397,-0.37 0.398,-0.38 0.398,-0.39C0.398,-0.43 0.383,-0.45 0.352,-0.45C0.327,-0.45 0.301,-0.436 0.276,-0.409C0.25,-0.382 0.229,-0.347 0.214,-0.305L0.173,-0L0.049,-0L0.123,-0.532L0.229,-0.532L0.223,-0.442C0.246,-0.477 0.271,-0.503 0.3,-0.52C0.329,-0.537 0.359,-0.546 0.392,-0.546C0.44,-0.546 0.475,-0.528 0.498,-0.493C0.507,-0.48 0.514,-0.462 0.519,-0.439C0.542,-0.475 0.568,-0.502 0.597,-0.52C0.626,-0.537 0.656,-0.546 0.689,-0.546Z" style="fill:white;fill-rule:nonzero;"/>
            </g>
            <g transform="matrix(182.248,0,0,182.248,312.378,345.545)">
                <path d="M0.325,-0.546C0.4,-0.546 0.458,-0.528 0.497,-0.491C0.536,-0.454 0.555,-0.404 0.555,-0.341C0.555,-0.33 0.554,-0.316 0.552,-0.3C0.55,-0.284 0.547,-0.264 0.544,-0.24C0.533,-0.161 0.504,-0.099 0.459,-0.055C0.413,-0.01 0.349,0.013 0.268,0.013C0.193,0.013 0.136,-0.005 0.098,-0.042C0.058,-0.078 0.039,-0.127 0.039,-0.189C0.039,-0.201 0.04,-0.215 0.042,-0.232C0.044,-0.248 0.047,-0.269 0.051,-0.294C0.062,-0.371 0.09,-0.433 0.135,-0.478C0.18,-0.523 0.244,-0.546 0.325,-0.546ZM0.32,-0.452C0.28,-0.452 0.248,-0.439 0.223,-0.412C0.198,-0.385 0.182,-0.347 0.175,-0.296C0.167,-0.24 0.163,-0.207 0.163,-0.197C0.163,-0.159 0.172,-0.13 0.191,-0.11C0.21,-0.09 0.237,-0.08 0.274,-0.08C0.314,-0.08 0.347,-0.094 0.372,-0.121C0.397,-0.148 0.413,-0.188 0.42,-0.24C0.427,-0.291 0.431,-0.324 0.431,-0.339C0.431,-0.376 0.422,-0.404 0.403,-0.423C0.384,-0.442 0.357,-0.452 0.32,-0.452Z" style="fill:white;fill-rule:nonzero;"/>
            </g>
            <g transform="matrix(182.248,0,0,182.248,420.815,345.545)">
                <path d="M0.588,-0.74L0.483,-0L0.386,-0L0.379,-0.077C0.333,-0.017 0.278,0.013 0.213,0.013C0.162,0.013 0.121,-0.005 0.09,-0.041C0.059,-0.077 0.044,-0.125 0.044,-0.186C0.044,-0.209 0.048,-0.246 0.056,-0.297C0.065,-0.353 0.081,-0.4 0.106,-0.437C0.131,-0.474 0.16,-0.502 0.193,-0.52C0.226,-0.537 0.259,-0.546 0.294,-0.546C0.345,-0.546 0.39,-0.529 0.429,-0.495L0.463,-0.74L0.588,-0.74ZM0.247,-0.081C0.273,-0.081 0.298,-0.091 0.323,-0.112C0.348,-0.133 0.369,-0.162 0.387,-0.2L0.416,-0.409C0.393,-0.438 0.359,-0.452 0.315,-0.452C0.282,-0.452 0.253,-0.439 0.23,-0.413C0.206,-0.386 0.189,-0.346 0.18,-0.293C0.173,-0.248 0.169,-0.213 0.169,-0.188C0.169,-0.153 0.176,-0.127 0.19,-0.109C0.204,-0.09 0.223,-0.081 0.247,-0.081Z" style="fill:white;fill-rule:nonzero;"/>
            </g>
        </g>
    </g>
    <defs>
        <linearGradient id="_Linear1" x1="0" y1="0" x2="1" y2="0" gradientUnits="userSpaceOnUse" gradientTransform="matrix(-524.058,25.9462,-25.9462,-524.058,589.39,588.127)"><stop offset="0" style="stop-color:rgb(149,149,149);stop-opacity:0.26"/><stop offset="1" style="stop-color:rgb(204,204,204);stop-opacity:0.26"/></linearGradient>
        <linearGradient id="_Linear2" x1="0" y1="0" x2="1" y2="0" gradientUnits="userSpaceOnUse" gradientTransform="matrix(-483.271,98.803,-98.803,-483.271,947.843,-99.2011)"><stop offset="0" style="stop-color:rgb(40,38,98);stop-opacity:1"/><stop offset="0.1" style="stop-color:rgb(102,46,141);stop-opacity:1"/><stop offset="0.79" style="stop-color:rgb(159,32,100);stop-opacity:1"/><stop offset="0.95" style="stop-color:rgb(205,32,50);stop-opacity:1"/><stop offset="1" style="stop-color:rgb(205,32,50);stop-opacity:1"/></linearGradient>
        <linearGradient id="_Linear3" x1="0" y1="0" x2="1" y2="0" gradientUnits="userSpaceOnUse" gradientTransform="matrix(-159.712,-124.363,124.363,-159.712,110.007,58.7954)"><stop offset="0" style="stop-color:rgb(246,153,35);stop-opacity:1"/><stop offset="0.31" style="stop-color:rgb(247,154,35);stop-opacity:1"/><stop offset="0.84" style="stop-color:rgb(233,120,38);stop-opacity:1"/><stop offset="1" style="stop-color:rgb(233,120,38);stop-opacity:1"/></linearGradient>
        <linearGradient id="_Linear4" x1="0" y1="0" x2="1" y2="0" gradientUnits="userSpaceOnUse" gradientTransform="matrix(-919.582,188.005,-188.005,-919.582,1067.34,-119.597)"><stop offset="0" style="stop-color:rgb(158,32,100);stop-opacity:1"/><stop offset="0.32" style="stop-color:rgb(158,32,100);stop-opacity:1"/><stop offset="0.63" style="stop-color:rgb(201,32,55);stop-opacity:1"/><stop offset="0.75" style="stop-color:rgb(205,35,53);stop-opacity:1"/><stop offset="1" style="stop-color:rgb(233,120,38);stop-opacity:1"/></linearGradient>
        <linearGradient id="_Linear5" x1="0" y1="0" x2="1" y2="0" gradientUnits="userSpaceOnUse" gradientTransform="matrix(-919.582,188.005,-188.005,-919.582,1017.45,-100.471)"><stop offset="0" style="stop-color:rgb(158,32,100);stop-opacity:1"/><stop offset="0.32" style="stop-color:rgb(158,32,100);stop-opacity:1"/><stop offset="0.63" style="stop-color:rgb(201,32,55);stop-opacity:1"/><stop offset="0.75" style="stop-color:rgb(205,35,53);stop-opacity:1"/><stop offset="1" style="stop-color:rgb(233,120,38);stop-opacity:1"/></linearGradient>
        <linearGradient id="_Linear6" x1="0" y1="0" x2="1" y2="0" gradientUnits="userSpaceOnUse" gradientTransform="matrix(-919.582,188.005,-188.005,-919.582,997.991,-195.64)"><stop offset="0" style="stop-color:rgb(158,32,100);stop-opacity:1"/><stop offset="0.32" style="stop-color:rgb(158,32,100);stop-opacity:1"/><stop offset="0.63" style="stop-color:rgb(201,32,55);stop-opacity:1"/><stop offset="0.75" style="stop-color:rgb(205,35,53);stop-opacity:1"/><stop offset="1" style="stop-color:rgb(233,120,38);stop-opacity:1"/></linearGradient>
        <linearGradient id="_Linear7" x1="0" y1="0" x2="1" y2="0" gradientUnits="userSpaceOnUse" gradientTransform="matrix(-919.582,188.005,-188.005,-919.582,1056,-202.58)"><stop offset="0" style="stop-color:rgb(158,32,100);stop-opacity:1"/><stop offset="0.32" style="stop-color:rgb(158,32,100);stop-opacity:1"/><stop offset="0.63" style="stop-color:rgb(201,32,55);stop-opacity:1"/><stop offset="0.75" style="stop-color:rgb(205,35,53);stop-opacity:1"/><stop offset="1" style="stop-color:rgb(233,120,38);stop-opacity:1"/></linearGradient>
        <linearGradient id="_Linear8" x1="0" y1="0" x2="1" y2="0" gradientUnits="userSpaceOnUse" gradientTransform="matrix(-919.582,188.005,-188.005,-919.582,992.204,-223.945)"><stop offset="0" style="stop-color:rgb(158,32,100);stop-opacity:1"/><stop offset="0.32" style="stop-color:rgb(158,32,100);stop-opacity:1"/><stop offset="0.63" style="stop-color:rgb(201,32,55);stop-opacity:1"/><stop offset="0.75" style="stop-color:rgb(205,35,53);stop-opacity:1"/><stop offset="1" style="stop-color:rgb(233,120,38);stop-opacity:1"/></linearGradient>
        <linearGradient id="_Linear9" x1="0" y1="0" x2="1" y2="0" gradientUnits="userSpaceOnUse" gradientTransform="matrix(-919.582,188.005,-188.005,-919.582,992.866,-220.707)"><stop offset="0" style="stop-color:rgb(158,32,100);stop-opacity:1"/><stop offset="0.32" style="stop-color:rgb(158,32,100);stop-opacity:1"/><stop offset="0.63" style="stop-color:rgb(201,32,55);stop-opacity:1"/><stop offset="0.75" style="stop-color:rgb(205,35,53);stop-opacity:1"/><stop offset="1" style="stop-color:rgb(233,120,38);stop-opacity:1"/></linearGradient>
        <linearGradient id="_Linear10" x1="0" y1="0" x2="1" y2="0" gradientUnits="userSpaceOnUse" gradientTransform="matrix(-203.258,41.5553,-41.5553,-203.258,476.391,-114.441)"><stop offset="0" style="stop-color:rgb(158,32,100);stop-opacity:1"/><stop offset="0.32" style="stop-color:rgb(158,32,100);stop-opacity:1"/><stop offset="0.63" style="stop-color:rgb(201,32,55);stop-opacity:1"/><stop offset="0.75" style="stop-color:rgb(205,35,53);stop-opacity:1"/><stop offset="1" style="stop-color:rgb(233,120,38);stop-opacity:1"/></linearGradient>
        <linearGradient id="_Linear11" x1="0" y1="0" x2="1" y2="0" gradientUnits="userSpaceOnUse" gradientTransform="matrix(-547.98,112.032,-112.032,-547.98,937.485,-189.14)"><stop offset="0" style="stop-color:rgb(40,38,98);stop-opacity:1"/><stop offset="0.1" style="stop-color:rgb(102,46,141);stop-opacity:1"/><stop offset="0.79" style="stop-color:rgb(159,32,100);stop-opacity:1"/><stop offset="0.95" style="stop-color:rgb(205,32,50);stop-opacity:1"/><stop offset="1" style="stop-color:rgb(205,32,50);stop-opacity:1"/></linearGradient>
    </defs>
</svg>
