<?xml version="1.0" encoding="UTF-8" standalone="no"?>
<!DOCTYPE svg PUBLIC "-//W3C//DTD SVG 1.1//EN" "http://www.w3.org/Graphics/SVG/1.1/DTD/svg11.dtd">
<svg width="110px" height="110px" version="1.1" xmlns="http://www.w3.org/2000/svg" xmlns:xlink="http://www.w3.org/1999/xlink" xml:space="preserve" xmlns:serif="http://www.serif.com/" style="fill-rule:evenodd;clip-rule:evenodd;stroke-linejoin:round;stroke-miterlimit:2;">
    <g transform="matrix(1,0,0,1,-130.5,-95.6583)">
        <g transform="matrix(1,0,0,1,185.276,127.435)">
            <g id="Marco-recto" serif:id="Marco recto" transform="matrix(1,0,0,1,-65.7763,-42.7763)">
                <g transform="matrix(1,0,0,1,-819.276,-399.276)">
                    <path d="M940.276,410.276L940.276,520.276L830.276,520.276L940.276,410.276Z" style="fill:rgb(20,100,69);"/>
                </g>
                <g transform="matrix(1,0,0,1,-819.276,-399.276)">
                    <path d="M830.276,520.276L830.276,410.276L940.276,410.276L830.276,520.276Z" style="fill:rgb(26,133,92);"/>
                </g>
            </g>
        </g>
        <g transform="matrix(1,0,0,1,185.276,127.435)">
            <g transform="matrix(0.232347,0,0,0.232347,-44.9678,-25.5183)">
                <g transform="matrix(1.14159,0,0,1.14159,-987.049,-480.756)">
                    <circle cx="1035" cy="637" r="113" style="fill:rgb(40,206,142);"/>
                </g>
                <g transform="matrix(1,0,0,1,-840.5,-390.561)">
                    <circle cx="1035" cy="637" r="113" style="fill:rgb(14,71,49);"/>
                </g>
                <g transform="matrix(0.955212,0,0,0.955212,69.4998,119.068)">
                    <path d="M186.377,94.198L186.377,160.424C186.377,183.243 184.708,194.188 179.699,203.649C175.06,212.741 168.938,218.491 156.324,224.799L129.795,212.184C142.41,206.248 148.532,201.055 152.427,193.075C156.509,184.913 157.809,175.451 157.809,150.593L157.809,94.198L186.377,94.198ZM140.928,50.079L140.928,182.317C126.273,185.099 115.513,186.212 103.826,186.212C68.949,186.212 50.769,170.445 50.769,140.205C50.769,111.079 70.063,92.158 99.93,92.158C104.567,92.158 108.092,92.528 112.359,93.641L112.359,50.079L140.928,50.079ZM102.713,115.16C88.243,115.16 79.894,124.065 79.894,139.647C79.894,154.861 87.872,163.208 102.528,163.208C105.68,163.208 108.278,163.023 112.359,162.467L112.359,116.643C109.02,115.531 106.238,115.16 102.713,115.16ZM186.377,50.231L186.377,79.542L157.809,79.542L157.809,50.231L186.377,50.231Z" style="fill:white;fill-rule:nonzero;"/>
                </g>
            </g>
        </g>
        <g transform="matrix(1,0,0,1,185.276,127.435)">
            <g transform="matrix(0.450602,0,0,0.450602,-431.708,-222.285)">
                <g transform="matrix(46.0695,0,0,46.0695,867,479)">
                    <path d="M0.418,-0.261L0.339,-0.502L0.26,-0.261L0.418,-0.261ZM0.679,-0L0.504,-0L0.47,-0.105L0.209,-0.105L0.175,-0L0,-0L0.238,-0.68L0.441,-0.68L0.679,-0Z" style="fill:white;fill-rule:nonzero;"/>
                </g>
                <g transform="matrix(46.0695,0,0,46.0695,901.665,479)">
                    <path d="M0.269,-0.12C0.338,-0.12 0.377,-0.16 0.388,-0.239C0.388,-0.312 0.348,-0.351 0.269,-0.357C0.2,-0.357 0.16,-0.318 0.15,-0.239C0.15,-0.166 0.19,-0.126 0.269,-0.12ZM0.15,0.291L0,0.291L0,-0.495L0.15,-0.495L0.15,-0.436C0.182,-0.475 0.232,-0.495 0.299,-0.495C0.364,-0.495 0.42,-0.47 0.467,-0.421C0.514,-0.372 0.538,-0.311 0.538,-0.239C0.538,-0.167 0.514,-0.106 0.467,-0.056C0.42,-0.007 0.364,0.018 0.299,0.018C0.232,0.018 0.182,-0.002 0.15,-0.042L0.15,0.291Z" style="fill:white;fill-rule:nonzero;"/>
                </g>
                <g transform="matrix(46.0695,0,0,46.0695,929.806,479)">
                    <path d="M0.15,-0L0,-0L0,-0.496L0.15,-0.496L0.15,-0.399C0.161,-0.432 0.181,-0.456 0.209,-0.472C0.238,-0.488 0.268,-0.496 0.3,-0.496L0.3,-0.331C0.291,-0.332 0.282,-0.333 0.273,-0.333C0.191,-0.333 0.15,-0.295 0.15,-0.22L0.15,-0Z" style="fill:white;fill-rule:nonzero;"/>
                </g>
                <g transform="matrix(46.0695,0,0,46.0695,945.305,479)">
                    <path d="M0.371,-0.306C0.362,-0.334 0.348,-0.354 0.328,-0.365C0.308,-0.377 0.287,-0.383 0.265,-0.383C0.208,-0.383 0.171,-0.357 0.156,-0.306L0.371,-0.306ZM0.277,0.001C0.106,0.001 0.014,-0.084 0,-0.255C0,-0.328 0.025,-0.389 0.074,-0.438C0.123,-0.488 0.187,-0.512 0.266,-0.512C0.339,-0.512 0.399,-0.488 0.447,-0.439C0.495,-0.39 0.52,-0.329 0.52,-0.255C0.52,-0.235 0.517,-0.216 0.513,-0.197L0.159,-0.197C0.184,-0.152 0.224,-0.129 0.279,-0.129C0.32,-0.129 0.352,-0.142 0.375,-0.166L0.495,-0.099C0.444,-0.032 0.372,0.001 0.277,0.001Z" style="fill:white;fill-rule:nonzero;"/>
                </g>
                <g transform="matrix(46.0695,0,0,46.0695,972.613,479)">
                    <path d="M0.479,0.004L0.33,0.004L0.33,-0.273C0.33,-0.332 0.302,-0.361 0.246,-0.361L0.243,-0.361C0.188,-0.361 0.157,-0.328 0.15,-0.261L0.15,0.004L0,0.004L0,-0.495L0.15,-0.495L0.15,-0.436C0.179,-0.475 0.227,-0.495 0.292,-0.495C0.343,-0.495 0.387,-0.478 0.424,-0.444C0.461,-0.41 0.479,-0.36 0.479,-0.294L0.479,0.004Z" style="fill:white;fill-rule:nonzero;"/>
                </g>
                <g transform="matrix(46.0695,0,0,46.0695,998.078,479)">
                    <path d="M0.269,-0.137C0.338,-0.137 0.377,-0.177 0.387,-0.255C0.387,-0.328 0.348,-0.368 0.269,-0.374C0.2,-0.374 0.16,-0.334 0.15,-0.255C0.15,-0.183 0.189,-0.143 0.269,-0.137ZM0.239,0.001C0.173,0.001 0.117,-0.024 0.07,-0.073C0.023,-0.122 0,-0.183 0,-0.255C0,-0.328 0.023,-0.389 0.07,-0.438C0.117,-0.488 0.173,-0.512 0.239,-0.512C0.306,-0.512 0.355,-0.492 0.387,-0.453L0.387,-0.798L0.537,-0.798L0.537,-0L0.387,-0L0.387,-0.058C0.355,-0.019 0.306,0.001 0.239,0.001Z" style="fill:white;fill-rule:nonzero;"/>
                </g>
                <g transform="matrix(46.0695,0,0,46.0695,1026.2,479)">
                    <path d="M0.371,-0.306C0.362,-0.334 0.348,-0.354 0.328,-0.365C0.308,-0.377 0.287,-0.383 0.265,-0.383C0.208,-0.383 0.171,-0.357 0.156,-0.306L0.371,-0.306ZM0.277,0.001C0.106,0.001 0.014,-0.084 0,-0.255C0,-0.328 0.025,-0.389 0.074,-0.438C0.123,-0.488 0.187,-0.512 0.266,-0.512C0.339,-0.512 0.399,-0.488 0.447,-0.439C0.495,-0.39 0.52,-0.329 0.52,-0.255C0.52,-0.235 0.517,-0.216 0.513,-0.197L0.159,-0.197C0.184,-0.152 0.224,-0.129 0.279,-0.129C0.32,-0.129 0.352,-0.142 0.375,-0.166L0.495,-0.099C0.444,-0.032 0.372,0.001 0.277,0.001Z" style="fill:white;fill-rule:nonzero;"/>
                </g>
            </g>
        </g>
    </g>
</svg>
