<?xml version="1.0" encoding="UTF-8" standalone="no"?>
<!DOCTYPE svg PUBLIC "-//W3C//DTD SVG 1.1//EN" "http://www.w3.org/Graphics/SVG/1.1/DTD/svg11.dtd">
<svg width="400px" height="306px" version="1.1" xmlns="http://www.w3.org/2000/svg" xmlns:xlink="http://www.w3.org/1999/xlink" xml:space="preserve" xmlns:serif="http://www.serif.com/" style="fill-rule:evenodd;clip-rule:evenodd;stroke-linejoin:round;stroke-miterlimit:2;">
    <g transform="matrix(1,0,0,1,0,-45.06)">
        <g transform="matrix(0.8,0,0,0.8,0,9.012)">
            <rect x="0" y="382.4" width="500" height="0.25" style="fill:rgb(235,235,235);"/>
            <rect x="416.78" y="398.49" width="33.12" height="0.25" style="fill:rgb(235,235,235);"/>
            <rect x="322.53" y="401.21" width="8.69" height="0.25" style="fill:rgb(235,235,235);"/>
            <rect x="368.11" y="389.21" width="47.67" height="0.25" style="fill:rgb(235,235,235);"/>
            <rect x="52.46" y="390.89" width="23.68" height="0.25" style="fill:rgb(235,235,235);"/>
            <rect x="85.04" y="390.89" width="25.85" height="0.25" style="fill:rgb(235,235,235);"/>
            <rect x="131.47" y="395.11" width="64.64" height="0.25" style="fill:rgb(235,235,235);"/>
            <path d="M237,337.8L43.91,337.8C40.781,337.795 38.21,335.219 38.21,332.09L38.21,60.66C38.237,57.55 40.8,55.005 43.91,55L237,55C240.132,55 242.71,57.578 242.71,60.71L242.71,332.09C242.71,335.222 240.132,337.8 237,337.8ZM43.91,55.2C40.919,55.205 38.46,57.669 38.46,60.66L38.46,332.09C38.46,335.081 40.919,337.545 43.91,337.55L237,337.55C239.993,337.545 242.455,335.083 242.46,332.09L242.46,60.66C242.455,57.667 239.993,55.205 237,55.2L43.91,55.2Z" style="fill:rgb(235,235,235);fill-rule:nonzero;"/>
            <path d="M453.31,337.8L260.21,337.8C257.08,337.795 254.505,335.22 254.5,332.09L254.5,60.66C254.533,57.549 257.098,55.005 260.21,55L453.31,55C456.416,55.011 458.973,57.554 459,60.66L459,332.09C459,335.215 456.435,337.789 453.31,337.8ZM260.21,55.2C257.217,55.205 254.755,57.667 254.75,60.66L254.75,332.09C254.755,335.083 257.217,337.545 260.21,337.55L453.31,337.55C456.303,337.545 458.765,335.083 458.77,332.09L458.77,60.66C458.765,57.667 456.303,55.205 453.31,55.2L260.21,55.2Z" style="fill:rgb(235,235,235);fill-rule:nonzero;"/>
            <path d="M434.33,328.26C431.15,308.26 320.63,316.72 250.33,328.26C180.03,339.8 71.09,314.71 66.33,328.26C61.57,341.81 66.33,356.37 66.33,356.37L434.33,356.37C434.33,356.37 437.52,348.27 434.33,328.26Z" style="fill:rgb(250,250,250);fill-rule:nonzero;"/>
            <rect x="121.79" y="351.15" width="311.83" height="10.45" style="fill:rgb(224,224,224);"/>
            <rect x="110.17" y="166.08" width="335.07" height="10.45" style="fill:rgb(224,224,224);"/>
            <rect x="400.09" y="171.3" width="10.45" height="185.07" style="fill:rgb(224,224,224);"/>
            <rect x="428.39" y="171.3" width="10.45" height="211.1" style="fill:rgb(224,224,224);"/>
            <rect x="61.64" y="171.3" width="10.45" height="211.1" style="fill:rgb(240,240,240);"/>
            <rect x="66.38" y="351.15" width="311.83" height="10.45" style="fill:rgb(240,240,240);"/>
            <rect x="54.76" y="166.08" width="335.07" height="10.45" style="fill:rgb(240,240,240);"/>
            <rect x="89.95" y="171.3" width="10.45" height="185.07" style="fill:rgb(240,240,240);"/>
            <rect x="118.25" y="171.3" width="10.45" height="185.07" style="fill:rgb(240,240,240);"/>
            <rect x="146.55" y="171.3" width="10.45" height="185.07" style="fill:rgb(240,240,240);"/>
            <rect x="174.86" y="171.3" width="10.45" height="185.07" style="fill:rgb(240,240,240);"/>
            <rect x="203.16" y="171.3" width="10.45" height="185.07" style="fill:rgb(240,240,240);"/>
            <rect x="231.47" y="171.3" width="10.45" height="185.07" style="fill:rgb(240,240,240);"/>
            <rect x="259.77" y="171.3" width="10.45" height="185.07" style="fill:rgb(240,240,240);"/>
            <rect x="288.07" y="171.3" width="10.45" height="185.07" style="fill:rgb(240,240,240);"/>
            <rect x="316.38" y="171.3" width="10.45" height="185.07" style="fill:rgb(240,240,240);"/>
            <rect x="344.68" y="171.3" width="10.45" height="185.07" style="fill:rgb(240,240,240);"/>
            <rect x="372.98" y="171.3" width="10.45" height="211.1" style="fill:rgb(240,240,240);"/>
            <rect x="136.02" y="45.06" width="89.65" height="89.65" style="fill:rgb(235,235,235);"/>
            <rect x="145.66" y="54.71" width="70.36" height="70.36" style="fill:rgb(250,250,250);"/>
            <g transform="matrix(-1,-7.65714e-16,7.65714e-16,-1,457.97,179.77)">
                <rect x="225.67" y="45.06" width="6.63" height="89.65" style="fill:rgb(224,224,224);"/>
            </g>
            <circle cx="164.46" cy="80.84" r="8.64" style="fill:rgb(240,240,240);"/>
            <circle cx="184.7" cy="69.85" r="6.97" style="fill:rgb(240,240,240);"/>
            <g transform="matrix(0.755396,-0.655268,0.655268,0.755396,-30.02,140.38)">
                <circle cx="173" cy="110.39" r="8.64" style="fill:rgb(240,240,240);"/>
            </g>
            <path d="M198.05,86.45C199.487,88.327 200.266,90.626 200.266,92.99C200.266,98.893 195.408,103.75 189.506,103.75C183.603,103.75 178.746,98.893 178.746,92.99C178.746,89.645 180.305,86.485 182.96,84.45C184.838,83.008 187.14,82.226 189.508,82.226C192.855,82.226 196.018,83.79 198.05,86.45Z" style="fill:rgb(240,240,240);fill-rule:nonzero;"/>
            <rect x="266.75" y="63.33" width="89.65" height="89.65" style="fill:rgb(240,240,240);"/>
            <rect x="276.4" y="72.98" width="70.36" height="70.36" style="fill:rgb(250,250,250);"/>
            <g transform="matrix(-1,-7.65714e-16,7.65714e-16,-1,719.44,216.32)">
                <rect x="356.4" y="63.33" width="6.63" height="89.65" style="fill:rgb(230,230,230);"/>
            </g>
            <circle cx="305.96" cy="119.4" r="5.44" style="fill:rgb(235,235,235);"/>
            <path d="M294.46,109C294.46,111.408 292.478,113.39 290.07,113.39C287.662,113.39 285.68,111.408 285.68,109C285.68,106.592 287.662,104.61 290.07,104.61C290.073,104.61 290.08,104.61 290.08,104.61C292.483,104.61 294.46,106.587 294.46,108.99C294.46,108.993 294.46,108.997 294.46,109Z" style="fill:rgb(235,235,235);fill-rule:nonzero;"/>
            <g transform="matrix(0.565687,-0.82462,0.82462,0.565687,23.14,299.7)">
                <circle cx="296.07" cy="127.89" r="5.44" style="fill:rgb(235,235,235);"/>
            </g>
            <path d="M313.17,99.39C314.077,100.573 314.569,102.024 314.569,103.515C314.569,107.235 311.509,110.295 307.789,110.295C304.07,110.295 301.009,107.235 301.009,103.515C301.009,101.405 301.994,99.412 303.67,98.13C306.622,95.872 310.909,96.44 313.17,99.39Z" style="fill:rgb(235,235,235);fill-rule:nonzero;"/>
            <path d="M327.05,96.62C329.524,97.176 331.297,99.392 331.297,101.927C331.297,104.912 328.841,107.367 325.857,107.367C322.872,107.367 320.417,104.912 320.417,101.927C320.417,101.525 320.461,101.123 320.55,100.73C321.207,97.82 324.14,95.966 327.05,96.62Z" style="fill:rgb(235,235,235);fill-rule:nonzero;"/>
            <g transform="matrix(0.845355,-0.534205,0.534205,0.845355,-15.42,191.63)">
                <circle cx="323.25" cy="122.44" r="4.39" style="fill:rgb(235,235,235);"/>
            </g>
            <path d="M335.66,84.94C336.375,84.61 337.152,84.44 337.939,84.44C340.923,84.44 343.379,86.895 343.379,89.88C343.379,92.864 340.923,95.32 337.939,95.32C335.821,95.32 333.888,94.083 333,92.16C332.67,91.445 332.499,90.667 332.499,89.88C332.499,87.761 333.736,85.827 335.66,84.94Z" style="fill:rgb(235,235,235);fill-rule:nonzero;"/>
            <path d="M313.63,80.57C314.519,80.161 315.487,79.948 316.466,79.948C320.185,79.948 323.246,83.009 323.246,86.728C323.246,90.448 320.185,93.508 316.466,93.508C313.826,93.508 311.416,91.967 310.31,89.57C309.897,88.678 309.683,87.707 309.683,86.724C309.683,84.082 311.229,81.671 313.63,80.57Z" style="fill:rgb(235,235,235);fill-rule:nonzero;"/>
            <circle cx="98.94" cy="334.32" r="48.08" style="fill:rgb(224,224,224);"/>
            <g transform="matrix(0.707107,-0.707107,0.707107,0.707107,-195.33,217.15)">
                <circle cx="164.46" cy="344.36" r="38.04" style="fill:rgb(235,235,235);"/>
            </g>
            <circle cx="455.61" cy="362.54" r="19.86" style="fill:rgb(235,235,235);"/>
            <ellipse id="freepik--path--inject-8" cx="250" cy="416.24" rx="193.89" ry="11.32" style="fill:rgb(245,245,245);"/>
            <path d="M304.93,337.19C304.93,337.19 314.98,373.77 328.68,401.11C338.01,419.75 398.68,411.11 398.68,411.11L390.16,395C390.16,395 377.98,387.84 358.53,387.76C360.53,324.18 312.1,316.14 312.1,316.14L304.93,337.19Z" style="fill-rule:nonzero;"/>
            <path d="M416.28,402.08C409.82,400.28 408.59,399.92 403.43,394.42C398.27,388.92 392.31,392.62 389.19,395.23C389.19,395.23 390.06,405.74 396.51,411.08C408.28,410.38 415.99,410.42 426.36,411.89C434,411.89 422.73,403.88 416.28,402.08Z" style="fill-rule:nonzero;"/>
            <path d="M259.35,332.91L259.15,333.68L259,334.2L258.73,335.09C258.54,335.69 258.36,336.17 258.17,336.71C257.78,337.71 257.38,338.71 256.95,339.62C256.52,340.53 256.09,341.46 255.62,342.33C255.15,343.2 254.62,344.06 254.17,344.91C252.203,348.171 249.958,351.255 247.46,354.13C245.045,356.916 242.424,359.516 239.62,361.91C238.95,362.53 238.24,363.09 237.54,363.66C236.84,364.23 236.13,364.79 235.41,365.34C233.97,366.4 232.49,367.41 231.03,368.43L230.26,368.98C230.11,369.08 229.95,369.18 229.8,369.26C227.565,370.405 225.22,371.32 222.8,371.99C220.706,372.593 218.579,373.077 216.43,373.44C212.458,374.076 208.45,374.457 204.43,374.58C202.48,374.63 200.54,374.63 198.61,374.58C196.68,374.53 194.76,374.43 192.85,374.32C189.012,374.088 185.19,373.647 181.4,373C178.408,372.47 176.207,369.845 176.207,366.806C176.207,363.858 178.279,361.286 181.16,360.66L181.37,360.66L191.75,358.39C195.2,357.63 198.61,356.85 201.93,355.98C203.58,355.54 205.21,355.12 206.8,354.64C208.39,354.16 209.93,353.64 211.41,353.14C212.89,352.64 214.27,352.05 215.51,351.46C216.565,350.987 217.569,350.411 218.51,349.74L217.28,350.57C218.28,349.57 219.28,348.64 220.28,347.67C221.28,346.7 222.28,345.73 223.12,344.67C223.96,343.61 224.95,342.67 225.76,341.62C226.57,340.57 227.43,339.56 228.23,338.52C229.735,336.478 231.128,334.355 232.4,332.16C233.01,331.16 233.56,330.03 234.05,329.03C234.32,328.52 234.51,328.03 234.71,327.58C234.8,327.37 234.92,327.12 234.98,326.96L235.08,326.73L235.08,326.68C235.08,326.68 235.08,326.62 235.08,326.68L235.08,326.87C236.332,321.153 241.439,317.044 247.291,317.044C254.148,317.044 259.791,322.686 259.791,329.544C259.791,330.668 259.639,331.786 259.34,332.87L259.35,332.91Z" style="fill:rgb(255,139,123);fill-rule:nonzero;"/>
            <path d="M188.91,362.3L183.37,356.59L171.45,366.27C171.45,366.27 180.06,376.4 185.92,372.76L188.91,362.3Z" style="fill:rgb(255,139,123);fill-rule:nonzero;"/>
            <path d="M171.98,352.57L165.5,361.5L171.45,366.27L183.37,356.59L171.98,352.57Z" style="fill:rgb(255,139,123);fill-rule:nonzero;"/>
            <path d="M308,315.71C292.7,314.93 263.33,313.71 240.86,308.93C240.04,309.68 239.25,310.45 238.5,311.26C215.77,335.61 231.77,375.64 264.94,378.66C280.38,380.07 298.6,381.16 317.53,381.1C332.3,381.1 342.99,372.85 344.11,360.64L344.53,356.14C346.28,337.27 331.17,316.89 308,315.71Z" style="fill:rgb(64,123,255);fill-rule:nonzero;"/>
            <path d="M308,315.71L317.53,381.1C332.3,381.1 342.99,372.84 344.11,360.64L344.53,356.14C346.28,337.27 331.17,316.89 308,315.71Z" style="fill:rgb(38,50,56);fill-rule:nonzero;"/>
            <path d="M240.93,294.93C248.23,308.98 250.32,309.37 256.83,312.32C256.83,312.32 268.42,313.43 250.58,332.65C231,353.79 233.5,335 233.5,335C233,324.33 216.02,319 216.56,315.94L232.34,295.71C232.981,293.795 234.786,292.496 236.806,292.496C238.519,292.496 240.102,293.43 240.93,294.93Z" style="fill:rgb(255,139,123);fill-rule:nonzero;"/>
            <path d="M240.93,294.93C240.108,293.42 238.521,292.477 236.802,292.477C234.792,292.477 232.994,293.766 232.35,295.67L216.56,315.9C216.17,318.12 225.08,321.56 230.14,327.4C237.6,320.4 239.44,311.13 242.27,297.47L240.93,294.93Z" style="fill-opacity:0.3;fill-rule:nonzero;"/>
            <path d="M283.8,333L284.16,334.14L284.39,334.96C284.54,335.51 284.65,335.96 284.78,336.49C285,337.49 285.19,338.43 285.35,339.36C285.7,341.24 285.89,343.07 286.07,344.88C286.38,348.434 286.457,352.005 286.3,355.57C286.155,359.046 285.821,362.511 285.3,365.95C285.06,367.65 284.77,369.34 284.46,371.02L283.38,376.02L283.14,377.14C283.116,377.248 283.086,377.355 283.05,377.46C282.218,379.815 281.149,382.08 279.86,384.22C278.746,386.097 277.527,387.91 276.21,389.65C273.743,392.84 271.07,395.867 268.21,398.71C266.81,400.09 265.4,401.42 263.99,402.71C262.58,404 261.08,405.24 259.62,406.47C256.654,408.93 253.556,411.227 250.34,413.35C249.317,414.018 248.121,414.374 246.899,414.374C243.449,414.374 240.609,411.535 240.609,408.084C240.609,406.816 240.993,405.577 241.71,404.53L241.83,404.36L247.83,395.59C249.83,392.67 251.77,389.76 253.59,386.86C254.49,385.41 255.39,383.98 256.22,382.54C257.05,381.1 257.82,379.67 258.54,378.28C259.26,376.89 259.88,375.53 260.38,374.28C260.821,373.208 261.155,372.097 261.38,370.96L261.04,372.41L261.31,368.1C261.31,366.66 261.46,365.24 261.48,363.82C261.5,362.4 261.54,360.99 261.48,359.6C261.42,358.21 261.48,356.81 261.42,355.42C261.29,352.67 261.16,349.95 260.86,347.34C260.72,346.04 260.54,344.75 260.36,343.54C260.28,342.92 260.16,342.35 260.07,341.79L259.93,341.03L259.86,340.71L259.86,340.62C259.86,340.62 259.86,340.57 259.86,340.62L259.86,340.76C259.454,339.507 259.247,338.197 259.247,336.88C259.247,329.977 264.927,324.297 271.83,324.297C277.27,324.297 282.123,327.825 283.8,333Z" style="fill:rgb(255,139,123);fill-rule:nonzero;"/>
            <path d="M248.55,400.39L240.61,400.03L238.61,415.25C238.61,415.25 251.82,416.72 253.61,410.06L248.55,400.39Z" style="fill:rgb(255,139,123);fill-rule:nonzero;"/>
            <path d="M229.55,404.92L222.55,415.04L238.57,415.25L240.61,400.03L229.55,404.92Z" style="fill:rgb(255,139,123);fill-rule:nonzero;"/>
            <path d="M252.08,281.76C248.14,300.23 246.9,311.25 234.94,319.32C216.94,331.46 192.27,319.24 189.94,299.91C187.81,282.51 194.6,255.22 216.2,250.71C237.44,246.27 256,263.28 252.08,281.76Z" style="fill:rgb(255,139,123);fill-rule:nonzero;"/>
            <path d="M219.71,277.09C219.558,277 219.438,276.863 219.37,276.7C218.546,274.697 216.806,273.207 214.7,272.7C214.289,272.628 213.987,272.267 213.987,271.85C213.987,271.376 214.376,270.987 214.85,270.987C214.9,270.987 214.95,270.991 215,271C217.674,271.604 219.894,273.47 220.95,276C221.138,276.425 220.944,276.93 220.52,277.12C220.262,277.246 219.958,277.234 219.71,277.09Z" style="fill:rgb(38,50,56);fill-rule:nonzero;"/>
            <path d="M198.2,296.93C198.369,296.875 198.551,296.875 198.72,296.93C202.33,298.09 207.13,296.39 207.16,296.37C207.31,296.248 207.498,296.181 207.691,296.181C207.948,296.181 208.191,296.299 208.35,296.5C208.642,296.863 208.588,297.402 208.23,297.7C208.1,297.8 202.67,299.99 198.23,298.55C197.879,298.438 197.639,298.109 197.639,297.74C197.639,297.652 197.653,297.564 197.68,297.48C197.756,297.225 197.949,297.02 198.2,296.93Z" style="fill:rgb(38,50,56);fill-rule:nonzero;"/>
            <path d="M202.36,264.48C202.183,264.5 202.003,264.473 201.84,264.4C199.934,263.375 197.647,263.327 195.7,264.27C195.563,264.358 195.403,264.405 195.24,264.405C194.774,264.405 194.39,264.022 194.39,263.555C194.39,263.238 194.568,262.946 194.85,262.8C197.29,261.565 200.186,261.595 202.6,262.88C202.893,263.019 203.081,263.315 203.081,263.64C203.081,263.764 203.054,263.887 203,264C202.879,264.255 202.639,264.435 202.36,264.48Z" style="fill:rgb(38,50,56);fill-rule:nonzero;"/>
            <path d="M198.75,279.84C198.75,279.84 193.75,282.92 191.23,286.1C192.418,287.454 194.035,288.362 195.81,288.67L198.75,279.84Z" style="fill:rgb(255,86,82);fill-rule:nonzero;"/>
            <path d="M212,280.88C211.7,282.97 210.35,284.51 209,284.31C207.65,284.11 206.77,282.31 207.07,280.18C207.37,278.05 208.71,276.56 210.07,276.75C211.43,276.94 212.26,278.8 212,280.88Z" style="fill:rgb(38,50,56);fill-rule:nonzero;"/>
            <path d="M195.15,276.77C194.86,278.86 193.51,280.39 192.15,280.2C190.79,280.01 189.93,278.2 190.22,276.07C190.51,273.94 191.86,272.45 193.22,272.64C194.58,272.83 195.45,274.69 195.15,276.77Z" style="fill:rgb(38,50,56);fill-rule:nonzero;"/>
            <path d="M252.67,301.32C248.562,304.106 243.613,305.382 238.67,304.93C232.37,304.24 236.98,295.59 240.31,290.19C242.876,286.056 248.353,284.712 252.54,287.19C257.51,290.07 257.78,297.85 252.67,301.32Z" style="fill:rgb(255,139,123);fill-rule:nonzero;"/>
            <path d="M221.83,251.67C213.75,250.79 216.05,241.56 216.5,239.44C217.72,244.28 229.06,250.58 229.06,250.58C229.06,250.58 226.93,252.22 221.83,251.67Z" style="fill:rgb(255,139,123);fill-rule:nonzero;"/>
            <path d="M221.77,252.16C219.8,252.064 217.97,251.105 216.77,249.54C214.49,246.38 215.55,241.45 215.95,239.59L216.01,239.34L217.01,239.55L216.95,239.81C216.58,241.54 215.58,246.16 217.6,248.95C218.639,250.283 220.212,251.095 221.9,251.17L221.77,252.16Z" style="fill:rgb(38,50,56);fill-rule:nonzero;"/>
            <path d="M227,252.39C219.19,250.16 223,241.45 223.82,239.44C224.2,244.44 234.69,252.22 234.69,252.22C234.69,252.22 232,253.81 227,252.39Z" style="fill:rgb(255,139,123);fill-rule:nonzero;"/>
            <path d="M308,315.71C308,315.71 298.79,376.21 299.44,404.91C299.89,424.48 361.89,415.39 361.89,415.39L361.06,398.49C361.06,398.49 349.22,384.74 335.66,390.89C340.417,382.258 343.197,372.677 343.8,362.84L308,315.71Z" style="fill:rgb(38,50,56);fill-rule:nonzero;"/>
            <path d="M358.55,398.74C362.33,396 369.22,392.11 373,397.89C376.78,403.67 379.66,406.33 385.66,408.22C391.66,410.11 402.78,416.22 395.11,416.22C387.44,416.22 368.89,413.87 361.89,415.37C356.78,409.78 358.55,398.74 358.55,398.74Z" style="fill:rgb(38,50,56);fill-rule:nonzero;"/>
            <ellipse cx="132.26" cy="312.51" rx="43.39" ry="37.92" style="fill:rgb(64,123,255);"/>
            <ellipse cx="103.91" cy="277.21" rx="12.28" ry="10.73" style="fill:rgb(64,123,255);"/>
            <ellipse cx="160.6" cy="277.21" rx="12.28" ry="10.73" style="fill:rgb(64,123,255);"/>
            <ellipse cx="132.26" cy="367.18" rx="55" ry="48.07" style="fill:rgb(64,123,255);"/>
            <g opacity="0.2">
                <path d="M77.26,367.18L77.26,368.74C89.57,359.93 97.43,346.53 97.43,331.54L97.43,329.99C85.12,338.8 77.26,352.19 77.26,367.18Z" style="fill:rgb(38,50,56);fill-rule:nonzero;"/>
                <path d="M167.09,330L167.09,331.55C167.09,346.55 174.95,359.94 187.26,368.75L187.26,367.19C187.26,352.19 179.4,338.8 167.09,330Z" style="fill:rgb(38,50,56);fill-rule:nonzero;"/>
            </g>
            <ellipse cx="132.26" cy="372.91" rx="38.83" ry="33.26" style="fill:white;fill-opacity:0.4;"/>
            <ellipse cx="132.26" cy="306.37" rx="18.97" ry="16.58" style="fill:white;fill-opacity:0.4;"/>
            <ellipse cx="107.56" cy="294.79" rx="5.72" ry="5" style="fill:white;fill-opacity:0.2;"/>
            <ellipse cx="156.95" cy="294.79" rx="5.72" ry="5" style="fill:white;fill-opacity:0.2;"/>
            <circle cx="121.64" cy="290.11" r="3.53" style="fill:rgb(38,50,56);"/>
            <path d="M139.38,290.11C139.38,288.174 140.974,286.58 142.91,286.58C144.847,286.58 146.44,288.174 146.44,290.11C146.44,292.047 144.847,293.64 142.91,293.64C142.907,293.64 142.9,293.64 142.9,293.64C140.969,293.64 139.38,292.051 139.38,290.12C139.38,290.117 139.38,290.113 139.38,290.11Z" style="fill:rgb(38,50,56);fill-rule:nonzero;"/>
            <path d="M133.61,299.58L136.87,295.77C137.14,295.448 137.288,295.04 137.288,294.62C137.288,293.642 136.488,292.836 135.51,292.83L129,292.83C128.024,292.83 127.22,293.634 127.22,294.61C127.22,295.036 127.373,295.447 127.65,295.77L130.9,299.58C131.24,299.974 131.735,300.2 132.255,300.2C132.775,300.2 133.27,299.974 133.61,299.58Z" style="fill:rgb(38,50,56);fill-rule:nonzero;"/>
            <path d="M135,341L118,329.49C117.53,329.172 116.976,329.002 116.408,329.002C114.982,329.002 113.767,330.075 113.59,331.49L111.78,344.97C111.763,345.094 111.755,345.22 111.755,345.345C111.755,346.903 113.037,348.185 114.595,348.185C114.921,348.185 115.244,348.129 115.55,348.02L135,341Z" style="fill:white;fill-rule:nonzero;"/>
            <path d="M128.94,341.55L146.77,331.37C147.2,331.122 147.687,330.992 148.183,330.992C149.686,330.992 150.94,332.189 151.01,333.69L151.7,347.27C151.702,347.316 151.703,347.363 151.703,347.409C151.703,348.967 150.421,350.249 148.863,350.249C148.462,350.249 148.066,350.164 147.7,350L128.94,341.55Z" style="fill:white;fill-rule:nonzero;"/>
            <path d="M124.06,308.41L124.06,307.41C128.282,307.405 131.755,303.932 131.76,299.71L132.76,299.71C132.755,304.481 128.831,308.405 124.06,308.41Z" style="fill:rgb(38,50,56);fill-rule:nonzero;"/>
            <path d="M140.46,308.41C135.689,308.405 131.765,304.481 131.76,299.71L132.76,299.71C132.76,303.934 136.236,307.41 140.46,307.41L140.46,308.41Z" style="fill:rgb(38,50,56);fill-rule:nonzero;"/>
            <path d="M132.64,347.48L132.17,347.48C128.632,347.469 125.725,344.558 125.72,341.02C125.731,337.486 128.636,334.581 132.17,334.57L132.64,334.57C136.17,334.575 139.078,337.47 139.1,341C139.1,344.547 136.187,347.469 132.64,347.48Z" style="fill:white;fill-rule:nonzero;"/>
            <g transform="matrix(0.707107,-0.707107,0.707107,0.707107,-251.59,180.96)">
                <ellipse cx="92.64" cy="394.18" rx="18.99" ry="21.05" style="fill:rgb(64,123,255);"/>
            </g>
            <g transform="matrix(0.707107,-0.707107,0.707107,0.707107,-256.2,181.3)">
                <ellipse cx="90.75" cy="399.91" rx="11.01" ry="12.86" style="fill:rgb(38,50,56);fill-opacity:0.4;"/>
            </g>
            <path d="M97.13,386.27C96.607,386.988 95.771,387.414 94.882,387.414C93.357,387.414 92.102,386.159 92.102,384.634C92.102,383.109 93.357,381.854 94.882,381.854C95.62,381.854 96.329,382.148 96.85,382.67C97.906,383.585 98.032,385.202 97.13,386.27Z" style="fill:rgb(38,50,56);fill-opacity:0.4;fill-rule:nonzero;"/>
            <path d="M87.08,385.31C86.572,385.758 85.918,386.006 85.24,386.006C83.715,386.006 82.46,384.751 82.46,383.226C82.46,381.701 83.715,380.446 85.24,380.446C86.193,380.446 87.081,380.935 87.59,381.74C88.418,382.862 88.189,384.464 87.08,385.31Z" style="fill:rgb(38,50,56);fill-opacity:0.4;fill-rule:nonzero;"/>
            <path d="M80.65,389.41C80.308,390.597 79.214,391.421 77.978,391.421C76.453,391.421 75.198,390.166 75.198,388.641C75.198,387.116 76.453,385.861 77.978,385.861C78.383,385.861 78.783,385.949 79.15,386.12C80.459,386.617 81.133,388.096 80.65,389.41Z" style="fill:rgb(38,50,56);fill-opacity:0.4;fill-rule:nonzero;"/>
            <g transform="matrix(0.707107,-0.707107,0.707107,0.707107,-228.38,236.98)">
                <ellipse cx="171.88" cy="394.18" rx="21.05" ry="18.99" style="fill:rgb(64,123,255);"/>
            </g>
            <g transform="matrix(0.707107,-0.707107,0.707107,0.707107,-231.89,240)">
                <ellipse cx="173.76" cy="399.91" rx="12.86" ry="11.01" style="fill:rgb(38,50,56);fill-opacity:0.4;"/>
            </g>
            <path d="M167.38,386.27C167.903,386.988 168.739,387.414 169.628,387.414C171.153,387.414 172.408,386.159 172.408,384.634C172.408,383.109 171.153,381.854 169.628,381.854C168.89,381.854 168.181,382.148 167.66,382.67C166.609,383.588 166.484,385.201 167.38,386.27Z" style="fill:rgb(38,50,56);fill-opacity:0.4;fill-rule:nonzero;"/>
            <g transform="matrix(0.535827,-0.844328,0.844328,0.535827,-240.33,328.82)">
                <ellipse cx="178.91" cy="383" rx="2.74" ry="2.35" style="fill:rgb(38,50,56);fill-opacity:0.4;"/>
            </g>
            <path d="M183.86,389.41C184.202,390.597 185.296,391.421 186.532,391.421C188.057,391.421 189.312,390.166 189.312,388.641C189.312,387.116 188.057,385.861 186.532,385.861C186.127,385.861 185.727,385.949 185.36,386.12C184.055,386.621 183.382,388.096 183.86,389.41Z" style="fill:rgb(38,50,56);fill-opacity:0.4;fill-rule:nonzero;"/>
            <path d="M97.47,342C95.834,342.921 94.288,343.993 92.85,345.2C91.305,346.473 89.854,347.857 88.51,349.34C87.196,350.765 85.999,352.293 84.93,353.91C84.067,355.158 83.415,356.54 83,358C82.049,362.784 77.813,366.262 72.935,366.262C67.306,366.262 62.673,361.629 62.673,356C62.673,355.329 62.739,354.659 62.87,354C63.092,352.853 63.512,351.754 64.11,350.75L65.11,349.18C66.794,346.419 68.861,343.91 71.25,341.73C73.307,339.805 75.51,338.043 77.84,336.46C80.111,334.9 82.491,333.503 84.96,332.28C87.518,330.994 90.198,329.966 92.96,329.21C93.505,329.072 94.066,329.002 94.628,329.002C98.358,329.002 101.428,332.072 101.428,335.802C101.428,338.256 100.099,340.527 97.96,341.73L97.47,342Z" style="fill:rgb(64,123,255);fill-rule:nonzero;"/>
            <path d="M171.6,329.17C174.38,329.919 177.077,330.948 179.65,332.24C182.124,333.461 184.507,334.858 186.78,336.42C189.108,338.006 191.311,339.768 193.37,341.69C195.756,343.873 197.823,346.381 199.51,349.14L200.43,350.67C201.319,352.223 201.786,353.981 201.786,355.771C201.786,361.405 197.15,366.041 191.516,366.041C187.994,366.041 184.709,364.229 182.83,361.25C182.227,360.235 181.797,359.127 181.56,357.97C181.125,356.499 180.45,355.11 179.56,353.86C178.494,352.241 177.297,350.712 175.98,349.29C174.639,347.807 173.192,346.423 171.65,345.15C170.212,343.943 168.666,342.871 167.03,341.95L166.57,341.7C164.412,340.503 163.069,338.221 163.069,335.754C163.069,332.023 166.138,328.954 169.869,328.954C170.443,328.954 171.014,329.026 171.57,329.17L171.6,329.17Z" style="fill:rgb(64,123,255);fill-rule:nonzero;"/>
        </g>
    </g>
</svg>
