<svg id="Layer_1" data-name="Layer 1" xmlns="http://www.w3.org/2000/svg" xmlns:xlink="http://www.w3.org/1999/xlink" viewBox="0 0 460 300"><defs><style>.cls-1{fill:url(#linear-gradient);}.cls-2{fill:#404242;}.cls-3,.cls-4,.cls-8,.cls-9{fill:none;stroke-miterlimit:10;stroke-width:0.5px;}.cls-3,.cls-4{stroke:#000;}.cls-4{stroke-dasharray:3.97 3.97;}.cls-5{fill:url(#linear-gradient-2);}.cls-6{fill:url(#linear-gradient-3);}.cls-7{fill:#fff;}.cls-8,.cls-9{stroke:#fff;}.cls-9{stroke-dasharray:4.02 4.02;}</style><linearGradient id="linear-gradient" x1="232.9" y1="256.46" x2="223.91" y2="102.21" gradientUnits="userSpaceOnUse"><stop offset="0" stop-color="#fff"/><stop offset="0.45" stop-color="#edf2f8"/><stop offset="0.91" stop-color="#d9e4f4"/></linearGradient><linearGradient id="linear-gradient-2" x1="210.98" y1="100.69" x2="210.98" y2="24.71" gradientUnits="userSpaceOnUse"><stop offset="0" stop-color="#7e77b6"/><stop offset="0.12" stop-color="#7d81bc"/><stop offset="0.41" stop-color="#7c96c7"/><stop offset="0.61" stop-color="#7b9ecb"/></linearGradient><linearGradient id="linear-gradient-3" x1="210.84" y1="127.49" x2="209.36" y2="278.15" gradientUnits="userSpaceOnUse"><stop offset="0" stop-color="#8076b5"/><stop offset="0.77" stop-color="#b977b0"/></linearGradient></defs><title>What is PaaS</title><rect class="cls-1" y="113.5" width="460" height="186.5"/><path class="cls-2" d="M303.14,167.76v-14.1h5.39c2.59,0,4.17,1.36,4.17,3.52a3.12,3.12,0,0,1-2.43,3v.15a3.34,3.34,0,0,1,3.15,3.43c0,2.48-1.78,4-4.78,4Zm1.76-8h2.81c2.13,0,3.22-.76,3.22-2.26s-1-2.26-2.77-2.26H304.9Zm3.48,6.46c2.12,0,3.23-.86,3.23-2.49s-1.15-2.46-3.4-2.46H304.9v4.95Z"/><path class="cls-2" d="M315.45,164.81c0-1.89,1.38-3,3.84-3.12l3-.18v-1c0-1.3-.81-2-2.38-2-1.26,0-2.14.47-2.37,1.31h-1.7c.22-1.69,1.88-2.81,4.13-2.81,2.57,0,4,1.32,4,3.51v7.21h-1.6V166.2h-.16a3.61,3.61,0,0,1-3.24,1.74C317,167.94,315.45,166.73,315.45,164.81Zm6.87-1v-1l-2.83.19c-1.6.11-2.3.66-2.3,1.72s.9,1.7,2.13,1.7A2.77,2.77,0,0,0,322.32,163.83Z"/><path class="cls-2" d="M334.12,160.45a2.61,2.61,0,0,0-2.72-1.89c-1.89,0-3.08,1.51-3.08,3.89s1.21,4,3.08,4a2.54,2.54,0,0,0,2.72-1.85h1.7c-.3,1.93-1.88,3.36-4.41,3.36-2.94,0-4.83-2.14-4.83-5.49s1.88-5.41,4.82-5.41a4.14,4.14,0,0,1,4.42,3.41Z"/><path class="cls-2" d="M344.8,157.23h2.06l-4.53,4.51,4.84,6H345l-3.95-4.94-1,.94v4H338.4V153.05h1.68v8.78h.15Z"/><path class="cls-2" d="M357.32,165c-.5,1.81-2.13,2.91-4.43,2.91-2.92,0-4.75-2.11-4.75-5.44S350,157,352.89,157s4.57,2,4.57,5.3V163h-7.57v.08c.09,2.08,1.25,3.4,3,3.4a2.72,2.72,0,0,0,2.71-1.43Zm-7.43-3.41h5.8a2.83,2.83,0,0,0-2.82-3.09A3,3,0,0,0,349.89,161.62Z"/><path class="cls-2" d="M360.1,157.23h1.6v1.66h.15A3.18,3.18,0,0,1,365,157c2.36,0,3.68,1.4,3.68,3.9v6.82H367v-6.41c0-1.9-.8-2.79-2.48-2.79a2.66,2.66,0,0,0-2.76,3v6.24H360.1Z"/><path class="cls-2" d="M371.24,162.49c0-3.3,1.75-5.45,4.42-5.45a3.59,3.59,0,0,1,3.3,1.85h.15v-5.84h1.68v14.71h-1.6v-1.68H379a3.76,3.76,0,0,1-3.37,1.86C373,167.94,371.24,165.8,371.24,162.49Zm1.74,0c0,2.46,1.15,3.94,3.07,3.94s3.1-1.51,3.1-3.94-1.19-3.93-3.1-3.93S373,160,373,162.49Z"/><path class="cls-2" d="M303.91,174.4h.72a8.13,8.13,0,0,0-1.24,4.43,8,8,0,0,0,1.24,4.42h-.72a7.78,7.78,0,0,1,0-8.85Z"/><path class="cls-2" d="M308.1,181.76l-2.6-7h.92l2.07,5.91h.08l2.07-5.91h.93l-2.6,7Z"/><path class="cls-2" d="M316.53,180.39a2.09,2.09,0,0,1-2.21,1.46c-1.46,0-2.38-1.06-2.38-2.72s.93-2.73,2.38-2.73,2.28,1,2.28,2.65v.32h-3.78v0c0,1,.62,1.7,1.51,1.7a1.36,1.36,0,0,0,1.36-.72Zm-3.71-1.7h2.9a1.42,1.42,0,0,0-1.41-1.55A1.5,1.5,0,0,0,312.82,178.69Z"/><path class="cls-2" d="M317.92,176.49h.8v.83h.08a1.57,1.57,0,0,1,1.58-.92,1.72,1.72,0,0,1,1.84,1.95v3.41h-.84v-3.21c0-1-.4-1.39-1.24-1.39a1.33,1.33,0,0,0-1.38,1.48v3.12h-.84Z"/><path class="cls-2" d="M323.49,179.12c0-1.65.87-2.72,2.21-2.72a1.81,1.81,0,0,1,1.65.92h.08V174.4h.84v7.36h-.81v-.84h-.07a1.91,1.91,0,0,1-1.69.93C324.35,181.85,323.49,180.78,323.49,179.12Zm.87,0c0,1.23.58,2,1.54,2s1.54-.75,1.54-2-.59-2-1.54-2S324.36,177.9,324.36,179.12Z"/><path class="cls-2" d="M329.63,179.12c0-1.69.93-2.72,2.43-2.72s2.43,1,2.43,2.72-.93,2.73-2.43,2.73S329.63,180.81,329.63,179.12Zm4,0c0-1.25-.56-2-1.56-2s-1.56.71-1.56,2,.56,2,1.56,2S333.62,180.37,333.62,179.12Z"/><path class="cls-2" d="M335.8,176.49h.81v.78h.07a1.47,1.47,0,0,1,1.46-.87l.42,0v.84a3.29,3.29,0,0,0-.53,0,1.3,1.3,0,0,0-1.39,1.28v3.27h-.84Z"/><path class="cls-2" d="M347.21,179.12c0,1.65-.87,2.73-2.21,2.73a1.78,1.78,0,0,1-1.65-.89h-.08v2.55h-.83v-7h.8v.88h.07a1.9,1.9,0,0,1,1.69-1C346.34,176.4,347.21,177.47,347.21,179.12Zm-.87,0c0-1.23-.57-2-1.54-2s-1.55.75-1.55,2,.6,2,1.55,2S346.34,180.35,346.34,179.12Z"/><path class="cls-2" d="M348.53,176.49h.8v.78h.08a1.46,1.46,0,0,1,1.46-.87l.42,0v.84a3.31,3.31,0,0,0-.54,0,1.29,1.29,0,0,0-1.38,1.28v3.27h-.84Z"/><path class="cls-2" d="M351.93,179.12c0-1.69.93-2.72,2.42-2.72s2.43,1,2.43,2.72-.93,2.73-2.43,2.73S351.93,180.81,351.93,179.12Zm4,0c0-1.25-.56-2-1.56-2s-1.55.71-1.55,2,.56,2,1.55,2S355.91,180.37,355.91,179.12Z"/><path class="cls-2" d="M360.25,181.76h-.86l-1.95-5.27h.9l1.44,4.34h.08l1.44-4.34h.9Z"/><path class="cls-2" d="M363.18,174.84a.59.59,0,1,1,.58.58A.58.58,0,0,1,363.18,174.84Zm.16,1.65h.84v5.27h-.84Z"/><path class="cls-2" d="M365.52,179.12c0-1.65.88-2.72,2.21-2.72a1.79,1.79,0,0,1,1.65.92h.08V174.4h.84v7.36h-.8v-.84h-.08a1.9,1.9,0,0,1-1.69.93C366.39,181.85,365.52,180.78,365.52,179.12Zm.87,0c0,1.23.58,2,1.54,2s1.55-.75,1.55-2-.6-2-1.55-2S366.39,177.9,366.39,179.12Z"/><path class="cls-2" d="M376.25,180.39a2.09,2.09,0,0,1-2.21,1.46c-1.46,0-2.38-1.06-2.38-2.72s.93-2.73,2.38-2.73,2.28,1,2.28,2.65v.32h-3.78v0c0,1,.62,1.7,1.52,1.7a1.36,1.36,0,0,0,1.35-.72Zm-3.71-1.7h2.9a1.42,1.42,0,0,0-1.41-1.55A1.5,1.5,0,0,0,372.54,178.69Z"/><path class="cls-2" d="M379.48,176.4a1.77,1.77,0,0,1,2,1.41h-.83a1.07,1.07,0,0,0-1.15-.7c-.63,0-1.12.32-1.12.79s.3.58.92.74l.81.19c1,.24,1.47.67,1.47,1.43,0,.94-.92,1.59-2.11,1.59s-2-.56-2.07-1.44h.86a1.15,1.15,0,0,0,1.24.73c.7,0,1.21-.34,1.21-.82s-.27-.61-.83-.74l-.91-.22c-1-.24-1.43-.67-1.43-1.43S378.36,176.4,379.48,176.4Z"/><path class="cls-2" d="M385.38,180.28c0-.94.7-1.48,1.92-1.56l1.52-.09v-.48c0-.65-.4-1-1.19-1-.63,0-1.07.24-1.19.65h-.85a1.88,1.88,0,0,1,2.07-1.4c1.28,0,2,.66,2,1.75v3.61h-.8V181h-.08a1.82,1.82,0,0,1-1.62.87A1.61,1.61,0,0,1,385.38,180.28Zm3.44-.49v-.48l-1.41.09c-.8.06-1.16.33-1.16.86s.46.85,1.07.85A1.39,1.39,0,0,0,388.82,179.79Z"/><path class="cls-2" d="M393.06,176.4a1.77,1.77,0,0,1,2,1.41h-.83a1.07,1.07,0,0,0-1.16-.7c-.62,0-1.11.32-1.11.79s.29.58.91.74l.81.19c1,.24,1.47.67,1.47,1.43,0,.94-.91,1.59-2.11,1.59s-2-.56-2.07-1.44h.87a1.15,1.15,0,0,0,1.23.73c.71,0,1.22-.34,1.22-.82s-.28-.61-.84-.74l-.9-.22c-1-.24-1.44-.67-1.44-1.43S391.94,176.4,393.06,176.4Z"/><path class="cls-2" d="M399,180.28c0-.94.69-1.48,1.92-1.56l1.52-.09v-.48c0-.65-.41-1-1.2-1-.63,0-1.06.24-1.18.65h-.85c.11-.84.94-1.4,2.06-1.4,1.29,0,2,.66,2,1.75v3.61h-.8V181h-.08a1.82,1.82,0,0,1-1.62.87A1.61,1.61,0,0,1,399,180.28Zm3.44-.49v-.48l-1.42.09c-.8.06-1.15.33-1.15.86s.45.85,1.06.85A1.39,1.39,0,0,0,402.4,179.79Z"/><path class="cls-2" d="M409.45,176.4c1.11,0,1.87.55,2,1.41h-.83a1.07,1.07,0,0,0-1.15-.7c-.63,0-1.12.32-1.12.79s.3.58.92.74l.81.19c1,.24,1.47.67,1.47,1.43,0,.94-.92,1.59-2.11,1.59s-2-.56-2.07-1.44h.86a1.15,1.15,0,0,0,1.24.73c.7,0,1.21-.34,1.21-.82s-.27-.61-.83-.74l-.91-.22c-1-.24-1.43-.67-1.43-1.43S408.33,176.4,409.45,176.4Z"/><path class="cls-2" d="M417.17,180.39a2.1,2.1,0,0,1-2.22,1.46c-1.46,0-2.37-1.06-2.37-2.72s.93-2.73,2.37-2.73,2.29,1,2.29,2.65v.32h-3.78v0c0,1,.62,1.7,1.51,1.7a1.36,1.36,0,0,0,1.36-.72Zm-3.71-1.7h2.9a1.42,1.42,0,0,0-1.42-1.55A1.5,1.5,0,0,0,413.46,178.69Z"/><path class="cls-2" d="M418.56,176.49h.8v.78h.08a1.46,1.46,0,0,1,1.46-.87l.42,0v.84a3.31,3.31,0,0,0-.54,0,1.29,1.29,0,0,0-1.38,1.28v3.27h-.84Z"/><path class="cls-2" d="M424.72,181.76h-.86l-1.95-5.27h.9l1.44,4.34h.07l1.45-4.34h.89Z"/><path class="cls-2" d="M427.64,174.84a.59.59,0,1,1,.59.58A.58.58,0,0,1,427.64,174.84Zm.17,1.65h.84v5.27h-.84Z"/><path class="cls-2" d="M433.75,178.1a1.29,1.29,0,0,0-1.35-.94c-.95,0-1.55.75-1.55,1.94s.61,2,1.55,2a1.26,1.26,0,0,0,1.35-.92h.85a2,2,0,0,1-2.2,1.68c-1.47,0-2.42-1.07-2.42-2.75a2.4,2.4,0,0,1,2.42-2.7,2.06,2.06,0,0,1,2.2,1.7Z"/><path class="cls-2" d="M440.17,180.39a2.1,2.1,0,0,1-2.22,1.46c-1.46,0-2.37-1.06-2.37-2.72s.93-2.73,2.37-2.73,2.29,1,2.29,2.65v.32h-3.79v0c.05,1,.63,1.7,1.52,1.7a1.36,1.36,0,0,0,1.36-.72Zm-3.72-1.7h2.9a1.42,1.42,0,0,0-1.41-1.55A1.51,1.51,0,0,0,436.45,178.69Z"/><path class="cls-2" d="M442,183.25h-.72a8,8,0,0,0,1.24-4.42,8.13,8.13,0,0,0-1.24-4.43H442a7.78,7.78,0,0,1,0,8.85Z"/><path class="cls-2" d="M23.84,35.67V21.58h8.55v1.58H25.6V28h6.24v1.56H25.6v6.11Z"/><path class="cls-2" d="M35.07,25.14h1.6V26.7h.16A2.94,2.94,0,0,1,39.75,25a7.28,7.28,0,0,1,.84,0v1.68a6.93,6.93,0,0,0-1.08-.09,2.57,2.57,0,0,0-2.76,2.55v6.53H35.07Z"/><path class="cls-2" d="M41.87,30.4C41.87,27,43.72,25,46.72,25S51.57,27,51.57,30.4s-1.85,5.45-4.85,5.45S41.87,33.78,41.87,30.4Zm8,0c0-2.5-1.13-3.93-3.12-3.93S43.6,27.9,43.6,30.4s1.13,3.94,3.12,3.94S49.84,32.89,49.84,30.4Z"/><path class="cls-2" d="M54.21,25.14h1.6V26.8H56A3.16,3.16,0,0,1,59.13,25c2.37,0,3.68,1.39,3.68,3.89v6.82H61.13V29.26c0-1.89-.8-2.79-2.48-2.79a2.67,2.67,0,0,0-2.76,3v6.23H54.21Z"/><path class="cls-2" d="M68.26,22.42v2.72h2.35v1.41H68.26V32.5c0,1.24.47,1.77,1.57,1.77a7,7,0,0,0,.78,0v1.42a5.63,5.63,0,0,1-1,.1c-2.17,0-3-.8-3-2.82V26.55h-1.7V25.14h1.7V22.42Z"/><path class="cls-2" d="M81.65,32.94c-.51,1.81-2.13,2.91-4.43,2.91-2.92,0-4.75-2.11-4.75-5.44S74.33,25,77.22,25s4.57,2,4.57,5.29v.64H74.22V31c.09,2.08,1.25,3.4,3,3.4A2.73,2.73,0,0,0,80,32.94Zm-7.43-3.4H80c0-1.87-1.15-3.1-2.82-3.1A3,3,0,0,0,74.22,29.54Z"/><path class="cls-2" d="M84.42,25.14H86V26.8h.15A3.18,3.18,0,0,1,89.35,25C91.71,25,93,26.35,93,28.85v6.82H91.35V29.26c0-1.89-.8-2.79-2.48-2.79a2.67,2.67,0,0,0-2.77,3v6.23H84.42Z"/><path class="cls-2" d="M95.57,30.4c0-3.3,1.75-5.44,4.42-5.44a3.58,3.58,0,0,1,3.3,1.84h.15V21h1.68V35.67h-1.6V34h-.16A3.76,3.76,0,0,1,100,35.85C97.3,35.85,95.57,33.72,95.57,30.4Zm1.74,0c0,2.47,1.15,3.94,3.07,3.94s3.1-1.5,3.1-3.94-1.19-3.93-3.1-3.93S97.31,28,97.31,30.4Z"/><path class="cls-2" d="M24.61,42.31h.71a8.59,8.59,0,0,0,0,8.86h-.71a7.75,7.75,0,0,1,0-8.86Z"/><path class="cls-2" d="M29.18,42.62c2.09,0,3.32,1.31,3.32,3.52s-1.23,3.53-3.32,3.53H26.76V42.62Zm-1.54,6.26h1.48c1.57,0,2.48-1,2.48-2.73s-.92-2.74-2.48-2.74H27.64Z"/><path class="cls-2" d="M38.24,48.31A2.11,2.11,0,0,1,36,49.76c-1.46,0-2.37-1-2.37-2.72s.93-2.73,2.37-2.73,2.29,1,2.29,2.65v.32H34.52v0c0,1,.63,1.7,1.52,1.7a1.37,1.37,0,0,0,1.36-.71ZM34.52,46.6h2.9A1.42,1.42,0,0,0,36,45.05,1.51,1.51,0,0,0,34.52,46.6Z"/><path class="cls-2" d="M41.88,49.67H41l-2-5.27H40l1.44,4.34h.08l1.44-4.34h.89Z"/><path class="cls-2" d="M49.08,48.31a2.11,2.11,0,0,1-2.22,1.45c-1.46,0-2.37-1-2.37-2.72s.93-2.73,2.37-2.73,2.29,1,2.29,2.65v.32H45.36v0c0,1,.63,1.7,1.52,1.7a1.37,1.37,0,0,0,1.36-.71ZM45.36,46.6h2.9a1.42,1.42,0,0,0-1.41-1.55A1.51,1.51,0,0,0,45.36,46.6Z"/><path class="cls-2" d="M50.51,42.31h.84v7.36h-.84Z"/><path class="cls-2" d="M52.72,47c0-1.7.93-2.73,2.43-2.73s2.42,1,2.42,2.73-.92,2.72-2.42,2.72S52.72,48.73,52.72,47Zm4,0c0-1.25-.57-2-1.56-2s-1.56.72-1.56,2,.56,2,1.56,2S56.71,48.28,56.71,47Z"/><path class="cls-2" d="M63.67,47c0,1.64-.88,2.72-2.21,2.72a1.78,1.78,0,0,1-1.65-.88h-.08v2.55h-.84v-7h.8v.88h.08a1.92,1.92,0,0,1,1.69-1C62.8,44.31,63.67,45.38,63.67,47Zm-.87,0c0-1.23-.58-2-1.54-2s-1.55.76-1.55,2,.6,2,1.55,2S62.8,48.27,62.8,47Z"/><path class="cls-2" d="M69.31,48.31a2.09,2.09,0,0,1-2.21,1.45c-1.46,0-2.38-1-2.38-2.72s.93-2.73,2.38-2.73,2.28,1,2.28,2.65v.32H65.6v0c0,1,.62,1.7,1.52,1.7a1.36,1.36,0,0,0,1.35-.71ZM65.6,46.6h2.9a1.42,1.42,0,0,0-1.41-1.55A1.5,1.5,0,0,0,65.6,46.6Z"/><path class="cls-2" d="M70.7,44.4h.8v.79h.08A1.46,1.46,0,0,1,73,44.31a2.77,2.77,0,0,1,.42,0v.84a3.31,3.31,0,0,0-.54,0,1.28,1.28,0,0,0-1.38,1.28v3.26H70.7Z"/><path class="cls-2" d="M78.26,48.83h-.08v.84h-.8V42.31h.84v2.92h.08A1.82,1.82,0,0,1,80,44.31c1.34,0,2.2,1.07,2.2,2.73s-.87,2.72-2.2,2.72A1.89,1.89,0,0,1,78.26,48.83ZM78.2,47c0,1.21.6,2,1.55,2s1.54-.73,1.54-2-.58-2-1.54-2S78.2,45.82,78.2,47Z"/><path class="cls-2" d="M87.73,49.67h-.8v-.83h-.08a1.63,1.63,0,0,1-1.63.92c-1.18,0-1.8-.7-1.8-1.95V44.4h.84v3.21c0,1,.36,1.38,1.2,1.38a1.32,1.32,0,0,0,1.43-1.47V44.4h.84Z"/><path class="cls-2" d="M89.17,42.75a.59.59,0,0,1,.58-.59.59.59,0,0,1,0,1.18A.59.59,0,0,1,89.17,42.75Zm.16,1.65h.84v5.27h-.84Z"/><path class="cls-2" d="M91.82,42.31h.84v7.36h-.84Z"/><path class="cls-2" d="M94,47c0-1.65.87-2.73,2.21-2.73a1.81,1.81,0,0,1,1.65.92H98V42.31h.84v7.36H98v-.84h-.07a1.91,1.91,0,0,1-1.69.93C94.89,49.76,94,48.69,94,47Zm.87,0c0,1.23.57,2,1.54,2S98,48.25,98,47s-.59-2-1.54-2S94.9,45.81,94.9,47Z"/><path class="cls-2" d="M102.28,44.31a1.77,1.77,0,0,1,2,1.41h-.83a1.07,1.07,0,0,0-1.16-.7c-.62,0-1.11.32-1.11.79s.29.59.91.74l.81.19c1,.24,1.47.67,1.47,1.43,0,.94-.91,1.59-2.11,1.59s-2-.56-2.07-1.43H101a1.15,1.15,0,0,0,1.23.72c.71,0,1.22-.33,1.22-.82s-.28-.6-.84-.74l-.9-.22c-1-.24-1.44-.66-1.44-1.42S101.16,44.31,102.28,44.31Z"/><path class="cls-2" d="M106.13,51.17h-.71a8.59,8.59,0,0,0,0-8.86h.71a7.75,7.75,0,0,1,0,8.86Z"/><path class="cls-2" d="M23.28,71.14a1.79,1.79,0,1,1,1.79,1.78A1.76,1.76,0,0,1,23.28,71.14Z"/><path class="cls-2" d="M33.64,71.43a2.11,2.11,0,0,0,2.3,2.21,2.11,2.11,0,0,0,2.3-2.21V66H39.3V71.5a3,3,0,0,1-3.36,3.11,3,3,0,0,1-3.36-3.11V66h1.06Z"/><path class="cls-2" d="M43.56,68c1.33,0,2.25.66,2.38,1.7H45a1.29,1.29,0,0,0-1.39-.84c-.75,0-1.34.38-1.34.94s.35.71,1.1.89l1,.23c1.19.29,1.76.8,1.76,1.71,0,1.13-1.09,1.91-2.53,1.91S41.15,73.85,41,72.8h1a1.39,1.39,0,0,0,1.48.87c.85,0,1.46-.4,1.46-1s-.33-.73-1-.89l-1.08-.27c-1.18-.28-1.72-.79-1.72-1.71S42.22,68,43.56,68Z"/><path class="cls-2" d="M52.83,72.78a2.53,2.53,0,0,1-2.66,1.74c-1.75,0-2.85-1.26-2.85-3.26S48.43,68,50.17,68s2.74,1.22,2.74,3.18v.39H48.37v0c.05,1.25.75,2,1.82,2a1.65,1.65,0,0,0,1.63-.85Zm-4.46-2h3.48a1.7,1.7,0,0,0-1.69-1.86A1.8,1.8,0,0,0,48.37,70.73Z"/><path class="cls-2" d="M54.49,68.09h1V69h.1a1.76,1.76,0,0,1,1.75-1,3.84,3.84,0,0,1,.5,0v1a4.35,4.35,0,0,0-.64-.06A1.55,1.55,0,0,0,55.5,70.5v3.91h-1Z"/><path class="cls-2" d="M62.27,66.11a.71.71,0,1,1,.71.7A.7.7,0,0,1,62.27,66.11Zm.2,2h1v6.32h-1Z"/><path class="cls-2" d="M65.4,68.09h1v1h.1A1.88,1.88,0,0,1,68.35,68a2.06,2.06,0,0,1,2.21,2.34v4.09h-1V70.57c0-1.14-.48-1.68-1.49-1.68a1.6,1.6,0,0,0-1.66,1.78v3.74h-1Z"/><path class="cls-2" d="M73.83,66.46v1.63h1.41v.85H73.83v3.57c0,.75.28,1.06.94,1.06a3.77,3.77,0,0,0,.47,0v.85a3.93,3.93,0,0,1-.59.06c-1.3,0-1.82-.48-1.82-1.69V68.94h-1v-.85h1V66.46Z"/><path class="cls-2" d="M81.87,72.78a2.53,2.53,0,0,1-2.66,1.74c-1.76,0-2.85-1.26-2.85-3.26S77.47,68,79.21,68,82,69.2,82,71.16v.39H77.41v0c0,1.25.75,2,1.82,2a1.66,1.66,0,0,0,1.63-.85Zm-4.46-2h3.48a1.71,1.71,0,0,0-1.7-1.86A1.8,1.8,0,0,0,77.41,70.73Z"/><path class="cls-2" d="M83.53,68.09h1V69h.1a1.76,1.76,0,0,1,1.75-1,3.84,3.84,0,0,1,.5,0v1A4.35,4.35,0,0,0,86.2,69a1.55,1.55,0,0,0-1.66,1.54v3.91h-1Z"/><path class="cls-2" d="M88.87,68.94h-1v-.85h1v-.7a1.64,1.64,0,0,1,1.84-1.86,3.66,3.66,0,0,1,.68.06v.82a2.33,2.33,0,0,0-.48,0c-.72,0-1,.35-1,1v.67h1.45v.85H89.88v5.47h-1Z"/><path class="cls-2" d="M92.24,72.64c0-1.13.84-1.78,2.31-1.87l1.82-.11v-.57c0-.78-.49-1.21-1.43-1.21-.76,0-1.28.29-1.43.78h-1c.13-1,1.13-1.68,2.47-1.68,1.54,0,2.41.79,2.41,2.11v4.32h-1v-.93h-.1a2.18,2.18,0,0,1-1.94,1A1.92,1.92,0,0,1,92.24,72.64Zm4.13-.58v-.58l-1.7.11c-1,.06-1.38.4-1.38,1s.54,1,1.27,1A1.66,1.66,0,0,0,96.37,72.06Z"/><path class="cls-2" d="M103.45,70a1.57,1.57,0,0,0-1.63-1.14c-1.14,0-1.85.91-1.85,2.34s.72,2.38,1.85,2.38a1.52,1.52,0,0,0,1.63-1.1h1a2.45,2.45,0,0,1-2.65,2c-1.77,0-2.9-1.28-2.9-3.29s1.13-3.25,2.9-3.25a2.49,2.49,0,0,1,2.65,2Z"/><path class="cls-2" d="M111.15,72.78a2.53,2.53,0,0,1-2.66,1.74c-1.76,0-2.85-1.26-2.85-3.26S106.75,68,108.49,68s2.74,1.22,2.74,3.18v.39h-4.54v0c0,1.25.75,2,1.82,2a1.66,1.66,0,0,0,1.63-.85Zm-4.46-2h3.48a1.71,1.71,0,0,0-1.7-1.86A1.8,1.8,0,0,0,106.69,70.73Z"/><path class="cls-2" d="M23.28,89.14a1.79,1.79,0,1,1,1.79,1.78A1.76,1.76,0,0,1,23.28,89.14Z"/><path class="cls-2" d="M32.23,88.19c0-2.73,1.43-4.43,3.72-4.43a3.3,3.3,0,0,1,3.42,2.74H38.3A2.32,2.32,0,0,0,36,84.73c-1.62,0-2.64,1.34-2.64,3.46s1,3.45,2.65,3.45a2.26,2.26,0,0,0,2.34-1.58h1.07A3.21,3.21,0,0,1,36,92.61C33.66,92.61,32.23,90.91,32.23,88.19Z"/><path class="cls-2" d="M41.07,83.59h1v8.82h-1Z"/><path class="cls-2" d="M43.86,84.11a.71.71,0,1,1,.71.7A.7.7,0,0,1,43.86,84.11Zm.2,2h1v6.32h-1Z"/><path class="cls-2" d="M52.18,90.78a2.52,2.52,0,0,1-2.66,1.74c-1.75,0-2.85-1.26-2.85-3.26S47.79,86,49.52,86s2.74,1.22,2.74,3.18v.39H47.72v0c.06,1.25.75,2,1.83,2a1.63,1.63,0,0,0,1.62-.85Zm-4.46-2H51.2a1.7,1.7,0,0,0-1.69-1.86A1.8,1.8,0,0,0,47.72,88.73Z"/><path class="cls-2" d="M53.85,86.09h1v1h.09A1.9,1.9,0,0,1,56.8,86,2.06,2.06,0,0,1,59,88.32v4.09H58V88.57c0-1.14-.48-1.68-1.49-1.68a1.6,1.6,0,0,0-1.66,1.78v3.74h-1Z"/><path class="cls-2" d="M62.28,84.46v1.63h1.4v.85h-1.4v3.57c0,.75.28,1.06.94,1.06a3.54,3.54,0,0,0,.46,0v.85a3.8,3.8,0,0,1-.59.06c-1.3,0-1.82-.48-1.82-1.69V86.94h-1v-.85h1V84.46Z"/><path class="cls-2" d="M64.93,89.49v-1h3.85v1Z"/><path class="cls-2" d="M72.84,86c1.33,0,2.25.66,2.38,1.7h-1a1.29,1.29,0,0,0-1.39-.84c-.75,0-1.34.38-1.34.94s.35.71,1.1.89l1,.23c1.19.29,1.76.8,1.76,1.71,0,1.13-1.09,1.91-2.53,1.91s-2.37-.67-2.48-1.72h1a1.4,1.4,0,0,0,1.49.87c.85,0,1.46-.4,1.46-1s-.33-.73-1-.89l-1.08-.27c-1.18-.28-1.72-.79-1.72-1.71S71.5,86,72.84,86Z"/><path class="cls-2" d="M76.74,84.11a.71.71,0,0,1,1.41,0,.71.71,0,0,1-1.41,0Zm.2,2h1v6.32h-1Z"/><path class="cls-2" d="M79.55,89.25c0-2,1-3.27,2.66-3.27a2.16,2.16,0,0,1,2,1.11h.08v-3.5h1v8.82h-1v-1h-.09a2.25,2.25,0,0,1-2,1.12C80.59,92.52,79.55,91.24,79.55,89.25Zm1,0c0,1.48.7,2.36,1.85,2.36s1.86-.9,1.86-2.36-.72-2.36-1.86-2.36S80.59,87.78,80.59,89.25Z"/><path class="cls-2" d="M92.43,90.78a2.52,2.52,0,0,1-2.66,1.74c-1.75,0-2.85-1.26-2.85-3.26S88,86,89.77,86s2.74,1.22,2.74,3.18v.39H88v0c0,1.25.75,2,1.82,2a1.64,1.64,0,0,0,1.63-.85Zm-4.46-2h3.48a1.7,1.7,0,0,0-1.69-1.86A1.8,1.8,0,0,0,88,88.73Z"/><path class="cls-2" d="M97.54,83.59h1v8.82h-1Z"/><path class="cls-2" d="M100.19,89.25c0-2,1.11-3.27,2.91-3.27S106,87.22,106,89.25s-1.11,3.27-2.91,3.27S100.19,91.28,100.19,89.25Zm4.78,0c0-1.5-.67-2.36-1.87-2.36s-1.87.86-1.87,2.36.68,2.36,1.87,2.36S105,90.75,105,89.25Z"/><path class="cls-2" d="M107.55,93.11h1.06c.12.51.68.85,1.59.85,1.13,0,1.8-.56,1.8-1.49V91.23h-.09a2.21,2.21,0,0,1-2,1.09c-1.64,0-2.65-1.27-2.65-3.16s1-3.18,2.65-3.18a2.26,2.26,0,0,1,2,1.12h.1v-1h1v6.43c0,1.41-1.09,2.32-2.81,2.32C108.67,94.84,107.7,94.15,107.55,93.11Zm4.47-4c0-1.38-.7-2.27-1.87-2.27s-1.83.89-1.83,2.27.66,2.27,1.83,2.27S112,90.54,112,89.16Z"/><path class="cls-2" d="M114.73,84.11a.71.71,0,0,1,1.41,0,.71.71,0,0,1-1.41,0Zm.2,2h1v6.32h-1Z"/><path class="cls-2" d="M122.07,88a1.57,1.57,0,0,0-1.63-1.14c-1.14,0-1.85.91-1.85,2.34s.72,2.38,1.85,2.38a1.52,1.52,0,0,0,1.63-1.1h1a2.44,2.44,0,0,1-2.65,2c-1.77,0-2.9-1.28-2.9-3.29s1.13-3.25,2.9-3.25a2.49,2.49,0,0,1,2.65,2Z"/><path class="cls-2" d="M302.59,203.22a1.78,1.78,0,1,1,1.78,1.78A1.76,1.76,0,0,1,302.59,203.22Z"/><path class="cls-2" d="M314.76,198c2.51,0,4,1.57,4,4.23s-1.48,4.23-4,4.23h-2.9V198Zm-1.85,7.51h1.78c1.88,0,3-1.21,3-3.27s-1.11-3.29-3-3.29h-1.78Z"/><path class="cls-2" d="M320.07,204.73c0-1.13.83-1.78,2.3-1.87l1.82-.11v-.58c0-.78-.48-1.2-1.43-1.2-.75,0-1.28.28-1.42.78h-1c.13-1,1.13-1.68,2.48-1.68,1.54,0,2.4.79,2.4,2.1v4.33h-1v-.93h-.09a2.21,2.21,0,0,1-1.95,1A1.92,1.92,0,0,1,320.07,204.73Zm4.12-.59v-.58l-1.7.11c-1,.07-1.38.4-1.38,1s.54,1,1.28,1A1.66,1.66,0,0,0,324.19,204.14Z"/><path class="cls-2" d="M328.49,198.55v1.63h1.41V201h-1.41v3.57c0,.74.28,1.06.94,1.06l.47,0v.85a3.93,3.93,0,0,1-.59.06c-1.3,0-1.83-.49-1.83-1.69V201h-1v-.85h1v-1.63Z"/><path class="cls-2" d="M331.05,204.73c0-1.13.83-1.78,2.3-1.87l1.82-.11v-.58c0-.78-.48-1.2-1.43-1.2-.75,0-1.28.28-1.42.78h-1c.13-1,1.13-1.68,2.48-1.68,1.54,0,2.4.79,2.4,2.1v4.33h-1v-.93h-.09a2.2,2.2,0,0,1-1.95,1A1.92,1.92,0,0,1,331.05,204.73Zm4.12-.59v-.58l-1.7.11c-1,.07-1.38.4-1.38,1s.55,1,1.28,1A1.66,1.66,0,0,0,335.17,204.14Z"/><path class="cls-2" d="M339.16,205.49h-.1v1h-1v-8.83h1v3.51h.09a2.19,2.19,0,0,1,2-1.11c1.61,0,2.65,1.28,2.65,3.27s-1.05,3.27-2.65,3.27A2.27,2.27,0,0,1,339.16,205.49Zm-.07-2.15c0,1.46.71,2.36,1.86,2.36s1.84-.88,1.84-2.36S342.1,201,341,201,339.09,201.88,339.09,203.34Z"/><path class="cls-2" d="M345,204.73c0-1.13.83-1.78,2.3-1.87l1.82-.11v-.58c0-.78-.48-1.2-1.43-1.2-.75,0-1.28.28-1.42.78h-1c.14-1,1.13-1.68,2.48-1.68,1.54,0,2.4.79,2.4,2.1v4.33h-1v-.93h-.09a2.19,2.19,0,0,1-1.95,1A1.92,1.92,0,0,1,345,204.73Zm4.12-.59v-.58l-1.69.11c-1,.07-1.39.4-1.39,1s.55,1,1.28,1A1.65,1.65,0,0,0,349.16,204.14Z"/><path class="cls-2" d="M354.24,200.07c1.33,0,2.25.66,2.38,1.69h-1a1.29,1.29,0,0,0-1.39-.83c-.75,0-1.34.38-1.34.94s.35.7,1.1.88l1,.24c1.19.29,1.76.8,1.76,1.71,0,1.13-1.09,1.91-2.53,1.91s-2.37-.67-2.48-1.72h1a1.39,1.39,0,0,0,1.48.87c.85,0,1.46-.4,1.46-1s-.33-.73-1-.89l-1.09-.27c-1.18-.29-1.72-.8-1.72-1.71S352.9,200.07,354.24,200.07Z"/><path class="cls-2" d="M363.51,204.86a2.53,2.53,0,0,1-2.66,1.75c-1.75,0-2.85-1.27-2.85-3.26s1.11-3.28,2.85-3.28,2.74,1.21,2.74,3.18v.38h-4.54v.05c.05,1.25.75,2,1.82,2a1.63,1.63,0,0,0,1.63-.86Zm-4.46-2h3.48a1.7,1.7,0,0,0-1.69-1.86A1.8,1.8,0,0,0,359.05,202.82Z"/><path class="cls-2" d="M368.56,200.18h1v1h.09a1.79,1.79,0,0,1,1.77-1.11,1.81,1.81,0,0,1,1.74,1.11h.1a2.11,2.11,0,0,1,1.93-1.11,1.84,1.84,0,0,1,2,2.06v4.37h-1v-4.13c0-.93-.44-1.39-1.33-1.39a1.42,1.42,0,0,0-1.46,1.46v4.06h-1v-4.29A1.2,1.2,0,0,0,371,201a1.52,1.52,0,0,0-1.46,1.6v3.92h-1Z"/><path class="cls-2" d="M378.63,204.73c0-1.13.83-1.78,2.3-1.87l1.82-.11v-.58c0-.78-.49-1.2-1.43-1.2-.75,0-1.28.28-1.42.78h-1c.13-1,1.13-1.68,2.48-1.68,1.54,0,2.4.79,2.4,2.1v4.33h-1v-.93h-.1a2.18,2.18,0,0,1-1.94,1A1.92,1.92,0,0,1,378.63,204.73Zm4.12-.59v-.58l-1.7.11c-1,.07-1.38.4-1.38,1s.54,1,1.28,1A1.66,1.66,0,0,0,382.75,204.14Z"/><path class="cls-2" d="M385.62,200.18h1v1h.1a1.88,1.88,0,0,1,1.89-1.11,2.06,2.06,0,0,1,2.21,2.34v4.09h-1v-3.85c0-1.13-.48-1.67-1.49-1.67a1.6,1.6,0,0,0-1.66,1.78v3.74h-1Z"/><path class="cls-2" d="M392.25,204.73c0-1.13.83-1.78,2.3-1.87l1.82-.11v-.58c0-.78-.48-1.2-1.43-1.2-.75,0-1.28.28-1.42.78h-1c.14-1,1.13-1.68,2.48-1.68,1.54,0,2.4.79,2.4,2.1v4.33h-1v-.93h-.09a2.19,2.19,0,0,1-1.95,1A1.92,1.92,0,0,1,392.25,204.73Zm4.12-.59v-.58l-1.7.11c-1,.07-1.38.4-1.38,1s.55,1,1.28,1A1.65,1.65,0,0,0,396.37,204.14Z"/><path class="cls-2" d="M399.2,207.2h1.06c.12.51.68.85,1.59.85,1.13,0,1.8-.56,1.8-1.49v-1.25h-.09a2.19,2.19,0,0,1-2,1.09c-1.64,0-2.65-1.26-2.65-3.15s1-3.18,2.65-3.18a2.25,2.25,0,0,1,2,1.11h.1v-1h1v6.43c0,1.41-1.09,2.31-2.81,2.31C400.32,208.92,399.35,208.24,399.2,207.2Zm4.47-3.95c0-1.38-.7-2.27-1.87-2.27s-1.83.89-1.83,2.27.66,2.26,1.83,2.26S403.67,204.62,403.67,203.25Z"/><path class="cls-2" d="M411.75,204.86a2.53,2.53,0,0,1-2.66,1.75c-1.75,0-2.85-1.27-2.85-3.26s1.11-3.28,2.85-3.28,2.74,1.21,2.74,3.18v.38h-4.54v.05c0,1.25.75,2,1.82,2a1.63,1.63,0,0,0,1.63-.86Zm-4.46-2h3.48a1.7,1.7,0,0,0-1.69-1.86A1.8,1.8,0,0,0,407.29,202.82Z"/><path class="cls-2" d="M413.41,200.18h1v1h.1a1.77,1.77,0,0,1,1.76-1.11,1.83,1.83,0,0,1,1.75,1.11h.09a2.11,2.11,0,0,1,1.93-1.11,1.84,1.84,0,0,1,2,2.06v4.37h-1v-4.13c0-.93-.44-1.39-1.33-1.39a1.43,1.43,0,0,0-1.47,1.46v4.06h-1v-4.29a1.19,1.19,0,0,0-1.31-1.23,1.52,1.52,0,0,0-1.47,1.6v3.92h-1Z"/><path class="cls-2" d="M429.05,204.86a2.53,2.53,0,0,1-2.66,1.75c-1.76,0-2.85-1.27-2.85-3.26s1.11-3.28,2.85-3.28,2.74,1.21,2.74,3.18v.38h-4.54v.05c.05,1.25.75,2,1.82,2a1.65,1.65,0,0,0,1.63-.86Zm-4.46-2h3.48a1.71,1.71,0,0,0-1.7-1.86A1.8,1.8,0,0,0,424.59,202.82Z"/><path class="cls-2" d="M430.71,200.18h1v1h.09a1.91,1.91,0,0,1,1.9-1.11,2.06,2.06,0,0,1,2.21,2.34v4.09h-1v-3.85c0-1.13-.48-1.67-1.48-1.67a1.6,1.6,0,0,0-1.66,1.78v3.74h-1Z"/><path class="cls-2" d="M439.14,198.55v1.63h1.41V201h-1.41v3.57c0,.74.28,1.06.94,1.06l.47,0v.85a4.07,4.07,0,0,1-.59.06c-1.31,0-1.83-.49-1.83-1.69V201h-1v-.85h1v-1.63Z"/><path class="cls-2" d="M302.59,221.22a1.78,1.78,0,1,1,1.78,1.78A1.76,1.76,0,0,1,302.59,221.22Z"/><path class="cls-2" d="M311.53,220.27c0-2.73,1.43-4.43,3.73-4.43a3.3,3.3,0,0,1,3.42,2.75h-1.07a2.33,2.33,0,0,0-2.35-1.77c-1.63,0-2.65,1.33-2.65,3.45s1,3.45,2.65,3.45a2.27,2.27,0,0,0,2.35-1.58h1.07a3.22,3.22,0,0,1-3.42,2.56C313,224.7,311.53,223,311.53,220.27Z"/><path class="cls-2" d="M320.38,215.67h1v8.83h-1Z"/><path class="cls-2" d="M323,221.34c0-2,1.11-3.27,2.91-3.27s2.91,1.24,2.91,3.27-1.11,3.27-2.91,3.27S323,223.37,323,221.34Zm4.78,0c0-1.5-.68-2.36-1.87-2.36s-1.87.86-1.87,2.36.67,2.36,1.87,2.36S327.81,222.83,327.81,221.34Z"/><path class="cls-2" d="M335.54,224.5h-1v-1h-.09a2,2,0,0,1-2,1.1c-1.42,0-2.16-.84-2.16-2.34v-4.09h1V222c0,1.13.42,1.66,1.43,1.66a1.59,1.59,0,0,0,1.72-1.77v-3.74h1Z"/><path class="cls-2" d="M337.12,221.34c0-2,1.05-3.27,2.66-3.27a2.16,2.16,0,0,1,2,1.11h.09v-3.51h1v8.83h-1v-1h-.09a2.27,2.27,0,0,1-2,1.12C338.16,224.61,337.12,223.33,337.12,221.34Zm1.05,0c0,1.48.69,2.36,1.84,2.36s1.86-.9,1.86-2.36S341.15,219,340,219,338.17,219.87,338.17,221.34Z"/><path class="cls-2" d="M350.41,218.07a2.14,2.14,0,0,1,2.38,1.69h-1a1.29,1.29,0,0,0-1.39-.83c-.75,0-1.33.38-1.33.94s.35.7,1.09.88l1,.24c1.19.29,1.77.8,1.77,1.71,0,1.13-1.1,1.91-2.53,1.91s-2.38-.67-2.49-1.72h1a1.39,1.39,0,0,0,1.48.87c.85,0,1.46-.4,1.46-1s-.33-.73-1-.89l-1.09-.27c-1.18-.29-1.72-.8-1.72-1.71S349.07,218.07,350.41,218.07Z"/><path class="cls-2" d="M355.85,216.55v1.63h1.41V219h-1.41v3.57c0,.74.28,1.06.94,1.06l.47,0v.85a4.07,4.07,0,0,1-.6.06c-1.3,0-1.82-.49-1.82-1.69V219h-1v-.85h1v-1.63Z"/><path class="cls-2" d="M358.38,221.34c0-2,1.11-3.27,2.91-3.27s2.91,1.24,2.91,3.27-1.11,3.27-2.91,3.27S358.38,223.37,358.38,221.34Zm4.78,0c0-1.5-.68-2.36-1.87-2.36s-1.87.86-1.87,2.36.67,2.36,1.87,2.36S363.16,222.83,363.16,221.34Z"/><path class="cls-2" d="M365.78,218.18h1v.94h.1a1.75,1.75,0,0,1,1.75-1.05,3.84,3.84,0,0,1,.5,0v1a3.3,3.3,0,0,0-.64-.06,1.55,1.55,0,0,0-1.66,1.53v3.92h-1Z"/><path class="cls-2" d="M370,222.73c0-1.13.83-1.78,2.3-1.87l1.82-.11v-.58c0-.78-.48-1.2-1.43-1.2-.75,0-1.28.28-1.42.78h-1c.13-1,1.13-1.68,2.48-1.68,1.54,0,2.4.79,2.4,2.1v4.33h-1v-.93h-.09a2.2,2.2,0,0,1-1.95,1A1.92,1.92,0,0,1,370,222.73Zm4.12-.59v-.58l-1.7.11c-1,.07-1.38.4-1.38,1s.55,1,1.28,1A1.66,1.66,0,0,0,374.1,222.14Z"/><path class="cls-2" d="M376.93,225.2H378c.11.51.68.85,1.58.85,1.14,0,1.81-.56,1.81-1.49v-1.25h-.09a2.19,2.19,0,0,1-2,1.09c-1.64,0-2.65-1.26-2.65-3.15s1-3.18,2.65-3.18a2.25,2.25,0,0,1,2,1.11h.1v-1h1v6.43c0,1.41-1.09,2.31-2.82,2.31C378.05,226.92,377.08,226.24,376.93,225.2Zm4.47-3.95c0-1.38-.71-2.27-1.87-2.27s-1.83.89-1.83,2.27.66,2.26,1.83,2.26S381.4,222.62,381.4,221.25Z"/><path class="cls-2" d="M389.48,222.86a2.53,2.53,0,0,1-2.66,1.75c-1.75,0-2.85-1.27-2.85-3.26s1.11-3.28,2.85-3.28,2.74,1.21,2.74,3.18v.38H385v.05c.05,1.25.75,2,1.82,2a1.64,1.64,0,0,0,1.63-.86Zm-4.46-2h3.48a1.7,1.7,0,0,0-1.69-1.86A1.8,1.8,0,0,0,385,220.82Z"/><path class="cls-2" d="M302.59,239.22a1.78,1.78,0,1,1,1.78,1.78A1.76,1.76,0,0,1,302.59,239.22Z"/><path class="cls-2" d="M312.94,239.52a2.31,2.31,0,0,0,4.61,0V234h1.05v5.55a3.36,3.36,0,0,1-6.71,0V234h1.05Z"/><path class="cls-2" d="M322.87,236.07a2.14,2.14,0,0,1,2.38,1.69h-1c-.13-.5-.63-.83-1.39-.83s-1.33.38-1.33.94.35.7,1.09.88l1,.24c1.19.29,1.77.8,1.77,1.71,0,1.13-1.1,1.91-2.53,1.91s-2.38-.67-2.49-1.72h1a1.39,1.39,0,0,0,1.48.87c.85,0,1.46-.4,1.46-1s-.33-.73-1-.89l-1.09-.27c-1.18-.29-1.72-.8-1.72-1.71S321.53,236.07,322.87,236.07Z"/><path class="cls-2" d="M332.13,240.86a2.52,2.52,0,0,1-2.66,1.75c-1.75,0-2.85-1.27-2.85-3.26s1.12-3.28,2.85-3.28,2.74,1.21,2.74,3.18v.38h-4.54v.05c.06,1.25.75,2,1.82,2a1.63,1.63,0,0,0,1.63-.86Zm-4.46-2h3.48a1.7,1.7,0,0,0-1.69-1.86A1.8,1.8,0,0,0,327.67,238.82Z"/><path class="cls-2" d="M333.8,236.18h1v.94h.09a1.76,1.76,0,0,1,1.75-1.05,3.89,3.89,0,0,1,.51,0v1a3.51,3.51,0,0,0-.65-.06,1.55,1.55,0,0,0-1.66,1.53v3.92h-1Z"/><path class="cls-2" d="M341.38,240.73c0-1.13.83-1.78,2.3-1.87l1.82-.11v-.58c0-.78-.48-1.2-1.43-1.2-.75,0-1.28.28-1.42.78h-1c.13-1,1.13-1.68,2.48-1.68,1.54,0,2.4.79,2.4,2.1v4.33h-1v-.93h-.09a2.2,2.2,0,0,1-1.95,1A1.92,1.92,0,0,1,341.38,240.73Zm4.12-.59v-.58l-1.7.11c-1,.07-1.38.4-1.38,1s.55,1,1.28,1A1.66,1.66,0,0,0,345.5,240.14Z"/><path class="cls-2" d="M353.48,242.5h-1v-1h-.09a2,2,0,0,1-2,1.1c-1.42,0-2.15-.84-2.15-2.34v-4.09h1V240c0,1.13.42,1.66,1.43,1.66a1.59,1.59,0,0,0,1.73-1.77v-3.74h1Z"/><path class="cls-2" d="M356.81,234.55v1.63h1.41V237h-1.41v3.57c0,.74.28,1.06.94,1.06l.47,0v.85a4.07,4.07,0,0,1-.59.06c-1.31,0-1.83-.49-1.83-1.69V237h-1v-.85h1v-1.63Z"/><path class="cls-2" d="M359.8,233.67h1v3.51h.09a2,2,0,0,1,2-1.11,2.09,2.09,0,0,1,2.18,2.34v4.09h-1v-3.85c0-1.11-.51-1.67-1.46-1.67a1.63,1.63,0,0,0-1.75,1.78v3.74h-1Z"/><path class="cls-2" d="M372.06,240.86a2.53,2.53,0,0,1-2.66,1.75c-1.75,0-2.85-1.27-2.85-3.26s1.11-3.28,2.85-3.28,2.74,1.21,2.74,3.18v.38H367.6v.05c0,1.25.75,2,1.82,2a1.64,1.64,0,0,0,1.63-.86Zm-4.46-2h3.48a1.7,1.7,0,0,0-1.69-1.86A1.8,1.8,0,0,0,367.6,238.82Z"/><path class="cls-2" d="M373.72,236.18h1v1h.1a1.88,1.88,0,0,1,1.89-1.11,2.06,2.06,0,0,1,2.21,2.34v4.09h-1v-3.85c0-1.13-.48-1.67-1.49-1.67a1.6,1.6,0,0,0-1.66,1.78v3.74h-1Z"/><path class="cls-2" d="M382.15,234.55v1.63h1.41V237h-1.41v3.57c0,.74.28,1.06.94,1.06l.47,0v.85a3.93,3.93,0,0,1-.59.06c-1.3,0-1.82-.49-1.82-1.69V237h-1v-.85h1v-1.63Z"/><path class="cls-2" d="M384.91,234.2a.7.7,0,1,1,.7.7A.7.7,0,0,1,384.91,234.2Zm.2,2h1v6.32h-1Z"/><path class="cls-2" d="M392.24,238.12a1.56,1.56,0,0,0-1.63-1.14c-1.13,0-1.85.91-1.85,2.34s.73,2.38,1.85,2.38a1.51,1.51,0,0,0,1.63-1.11h1a2.44,2.44,0,0,1-2.64,2c-1.77,0-2.9-1.28-2.9-3.29s1.12-3.25,2.89-3.25a2.47,2.47,0,0,1,2.65,2.05Z"/><path class="cls-2" d="M394.38,240.73c0-1.13.83-1.78,2.3-1.87l1.82-.11v-.58c0-.78-.49-1.2-1.43-1.2-.75,0-1.28.28-1.42.78h-1c.13-1,1.13-1.68,2.48-1.68,1.54,0,2.4.79,2.4,2.1v4.33h-1v-.93h-.1a2.18,2.18,0,0,1-1.94,1A1.92,1.92,0,0,1,394.38,240.73Zm4.12-.59v-.58l-1.7.11c-1,.07-1.38.4-1.38,1s.54,1,1.28,1A1.66,1.66,0,0,0,398.5,240.14Z"/><path class="cls-2" d="M402.8,234.55v1.63h1.41V237H402.8v3.57c0,.74.28,1.06.94,1.06l.47,0v.85a3.93,3.93,0,0,1-.59.06c-1.3,0-1.83-.49-1.83-1.69V237h-1v-.85h1v-1.63Z"/><path class="cls-2" d="M405.56,234.2a.7.7,0,1,1,.7.7A.7.7,0,0,1,405.56,234.2Zm.19,2h1v6.32h-1Z"/><path class="cls-2" d="M408.37,239.34c0-2,1.11-3.27,2.91-3.27s2.91,1.24,2.91,3.27-1.11,3.27-2.91,3.27S408.37,241.37,408.37,239.34Zm4.78,0c0-1.5-.67-2.36-1.87-2.36s-1.87.86-1.87,2.36.67,2.36,1.87,2.36S413.15,240.83,413.15,239.34Z"/><path class="cls-2" d="M415.77,236.18h1v1h.1a1.9,1.9,0,0,1,1.9-1.11,2.06,2.06,0,0,1,2.21,2.34v4.09h-1v-3.85c0-1.13-.48-1.67-1.49-1.67a1.6,1.6,0,0,0-1.66,1.78v3.74h-1Z"/><path class="cls-2" d="M302.59,257.22a1.78,1.78,0,1,1,1.78,1.78A1.76,1.76,0,0,1,302.59,257.22Z"/><path class="cls-2" d="M315.05,252a2.72,2.72,0,0,1,0,5.44h-2.13v3h-1.05V252Zm-2.14,4.5h1.87a1.78,1.78,0,1,0,0-3.56h-1.87Z"/><path class="cls-2" d="M324.46,260.5h-1v-1h-.09a2,2,0,0,1-2,1.1c-1.42,0-2.16-.84-2.16-2.34v-4.09h1V258c0,1.13.42,1.66,1.43,1.66a1.59,1.59,0,0,0,1.72-1.77v-3.74h1Z"/><path class="cls-2" d="M328.57,254.07a2.14,2.14,0,0,1,2.38,1.69h-1c-.13-.5-.63-.83-1.39-.83s-1.33.38-1.33.94.35.7,1.09.88l1,.24c1.18.29,1.76.8,1.76,1.71,0,1.13-1.1,1.91-2.53,1.91s-2.38-.67-2.49-1.72h1a1.39,1.39,0,0,0,1.48.87c.85,0,1.46-.4,1.46-1s-.33-.73-1-.89l-1.08-.27c-1.19-.29-1.73-.8-1.73-1.71S327.23,254.07,328.57,254.07Z"/><path class="cls-2" d="M332.7,251.67h1v3.51h.09a2,2,0,0,1,1.95-1.11,2.09,2.09,0,0,1,2.18,2.34v4.09h-1v-3.85c0-1.11-.51-1.67-1.46-1.67a1.63,1.63,0,0,0-1.75,1.78v3.74h-1Z"/><path class="cls-2" d="M343.15,254.18h1v1h.1a1.89,1.89,0,0,1,1.9-1.11,2.06,2.06,0,0,1,2.21,2.34v4.09h-1v-3.85c0-1.13-.48-1.67-1.49-1.67a1.6,1.6,0,0,0-1.66,1.78v3.74h-1Z"/><path class="cls-2" d="M349.84,257.34c0-2,1.11-3.27,2.91-3.27s2.91,1.24,2.91,3.27-1.11,3.27-2.91,3.27S349.84,259.37,349.84,257.34Zm4.78,0c0-1.5-.67-2.36-1.87-2.36s-1.87.86-1.87,2.36.68,2.36,1.87,2.36S354.62,258.83,354.62,257.34Z"/><path class="cls-2" d="M358.67,252.55v1.63h1.41V255h-1.41v3.57c0,.74.29,1.06.94,1.06l.47,0v.85a3.93,3.93,0,0,1-.59.06c-1.3,0-1.82-.49-1.82-1.69V255h-1v-.85h1v-1.63Z"/><path class="cls-2" d="M361.43,252.2a.7.7,0,1,1,.7.7A.7.7,0,0,1,361.43,252.2Zm.2,2h1v6.32h-1Z"/><path class="cls-2" d="M365,255h-1.05v-.85H365v-.7a1.63,1.63,0,0,1,1.83-1.86,3.62,3.62,0,0,1,.68,0v.82a3.25,3.25,0,0,0-.47,0c-.73,0-1,.35-1,1v.67h1.44V255H366v5.47h-1Z"/><path class="cls-2" d="M368.72,252.2a.71.71,0,1,1,.71.7A.71.71,0,0,1,368.72,252.2Zm.2,2h1v6.32h-1Z"/><path class="cls-2" d="M376.06,256.12a1.56,1.56,0,0,0-1.63-1.14c-1.14,0-1.85.91-1.85,2.34s.73,2.38,1.85,2.38a1.52,1.52,0,0,0,1.63-1.11h1a2.44,2.44,0,0,1-2.64,2c-1.77,0-2.9-1.28-2.9-3.29s1.12-3.25,2.89-3.25a2.48,2.48,0,0,1,2.65,2.05Z"/><path class="cls-2" d="M378.19,258.73c0-1.13.83-1.78,2.3-1.87l1.83-.11v-.58c0-.78-.49-1.2-1.43-1.2-.76,0-1.29.28-1.43.78h-1c.14-1,1.13-1.68,2.48-1.68,1.54,0,2.4.79,2.4,2.1v4.33h-1v-.93h-.09a2.19,2.19,0,0,1-1.95,1A1.92,1.92,0,0,1,378.19,258.73Zm4.13-.59v-.58l-1.7.11c-1,.07-1.39.4-1.39,1s.55,1,1.28,1A1.66,1.66,0,0,0,382.32,258.14Z"/><path class="cls-2" d="M386.62,252.55v1.63H388V255h-1.4v3.57c0,.74.28,1.06.94,1.06l.46,0v.85a3.93,3.93,0,0,1-.59.06c-1.3,0-1.82-.49-1.82-1.69V255h-1v-.85h1v-1.63Z"/><path class="cls-2" d="M389.37,252.2a.71.71,0,1,1,.7.7A.71.71,0,0,1,389.37,252.2Zm.2,2h1v6.32h-1Z"/><path class="cls-2" d="M392.18,257.34c0-2,1.12-3.27,2.92-3.27s2.91,1.24,2.91,3.27-1.11,3.27-2.91,3.27S392.18,259.37,392.18,257.34Zm4.79,0c0-1.5-.68-2.36-1.87-2.36s-1.87.86-1.87,2.36.67,2.36,1.87,2.36S397,258.83,397,257.34Z"/><path class="cls-2" d="M399.59,254.18h1v1h.1a1.88,1.88,0,0,1,1.89-1.11,2.06,2.06,0,0,1,2.21,2.34v4.09h-1v-3.85c0-1.13-.48-1.67-1.48-1.67a1.6,1.6,0,0,0-1.66,1.78v3.74h-1Z"/><path class="cls-2" d="M408.8,254.07c1.33,0,2.25.66,2.38,1.69h-1c-.13-.5-.62-.83-1.38-.83s-1.34.38-1.34.94.35.7,1.1.88l1,.24c1.19.29,1.76.8,1.76,1.71,0,1.13-1.09,1.91-2.53,1.91s-2.37-.67-2.48-1.72h1a1.4,1.4,0,0,0,1.49.87c.85,0,1.45-.4,1.45-1s-.32-.73-1-.89l-1.08-.27c-1.19-.29-1.72-.8-1.72-1.71S407.46,254.07,408.8,254.07Z"/><path class="cls-2" d="M302.59,275.22a1.78,1.78,0,1,1,1.78,1.78A1.76,1.76,0,0,1,302.59,275.22Z"/><path class="cls-2" d="M317.55,278.5v-3.85h-4.64v3.85h-1.05V270h1.05v3.66h4.64V270h1.06v8.46Z"/><path class="cls-2" d="M320.32,275.34c0-2,1.11-3.27,2.91-3.27s2.91,1.24,2.91,3.27-1.11,3.27-2.91,3.27S320.32,277.37,320.32,275.34Zm4.78,0c0-1.5-.67-2.36-1.87-2.36s-1.87.86-1.87,2.36.68,2.36,1.87,2.36S325.1,276.83,325.1,275.34Z"/><path class="cls-2" d="M329.93,272.07c1.33,0,2.25.66,2.38,1.69h-1a1.29,1.29,0,0,0-1.39-.83c-.75,0-1.34.38-1.34.94s.35.7,1.1.88l1,.24c1.19.29,1.76.8,1.76,1.71,0,1.13-1.09,1.91-2.53,1.91s-2.37-.67-2.48-1.72h1a1.39,1.39,0,0,0,1.48.87c.85,0,1.46-.4,1.46-1s-.33-.73-1-.89l-1.09-.27c-1.18-.29-1.72-.8-1.72-1.71S328.59,272.07,329.93,272.07Z"/><path class="cls-2" d="M335.38,270.55v1.63h1.4V273h-1.4v3.57c0,.74.28,1.06.94,1.06l.46,0v.85a3.93,3.93,0,0,1-.59.06c-1.3,0-1.82-.49-1.82-1.69V273h-1v-.85h1v-1.63Z"/><path class="cls-2" d="M338.13,270.2a.71.71,0,1,1,.7.7A.71.71,0,0,1,338.13,270.2Zm.2,2h1v6.32h-1Z"/><path class="cls-2" d="M341.26,272.18h1v1h.1a1.88,1.88,0,0,1,1.89-1.11,2.06,2.06,0,0,1,2.21,2.34v4.09h-1v-3.85c0-1.13-.48-1.67-1.48-1.67a1.6,1.6,0,0,0-1.66,1.78v3.74h-1Z"/><path class="cls-2" d="M348.22,279.2h1.06c.11.51.68.85,1.58.85,1.13,0,1.81-.56,1.81-1.49v-1.25h-.1a2.17,2.17,0,0,1-2,1.09c-1.63,0-2.64-1.26-2.64-3.15s1-3.18,2.64-3.18a2.25,2.25,0,0,1,2,1.11h.1v-1h1v6.43c0,1.41-1.09,2.31-2.82,2.31C349.34,280.92,348.37,280.24,348.22,279.2Zm4.47-3.95c0-1.38-.71-2.27-1.87-2.27s-1.83.89-1.83,2.27.66,2.26,1.83,2.26S352.69,276.62,352.69,275.25Z"/><line class="cls-3" y1="113.33" x2="2" y2="113.33"/><line class="cls-4" x1="5.97" y1="113.33" x2="456.02" y2="113.33"/><line class="cls-3" x1="458" y1="113.33" x2="460" y2="113.33"/><path class="cls-5" d="M281.37,86.25h-8.14l-3.32-12.73h-4.58L258,66.14,245,59l-1.27-2-7.13-17.06-6.11-2-2.29-8.41L211.61,12.16l-9.16,9.68L195.57,28v6.11L183.09,44.24V54.68L168.58,73.52l-4.33,8.66-5.85,3.31-2,11.21-20.88,16.8h151ZM190,50.35,200.66,32,211,21.58l1.4,13.24L207,49.34,205.5,62.83,192,68.69l-7.38-4.59Z"/><path class="cls-6" d="M155.09,131.57l8.14,15.78,1,18.34,7.13,17.57,2.29,29.79,12.22,17.82,3.56,20.37L204,267.53l3.56,12.73,8.4,13.75,7.13-7.63,13.5-8.41,4.07-17.82,6.11-11.46,2.81-18.33,3.82-5.34,5.09-12,6.36-43.28L274,144.56l9.17-10.69,3.31-20.37h-151ZM198.5,237.23,186.15,199.8l-11.46-30,18.72,7.63L196.34,208,211,215.2l1.4,45.45Zm13-81.13,5.86,33.81,3.82,25.84-17.7-12.13-2.16-27.49-13.25-11.46L175.62,136.5Z"/><path class="cls-7" d="M222.33,130.94l-32.55-.36.32-30.1,50.25.6-.17,13.8a13.71,13.71,0,0,1,2.47,1.89L243,91.24a2.48,2.48,0,0,0-2.41-2.47l-50.33-.6a2.45,2.45,0,0,0-2.46,2.4l-.49,40a2.47,2.47,0,0,0,2.41,2.46l34.11.42a13.79,13.79,0,0,1-.84-1.26A11.88,11.88,0,0,1,222.33,130.94ZM196.37,97a1.74,1.74,0,1,1,1.76-1.72A1.74,1.74,0,0,1,196.37,97Zm5.13.06a1.74,1.74,0,1,1,1.76-1.72A1.73,1.73,0,0,1,201.5,97.06Zm5.14.06a1.74,1.74,0,1,1,1.76-1.72A1.74,1.74,0,0,1,206.64,97.12Zm36.12,32.18,1.57.59a10.92,10.92,0,0,0,.66-2.79l-1.66-.17a9.12,9.12,0,0,0-.08-2.44l1.65-.26a10.62,10.62,0,0,0-.82-2.76l-1.49.67,0,0a9.42,9.42,0,0,0-1.19-2,.94.94,0,0,1-.09-.12l.09-.08,1.2-1a11.18,11.18,0,0,0-1.17-1.21,10.9,10.9,0,0,0-.92-.76l-.33.46-.64.9a9.31,9.31,0,0,0-2.15-1.16l.59-1.56a10.43,10.43,0,0,0-2.79-.66L235,116.7a9.12,9.12,0,0,0-2.44.07l-.26-1.65a11.37,11.37,0,0,0-2.75.82l.68,1.53a9,9,0,0,0-2.07,1.28l-1.06-1.3a11.49,11.49,0,0,0-2,2.09l1.36,1a9.24,9.24,0,0,0-1.16,2.14l-1.56-.59a11,11,0,0,0-.66,2.79l1.66.17a9.54,9.54,0,0,0,.07,2.44l-1.65.26a10.91,10.91,0,0,0,.83,2.76l1.52-.69a8.27,8.27,0,0,0,.64,1.17,7.3,7.3,0,0,0,.64.9l-.41.34-.89.72c.16.19.33.35.49.52a11,11,0,0,0,1.6,1.45l1-1.35a9.59,9.59,0,0,0,2.14,1.15l-.59,1.56a11,11,0,0,0,2.8.67l.16-1.67a8.71,8.71,0,0,0,2.44-.07l.27,1.65a11.37,11.37,0,0,0,2.75-.82l-.69-1.53a8.39,8.39,0,0,0,1.51-.88c.19-.13.39-.25.57-.4l.31.39.74.91a10.84,10.84,0,0,0,2-2.09l-.62-.45-.73-.53a9,9,0,0,0,.89-1.57A5.86,5.86,0,0,0,242.76,129.3ZM230.44,131a6,6,0,0,1-1.16-1.1,5.94,5.94,0,0,1-.84-1.36A5.72,5.72,0,0,1,228,127a6.16,6.16,0,0,1,0-1.6,5.74,5.74,0,0,1,.37-1.56,6.25,6.25,0,0,1,.76-1.42,6,6,0,0,1,1.1-1.16,6.17,6.17,0,0,1,1.37-.85,6.46,6.46,0,0,1,1.53-.46,6.22,6.22,0,0,1,1.61,0,5.92,5.92,0,0,1,1.56.37,5.82,5.82,0,0,1,1.41.76,6.09,6.09,0,0,1,1.17,1.1,6,6,0,0,1,1.26,2.72c0,.06,0,.12,0,.18a6.22,6.22,0,0,1,0,1.61q0,.35-.12.69c-.07.29-.15.58-.25.87a6.44,6.44,0,0,1-.77,1.41,6,6,0,0,1-1.1,1.16,4.34,4.34,0,0,1-.49.35,5.77,5.77,0,0,1-.87.5,6.4,6.4,0,0,1-1.54.46,6.15,6.15,0,0,1-1.6,0,5.83,5.83,0,0,1-1.56-.37,6,6,0,0,1-1.32-.7Zm-32.3-22.84-3.34,8.63,1.49,0,.87-2.39,3.3,0,.83,2.41,1.5,0-3.12-8.71Zm-.55,5,.81-2.24a13.05,13.05,0,0,0,.48-1.58q.06.24.21.75c.1.34.18.58.23.74l.78,2.36Zm8.93-4.91-2.48,0-.11,8.63,1.41,0,0-3.23h.9a4,4,0,0,0,2.53-.69,2.53,2.53,0,0,0,.91-2.06,2.36,2.36,0,0,0-.79-2A3.7,3.7,0,0,0,206.52,108.26Zm1.22,3.85a2.65,2.65,0,0,1-1.6.36h-.75l0-3h1a2.31,2.31,0,0,1,1.41.38,1.34,1.34,0,0,1,.44,1.12A1.35,1.35,0,0,1,207.74,112.11Zm5.14-3.77-.1,8.63-1.41,0,.1-8.63Z"/><path class="cls-7" d="M360.56,122.52a27.25,27.25,0,0,0-9,.93,36.58,36.58,0,0,0-6.49,2.63,24.46,24.46,0,0,1-4.64,1.78h.08a8.65,8.65,0,0,1-2,.23h0c-.31,0-.62-.08-.93-.08h0c1.7.7,3.71.31,5.49-.15,2-.47,3.94-1.24,6-1.78h0a29.46,29.46,0,0,1,6.88-.85c5.18.07,10.05,1.78,15,3s10.43,1.86,15.61.39h-1.08a26.83,26.83,0,0,1-7.81-1.39c-5.33-1.63-10.59-4-16.15-4.72a1.8,1.8,0,0,1-.93,0Zm17.08,4.87ZM356,125.3h0Zm-7.11.85h0Z"/><path class="cls-7" d="M356.35,134a23.73,23.73,0,0,0-5.72.54,69.76,69.76,0,0,1-11.91,1.78,49.43,49.43,0,0,1-8.89-1.24c-1.93-.38-3.86-.77-5.79-1a25.86,25.86,0,0,0-7.35,0,51.32,51.32,0,0,0-6.8,1.62h0a28.86,28.86,0,0,1,6.73-.93h-.08a14.71,14.71,0,0,1,4.41.7c2.62.77,5.1,2,7.65,3a20.16,20.16,0,0,0,8.81,1.55,29.68,29.68,0,0,0,8.19-1.86c2.55-.92,5-2,7.66-2.7a20.76,20.76,0,0,1,5.41-.54h-.08c1.16,0,2.32.08,3.48.15h0a34.66,34.66,0,0,0-3.94-.77,5.47,5.47,0,0,0-1.78-.31Z"/><path class="cls-7" d="M309.17,123c-2.48,0-4.95.85-7.35,1.31a40.54,40.54,0,0,1-7.42.77h.16a21,21,0,0,1-6.26-.93h0c-.16,0-.24-.07-.39-.07h0a27.83,27.83,0,0,0,10.28,2.39,43.56,43.56,0,0,0,5.49-.07c1.78-.16,3.55-.47,5.33-.47,2.47.08,4.87.47,7.27.78a37,37,0,0,0,7.65.23h0c-.39-.08-.77-.23-1.16-.31-2.16-.7-4.25-1.63-6.42-2.4a24.14,24.14,0,0,0-4.56-1.08,15.36,15.36,0,0,0-2.62-.15Z"/><path class="cls-7" d="M64.42,118a27.21,27.21,0,0,0-9,.92A37.35,37.35,0,0,0,49,121.58a24.05,24.05,0,0,1-4.64,1.78h.08a8.2,8.2,0,0,1-2,.23h0c-.31,0-.62-.07-.93-.07h0c1.7.69,3.71.3,5.49-.16,2-.46,3.94-1.24,5.95-1.78h0a29.46,29.46,0,0,1,6.88-.85c5.18.08,10,1.78,15,3s10.43,1.85,15.61.38H89.31a26.5,26.5,0,0,1-7.81-1.39c-5.33-1.62-10.59-4-16.15-4.71a2.05,2.05,0,0,1-.93,0ZM81.5,122.9Zm-21.64-2.09h0Zm-7.11.85h0Z"/><path class="cls-7" d="M128,129.83a23.68,23.68,0,0,0-5.72.54,68.93,68.93,0,0,1-11.91,1.78,49.43,49.43,0,0,1-8.89-1.24c-1.93-.38-3.86-.77-5.79-1a25.86,25.86,0,0,0-7.35,0,50.94,50.94,0,0,0-6.8,1.62h0a28.79,28.79,0,0,1,6.73-.93h-.08a14.6,14.6,0,0,1,4.4.7c2.63.77,5.11,2,7.66,3a20.16,20.16,0,0,0,8.81,1.55,30.12,30.12,0,0,0,8.19-1.85c2.55-.93,5-2,7.65-2.71a20.85,20.85,0,0,1,5.41-.54h-.07c1.16,0,2.32.08,3.48.15h0a36.69,36.69,0,0,0-4-.77,5.37,5.37,0,0,0-1.77-.31Z"/><path class="cls-7" d="M120.72,118.78c-2.47,0-5,.85-7.34,1.32a40.72,40.72,0,0,1-7.42.77h.15a21.13,21.13,0,0,1-6.26-.93h0c-.16,0-.23-.07-.39-.07h0a27.88,27.88,0,0,0,10.28,2.39,41.71,41.71,0,0,0,5.49-.08c1.78-.15,3.56-.46,5.33-.46,2.48.08,4.87.46,7.27.77a36.28,36.28,0,0,0,7.65.24h0c-.38-.08-.77-.24-1.16-.31-2.16-.7-4.25-1.63-6.41-2.4a24.5,24.5,0,0,0-4.56-1.08,14.52,14.52,0,0,0-2.63-.16Z"/><line class="cls-8" x1="246.26" y1="113.41" x2="248.26" y2="113.41"/><line class="cls-9" x1="252.29" y1="113.41" x2="282.46" y2="113.41"/><line class="cls-8" x1="284.47" y1="113.41" x2="286.47" y2="113.41"/><line class="cls-8" x1="147.08" y1="113.41" x2="149.08" y2="113.41"/><line class="cls-9" x1="153.1" y1="113.41" x2="183.27" y2="113.41"/><line class="cls-8" x1="185.28" y1="113.41" x2="187.28" y2="113.41"/></svg>