<?xml version="1.0" encoding="utf-8"?>
<!-- Generator: Adobe Illustrator 27.2.0, SVG Export Plug-In . SVG Version: 6.00 Build 0)  -->
<svg version="1.1" id="Layer_3" xmlns="http://www.w3.org/2000/svg" xmlns:xlink="http://www.w3.org/1999/xlink" x="0px" y="0px"
	 viewBox="0 0 383 200.3" style="enable-background:new 0 0 383 200.3;" xml:space="preserve">
<style type="text/css">
	.st0{fill:#F5F5F5;}
	.st1{fill:none;stroke:#EBEBEB;stroke-miterlimit:10;}
	.st2{clip-path:url(#SVGID_00000153689484474388798580000011536715356723533981_);}
	.st3{fill:none;stroke:#EBEBEB;stroke-width:2.19;}
	.st4{fill:#EBEBEB;}
	.st5{fill:#FFFFFF;}
	.st6{clip-path:url(#SVGID_00000019662277643945730460000006697223634342914488_);}
	.st7{fill:none;stroke:#C2C2C2;}
	.st8{fill:none;stroke:#000000;stroke-width:1.5;stroke-miterlimit:10;}
	.st9{fill:#A3106D;}
</style>
<g>
	<path class="st0" d="M10.9,8.7h362.2c2.7,0,4.9,1.8,4.9,4V188c0,2.2-2.2,4-4.9,4H10.9c-2.7,0-4.9-1.8-4.9-4V12.7
		C6,10.5,8.2,8.7,10.9,8.7z"/>
	<rect x="340.1" y="21.4" class="st1" width="19.1" height="19.1"/>
	<g>
		<defs>
			<rect id="SVGID_1_" x="326.2" y="156.9" width="51.8" height="17.9"/>
		</defs>
		<clipPath id="SVGID_00000070097731729008453150000013446323295651070125_">
			<use xlink:href="#SVGID_1_"  style="overflow:visible;"/>
		</clipPath>
		<g style="clip-path:url(#SVGID_00000070097731729008453150000013446323295651070125_);">
			<g id="mask0_1501_9274">
				<line class="st3" x1="302.9" y1="175.5" x2="323.3" y2="155.1"/>
				<line class="st3" x1="346.7" y1="175.5" x2="367.1" y2="155.1"/>
				<line class="st3" x1="298" y1="175.5" x2="318.5" y2="155.1"/>
				<line class="st3" x1="385.7" y1="175.5" x2="406.1" y2="155.1"/>
				<line class="st3" x1="341.8" y1="175.5" x2="362.3" y2="155.1"/>
				<line class="st3" x1="293.1" y1="175.5" x2="313.6" y2="155.1"/>
				<line class="st3" x1="380.8" y1="175.5" x2="401.2" y2="155.1"/>
				<line class="st3" x1="337" y1="175.5" x2="357.4" y2="155.1"/>
				<line class="st3" x1="288.3" y1="175.5" x2="308.7" y2="155.1"/>
				<line class="st3" x1="375.9" y1="175.5" x2="396.3" y2="155.1"/>
				<line class="st3" x1="332.1" y1="175.5" x2="352.5" y2="155.1"/>
				<line class="st3" x1="283.4" y1="175.5" x2="303.8" y2="155.1"/>
				<line class="st3" x1="371" y1="175.5" x2="391.5" y2="155.1"/>
				<line class="st3" x1="327.2" y1="175.5" x2="347.7" y2="155.1"/>
				<line class="st3" x1="278.5" y1="175.5" x2="299" y2="155.1"/>
				<line class="st3" x1="366.2" y1="175.5" x2="386.6" y2="155.1"/>
				<line class="st3" x1="322.4" y1="175.5" x2="342.8" y2="155.1"/>
				<line class="st3" x1="273.7" y1="175.5" x2="294.1" y2="155.1"/>
				<line class="st3" x1="361.3" y1="175.5" x2="381.7" y2="155.1"/>
				<line class="st3" x1="317.5" y1="175.5" x2="337.9" y2="155.1"/>
				<line class="st3" x1="268.8" y1="175.5" x2="289.2" y2="155.1"/>
				<line class="st3" x1="356.4" y1="175.5" x2="376.9" y2="155.1"/>
				<line class="st3" x1="312.6" y1="175.5" x2="333.1" y2="155.1"/>
				<line class="st3" x1="263.9" y1="175.5" x2="284.4" y2="155.1"/>
				<line class="st3" x1="351.6" y1="175.5" x2="372" y2="155.1"/>
				<line class="st3" x1="307.7" y1="175.5" x2="328.2" y2="155.1"/>
			</g>
		</g>
	</g>
	<circle class="st4" cx="9.5" cy="146.5" r="0.8"/>
	<circle class="st4" cx="17.3" cy="146.5" r="0.8"/>
	<circle class="st4" cx="1.6" cy="146.5" r="0.8"/>
	<circle class="st4" cx="25.2" cy="146.5" r="0.8"/>
	<circle class="st4" cx="33" cy="146.5" r="0.8"/>
	<circle class="st4" cx="9.5" cy="170.1" r="0.8"/>
	<circle class="st4" cx="17.3" cy="170.1" r="0.8"/>
	<circle class="st4" cx="1.6" cy="170.1" r="0.8"/>
	<circle class="st4" cx="25.2" cy="170.1" r="0.8"/>
	<circle class="st4" cx="33" cy="170.1" r="0.8"/>
	<circle class="st4" cx="9.5" cy="154.4" r="0.8"/>
	<circle class="st4" cx="17.3" cy="154.4" r="0.8"/>
	<circle class="st4" cx="1.6" cy="154.4" r="0.8"/>
	<circle class="st4" cx="25.2" cy="154.4" r="0.8"/>
	<circle class="st4" cx="33" cy="154.4" r="0.8"/>
	<circle class="st4" cx="9.5" cy="177.9" r="0.8"/>
	<circle class="st4" cx="17.3" cy="177.9" r="0.8"/>
	<circle class="st4" cx="1.6" cy="177.9" r="0.8"/>
	<circle class="st4" cx="25.2" cy="177.9" r="0.8"/>
	<circle class="st4" cx="33" cy="177.9" r="0.8"/>
	<circle class="st4" cx="9.5" cy="162.2" r="0.8"/>
	<circle class="st4" cx="17.3" cy="162.2" r="0.8"/>
	<circle class="st4" cx="1.6" cy="162.2" r="0.8"/>
	<circle class="st4" cx="25.2" cy="162.2" r="0.8"/>
	<circle class="st4" cx="33" cy="162.2" r="0.8"/>
	<circle class="st5" cx="357.2" cy="121.2" r="2.7"/>
	<circle class="st5" cx="368.3" cy="121.2" r="2.7"/>
	<circle class="st5" cx="357.2" cy="156.4" r="2.7"/>
	<circle class="st5" cx="368.3" cy="156.4" r="2.7"/>
	<circle class="st5" cx="357.2" cy="132.9" r="2.7"/>
	<circle class="st5" cx="368.3" cy="132.9" r="2.7"/>
	<circle class="st5" cx="357.2" cy="144.6" r="2.7"/>
	<circle class="st5" cx="368.3" cy="144.6" r="2.7"/>
	<g>
		<defs>
			<rect id="SVGID_00000083774581455634569480000010127683858485079981_" x="6" y="68.3" width="22" height="65.7"/>
		</defs>
		<clipPath id="SVGID_00000018918273966034159140000007132972031631120830_">
			<use xlink:href="#SVGID_00000083774581455634569480000010127683858485079981_"  style="overflow:visible;"/>
		</clipPath>
		<g style="clip-path:url(#SVGID_00000018918273966034159140000007132972031631120830_);">
			<circle class="st4" cx="-6.3" cy="100.8" r="28.8"/>
		</g>
	</g>
	<path class="st7" d="M346.5,33.4l-4.8,19.3h-1.6l4.8-19.3L346.5,33.4z"/>
</g>
<g>
	<path class="st8" d="M127.7,121.3c-3.3-5.4-5.2-11.4-5.2-17.6c0-25.6,30.9-46.3,69-46.3c22.8,0,43.1,7.4,55.6,18.9"/>
	<path class="st8" d="M255.6,86.6c3.1,5.3,4.9,11.1,4.9,17.1c0,25.6-30.9,46.3-69,46.3c-22.6,0-42.7-7.3-55.3-18.6"/>
	<rect x="53.1" y="71.8" class="st9" width="77" height="67.3"/>
	<path class="st5" d="M88.9,95l-1.1,6.5c0,0.1-0.1,0.2-0.2,0.3c-0.1,0.1-0.2,0.1-0.4,0.1h-1.5c-0.1,0-0.3,0-0.4-0.1
		s-0.2-0.2-0.2-0.3L84.6,97c-0.1-0.3-0.1-0.6-0.1-0.9h-0.2c0,0,0,0.1,0,0.4c0,0.2-0.1,0.4-0.1,0.5l-0.7,4.5c0,0.1-0.1,0.2-0.2,0.3
		s-0.2,0.1-0.4,0.1h-1.5c-0.1,0-0.3,0-0.4-0.1c-0.1-0.1-0.2-0.2-0.2-0.3L79.7,95h1.6l0.7,4.8c0,0.3,0.1,0.6,0.1,1h0.2
		c0-0.2,0.1-0.5,0.1-1l0.7-4.3c0-0.1,0.1-0.3,0.2-0.3c0.1-0.1,0.2-0.1,0.4-0.1H85c0.1,0,0.3,0,0.4,0.1c0.1,0.1,0.2,0.2,0.2,0.3
		l0.7,4.3c0.1,0.5,0.1,0.8,0.1,1h0.2c0-0.4,0.1-0.7,0.1-1l0.7-4.8H88.9L88.9,95z"/>
	<path class="st5" d="M92.8,99.9H91c0,0.4,0.2,0.6,0.3,0.7c0.2,0.1,0.5,0.2,0.8,0.2c0.5,0,1.1,0,1.8-0.1l0.1,0.9
		c-0.5,0.2-1.2,0.4-2.2,0.4c-0.9,0-1.6-0.2-2-0.6c-0.4-0.4-0.6-1.1-0.6-2c0-1,0.2-1.6,0.6-2c0.4-0.4,1-0.6,1.9-0.6
		c0.8,0,1.4,0.1,1.8,0.4c0.4,0.3,0.6,0.7,0.6,1.3c0,0.5-0.1,0.8-0.4,1C93.7,99.8,93.3,99.9,92.8,99.9z M91,99.1h1.4
		c0.2,0,0.3,0,0.4-0.1c0.1-0.1,0.1-0.2,0.1-0.4c0-0.2-0.1-0.4-0.2-0.5s-0.3-0.1-0.7-0.1c-0.4,0-0.6,0.1-0.8,0.2S91,98.6,91,99.1z"/>
	<path class="st5" d="M96.7,94.9v1.6c0,0.5,0,0.8-0.1,1.2c0.5-0.5,1.1-0.8,1.8-0.8c0.6,0,1.1,0.2,1.4,0.6s0.4,1.1,0.4,2
		c0,0.8-0.2,1.5-0.5,1.9c-0.3,0.5-1,0.7-1.9,0.7c-0.4,0-0.8,0-1.3-0.1s-0.9-0.2-1.2-0.3v-6.7C95.2,94.9,96.7,94.9,96.7,94.9z
		 M96.7,98.4v2.4c0.3,0.1,0.7,0.1,1,0.1c0.3,0,0.6-0.1,0.7-0.3s0.2-0.6,0.2-1.2c0-0.5-0.1-0.9-0.2-1.1S98.1,98,97.8,98
		C97.5,98,97.1,98.2,96.7,98.4z"/>
	<path class="st5" d="M72.4,106.9v1.6c0,0.5,0,0.8-0.1,1.2c0.5-0.5,1.1-0.8,1.8-0.8c0.6,0,1.1,0.2,1.4,0.6s0.4,1.1,0.4,2
		c0,0.8-0.2,1.5-0.5,1.9c-0.3,0.5-1,0.7-1.9,0.7c-0.4,0-0.8,0-1.3-0.1s-0.9-0.2-1.2-0.3v-6.7C70.9,106.9,72.4,106.9,72.4,106.9z
		 M72.4,110.4v2.4c0.3,0.1,0.7,0.1,1,0.1c0.3,0,0.6-0.1,0.7-0.3s0.2-0.6,0.2-1.2c0-0.5-0.1-0.9-0.2-1.1s-0.4-0.3-0.7-0.3
		C73.2,110,72.8,110.2,72.4,110.4z"/>
	<path class="st5" d="M80.4,108.8l-0.2,1.4h-0.4c-0.3,0-0.8,0.1-1.5,0.3v3.4h-1.5V109H78l0.1,0.7c0.7-0.6,1.3-0.9,2-0.9H80.4z"/>
	<path class="st5" d="M83.4,108.8c0.9,0,1.6,0.2,2,0.6c0.4,0.4,0.6,1.1,0.6,2s-0.2,1.6-0.6,2c-0.4,0.4-1,0.6-2,0.6
		c-0.9,0-1.6-0.2-2-0.6c-0.4-0.4-0.6-1.1-0.6-2c0-1,0.2-1.6,0.6-2C81.8,109,82.5,108.8,83.4,108.8z M83.4,110
		c-0.4,0-0.7,0.1-0.8,0.3c-0.1,0.2-0.2,0.6-0.2,1.2c0,0.6,0.1,1,0.2,1.2c0.1,0.2,0.4,0.3,0.8,0.3c0.4,0,0.6-0.1,0.8-0.3
		c0.1-0.2,0.2-0.6,0.2-1.2c0-0.6-0.1-1-0.2-1.2C84,110.1,83.8,110,83.4,110z"/>
	<path class="st5" d="M94.6,109l-1.2,4.5c-0.1,0.3-0.2,0.4-0.5,0.4h-1.2c-0.1,0-0.2,0-0.3-0.1s-0.2-0.2-0.2-0.3l-0.5-2.8
		c0-0.1,0-0.2,0-0.4s0-0.3-0.1-0.4h-0.1l-0.1,0.8l-0.5,2.8c0,0.1-0.1,0.2-0.2,0.3c-0.1,0.1-0.2,0.1-0.4,0.1h-1.1
		c-0.3,0-0.4-0.1-0.5-0.4l-1.2-4.5h1.5l0.7,3.2c0.1,0.4,0.1,0.6,0.1,0.8h0.1c0-0.1,0-0.2,0.1-0.4c0-0.2,0.1-0.3,0.1-0.4l0.5-2.8
		c0-0.3,0.2-0.4,0.5-0.4h1c0.1,0,0.2,0,0.3,0.1s0.2,0.2,0.2,0.3l0.5,2.8c0,0.1,0,0.2,0.1,0.4s0.1,0.3,0.1,0.4h0.1l0.1-0.8l0.7-3.2
		C93.1,109,94.6,109,94.6,109z"/>
	<path class="st5" d="M97.5,112.1l-1.2-0.3c-0.5-0.1-0.8-0.3-0.9-0.5s-0.3-0.5-0.3-1c0-0.5,0.2-0.9,0.5-1.1s0.9-0.3,1.6-0.3
		c0.9,0,1.6,0.1,2.3,0.2l-0.1,0.9c-0.8,0-1.5,0-1.9,0c-0.2,0-0.4,0-0.5,0s-0.2,0-0.3,0s-0.1,0.1-0.2,0.1c0,0,0,0.1,0,0.2
		c0,0,0,0.1,0,0.1c0,0,0,0.1,0,0.1s0,0,0,0.1s0,0,0.1,0s0,0,0.1,0c0,0,0,0,0.1,0c0,0,0.1,0,0.1,0c0,0,0.1,0,0.1,0s0.1,0,0.1,0
		l1.3,0.3c0.4,0.1,0.8,0.3,0.9,0.5s0.3,0.5,0.3,0.9c0,0.6-0.2,1-0.5,1.2s-0.9,0.3-1.8,0.3c-0.8,0-1.5-0.1-2.2-0.2l0.1-1
		c0.2,0,0.8,0,1.7,0c0.5,0,0.8,0,1-0.1c0.2,0,0.2-0.1,0.2-0.3c0,0,0-0.1,0-0.1c0,0,0-0.1,0-0.1s0,0,0-0.1c0,0,0,0-0.1,0
		c0,0-0.1,0-0.1,0c0,0,0,0-0.1,0c0,0-0.1,0-0.1,0c0,0-0.1,0-0.1,0C97.6,112.1,97.6,112.1,97.5,112.1z"/>
	<path class="st5" d="M103.8,111.9H102c0,0.4,0.2,0.6,0.3,0.7c0.2,0.1,0.5,0.2,0.8,0.2c0.5,0,1.1,0,1.8-0.1l0.1,0.9
		c-0.5,0.2-1.2,0.4-2.2,0.4c-0.9,0-1.6-0.2-2-0.6c-0.4-0.4-0.6-1.1-0.6-2c0-1,0.2-1.6,0.6-2c0.4-0.4,1-0.6,1.9-0.6
		c0.8,0,1.4,0.1,1.8,0.4c0.4,0.3,0.6,0.7,0.6,1.3c0,0.5-0.1,0.8-0.4,1C104.7,111.8,104.3,111.9,103.8,111.9z M102,111.1h1.4
		c0.2,0,0.3,0,0.4-0.1c0.1-0.1,0.1-0.2,0.1-0.4c0-0.2-0.1-0.4-0.2-0.5s-0.3-0.1-0.7-0.1c-0.4,0-0.6,0.1-0.8,0.2
		C102.1,110.3,102,110.6,102,111.1z"/>
	<path class="st5" d="M109.8,108.8l-0.2,1.4h-0.4c-0.3,0-0.8,0.1-1.5,0.3v3.4h-1.5V109h1.1l0.1,0.7c0.7-0.6,1.3-0.9,2-0.9H109.8z"/>
	<rect x="252.9" y="72.3" class="st9" width="77" height="67.3"/>
	<path class="st5" d="M289.6,84.5l-1.1,6.5c0,0.1-0.1,0.2-0.2,0.3c-0.1,0.1-0.2,0.1-0.4,0.1h-1.5c-0.1,0-0.3,0-0.4-0.1
		s-0.2-0.2-0.2-0.3l-0.8-4.5c-0.1-0.3-0.1-0.6-0.1-0.9h-0.2c0,0,0,0.1,0,0.4c0,0.2-0.1,0.4-0.1,0.5l-0.7,4.5c0,0.1-0.1,0.2-0.2,0.3
		s-0.2,0.1-0.4,0.1H282c-0.1,0-0.3,0-0.4-0.1c-0.1-0.1-0.2-0.2-0.2-0.3l-1.1-6.5h1.6l0.7,4.8c0,0.3,0.1,0.6,0.1,1h0.2
		c0-0.2,0.1-0.5,0.1-1l0.7-4.3c0-0.1,0.1-0.3,0.2-0.3c0.1-0.1,0.2-0.1,0.4-0.1h1.3c0.1,0,0.3,0,0.4,0.1c0.1,0.1,0.2,0.2,0.2,0.3
		l0.7,4.3c0.1,0.5,0.1,0.8,0.1,1h0.2c0-0.4,0.1-0.7,0.1-1l0.7-4.8H289.6L289.6,84.5z"/>
	<path class="st5" d="M293.5,89.4h-1.8c0,0.4,0.2,0.6,0.3,0.7c0.2,0.1,0.5,0.2,0.8,0.2c0.5,0,1.1,0,1.8-0.1l0.1,0.9
		c-0.5,0.2-1.2,0.4-2.1,0.4c-0.9,0-1.6-0.2-2-0.6c-0.4-0.4-0.6-1.1-0.6-2c0-1,0.2-1.6,0.6-2c0.4-0.4,1-0.6,1.9-0.6
		c0.8,0,1.4,0.1,1.8,0.4c0.4,0.3,0.6,0.7,0.6,1.3c0,0.5-0.1,0.8-0.4,1C294.4,89.3,294,89.4,293.5,89.4L293.5,89.4z M291.7,88.5h1.4
		c0.2,0,0.3,0,0.4-0.1c0.1-0.1,0.1-0.2,0.1-0.4c0-0.2-0.1-0.4-0.2-0.5s-0.3-0.1-0.7-0.1c-0.4,0-0.6,0.1-0.8,0.2
		C291.8,87.7,291.7,88.1,291.7,88.5L291.7,88.5z"/>
	<path class="st5" d="M297.4,84.4v1.6c0,0.5,0,0.8-0.1,1.2c0.5-0.5,1.1-0.8,1.8-0.8c0.6,0,1.1,0.2,1.4,0.6s0.4,1.1,0.4,2
		c0,0.8-0.2,1.5-0.5,1.9c-0.3,0.5-1,0.7-1.9,0.7c-0.4,0-0.8,0-1.3-0.1s-0.9-0.2-1.2-0.3v-6.7H297.4z M297.4,87.9v2.4
		c0.3,0.1,0.7,0.1,1,0.1c0.3,0,0.6-0.1,0.7-0.3s0.2-0.6,0.2-1.2c0-0.5-0.1-0.9-0.2-1.1s-0.4-0.3-0.7-0.3
		C298.1,87.5,297.8,87.6,297.4,87.9L297.4,87.9z"/>
	<path class="st5" d="M279.4,101.5l-1.2-0.3c-0.5-0.1-0.8-0.3-0.9-0.5s-0.3-0.5-0.3-1c0-0.5,0.2-0.9,0.5-1.1s0.9-0.3,1.6-0.3
		c0.9,0,1.6,0.1,2.3,0.2l-0.1,0.9c-0.8,0-1.5,0-1.9,0c-0.2,0-0.4,0-0.5,0s-0.2,0-0.3,0s-0.1,0.1-0.2,0.1c0,0,0,0.1,0,0.2
		c0,0,0,0.1,0,0.1c0,0,0,0.1,0,0.1s0,0,0,0.1s0,0,0.1,0s0,0,0.1,0c0,0,0,0,0.1,0c0,0,0.1,0,0.1,0c0,0,0.1,0,0.1,0s0.1,0,0.1,0
		l1.3,0.3c0.4,0.1,0.8,0.3,0.9,0.5s0.3,0.5,0.3,0.9c0,0.6-0.2,1-0.5,1.2s-0.9,0.3-1.8,0.3c-0.8,0-1.5-0.1-2.2-0.2l0.1-1
		c0.2,0,0.8,0,1.7,0c0.5,0,0.8,0,1-0.1c0.2,0,0.2-0.1,0.2-0.3c0,0,0-0.1,0-0.1c0,0,0-0.1,0-0.1s0,0,0-0.1c0,0,0,0-0.1,0
		c0,0-0.1,0-0.1,0c0,0,0,0-0.1,0c0,0-0.1,0-0.1,0c0,0-0.1,0-0.1,0C279.5,101.6,279.4,101.5,279.4,101.5L279.4,101.5z"/>
	<path class="st5" d="M285.6,101.4h-1.8c0,0.4,0.2,0.6,0.3,0.7c0.2,0.1,0.5,0.2,0.8,0.2c0.5,0,1.1,0,1.8-0.1l0.1,0.9
		c-0.5,0.2-1.2,0.4-2.1,0.4c-0.9,0-1.6-0.2-2-0.6c-0.4-0.4-0.6-1.1-0.6-2c0-1,0.2-1.6,0.6-2c0.4-0.4,1-0.6,1.9-0.6
		c0.8,0,1.4,0.1,1.8,0.4c0.4,0.3,0.6,0.7,0.6,1.3c0,0.5-0.1,0.8-0.4,1C286.5,101.3,286.2,101.4,285.6,101.4L285.6,101.4z
		 M283.8,100.5h1.4c0.2,0,0.3,0,0.4-0.1c0.1-0.1,0.1-0.2,0.1-0.4c0-0.2-0.1-0.4-0.2-0.5s-0.3-0.1-0.7-0.1c-0.4,0-0.6,0.1-0.8,0.2
		C283.9,99.7,283.8,100.1,283.8,100.5L283.8,100.5z"/>
	<path class="st5" d="M291.6,98.3l-0.1,1.4h-0.4c-0.3,0-0.8,0.1-1.5,0.3v3.4h-1.5v-4.9h1.1l0.1,0.7c0.7-0.6,1.3-0.9,2-0.9H291.6z"/>
	<path class="st5" d="M297.3,98.4l-1.6,4.6c-0.1,0.2-0.2,0.3-0.5,0.3h-1.3c-0.2,0-0.4-0.1-0.5-0.3l-1.6-4.6h1.6l0.9,3.1
		c0.1,0.3,0.1,0.6,0.2,0.9h0.1l0.2-0.9l0.9-3.1H297.3z"/>
	<path class="st5" d="M301,101.4h-1.8c0,0.4,0.2,0.6,0.3,0.7c0.2,0.1,0.5,0.2,0.8,0.2c0.5,0,1.1,0,1.8-0.1l0.1,0.9
		c-0.5,0.2-1.2,0.4-2.1,0.4c-0.9,0-1.6-0.2-2-0.6c-0.4-0.4-0.6-1.1-0.6-2c0-1,0.2-1.6,0.6-2c0.4-0.4,1-0.6,1.9-0.6
		c0.8,0,1.4,0.1,1.8,0.4c0.4,0.3,0.6,0.7,0.6,1.3c0,0.5-0.1,0.8-0.4,1C301.9,101.3,301.6,101.4,301,101.4L301,101.4z M299.2,100.5
		h1.4c0.2,0,0.3,0,0.4-0.1c0.1-0.1,0.1-0.2,0.1-0.4c0-0.2-0.1-0.4-0.2-0.5s-0.3-0.1-0.7-0.1c-0.4,0-0.6,0.1-0.8,0.2
		C299.3,99.7,299.2,100.1,299.2,100.5L299.2,100.5z"/>
	<path class="st5" d="M307,98.3l-0.1,1.4h-0.4c-0.3,0-0.8,0.1-1.5,0.3v3.4h-1.5v-4.9h1.1l0.1,0.7c0.7-0.6,1.3-0.9,2-0.9H307z"/>
	<path class="st5" d="M266.1,108.4v5.4c0,0.3,0.2,0.5,0.6,0.5h0.4l0.2,1c-0.3,0.1-0.6,0.2-1.2,0.2c-0.4,0-0.8-0.1-1-0.4
		c-0.3-0.2-0.4-0.6-0.4-1v-5.8C264.6,108.4,266.1,108.4,266.1,108.4z"/>
	<path class="st5" d="M268.3,108.3h0.7c0.3,0,0.4,0.1,0.4,0.4v0.5c0,0.3-0.1,0.4-0.4,0.4h-0.7c-0.3,0-0.4-0.1-0.4-0.4v-0.5
		C267.9,108.4,268,108.3,268.3,108.3z M269.4,115.4h-1.5v-4.9h1.5V115.4z"/>
	<path class="st5" d="M272.8,113.5l-1.2-0.3c-0.5-0.1-0.8-0.3-0.9-0.5s-0.3-0.5-0.3-1c0-0.5,0.2-0.9,0.5-1.1s0.9-0.3,1.6-0.3
		c0.9,0,1.6,0.1,2.3,0.2l-0.1,0.9c-0.8,0-1.5,0-1.9,0c-0.2,0-0.4,0-0.5,0s-0.2,0-0.3,0s-0.1,0.1-0.2,0.1c0,0,0,0.1,0,0.2
		c0,0,0,0.1,0,0.1c0,0,0,0.1,0,0.1s0,0,0,0.1s0,0,0.1,0s0,0,0.1,0c0,0,0,0,0.1,0c0,0,0.1,0,0.1,0c0,0,0.1,0,0.1,0s0.1,0,0.1,0
		l1.3,0.3c0.4,0.1,0.8,0.3,0.9,0.5s0.3,0.5,0.3,0.9c0,0.6-0.2,1-0.5,1.2s-0.9,0.3-1.8,0.3c-0.8,0-1.5-0.1-2.2-0.2l0.1-1
		c0.2,0,0.8,0,1.7,0c0.5,0,0.8,0,1-0.1c0.2,0,0.2-0.1,0.2-0.3c0,0,0-0.1,0-0.1c0,0,0-0.1,0-0.1s0,0,0-0.1c0,0,0,0-0.1,0
		c0,0-0.1,0-0.1,0c0,0,0,0-0.1,0c0,0-0.1,0-0.1,0c0,0-0.1,0-0.1,0C272.9,113.6,272.9,113.5,272.8,113.5L272.8,113.5z"/>
	<path class="st5" d="M277.8,111.4v2.3c0,0.2,0,0.3,0.1,0.4s0.2,0.1,0.4,0.1h0.6l0.2,1c-0.4,0.1-0.8,0.2-1.4,0.2
		c-0.4,0-0.8-0.1-1-0.4c-0.2-0.2-0.4-0.6-0.4-1v-2.6h-0.9v-0.9l0.9-0.1v-1.4h1.5v1.4h1.4v1L277.8,111.4L277.8,111.4z"/>
	<path class="st5" d="M283.1,113.4h-1.8c0,0.4,0.2,0.6,0.3,0.7c0.2,0.1,0.5,0.2,0.8,0.2c0.5,0,1.1,0,1.8-0.1l0.1,0.9
		c-0.5,0.2-1.2,0.4-2.1,0.4c-0.9,0-1.6-0.2-2-0.6c-0.4-0.4-0.6-1.1-0.6-2c0-1,0.2-1.6,0.6-2c0.4-0.4,1-0.6,1.9-0.6
		c0.8,0,1.4,0.1,1.8,0.4c0.4,0.3,0.6,0.7,0.6,1.3c0,0.5-0.1,0.8-0.4,1C284.1,113.3,283.7,113.4,283.1,113.4L283.1,113.4z
		 M281.3,112.5h1.4c0.2,0,0.3,0,0.4-0.1c0.1-0.1,0.1-0.2,0.1-0.4c0-0.2-0.1-0.4-0.2-0.5s-0.3-0.1-0.7-0.1c-0.4,0-0.6,0.1-0.8,0.2
		C281.4,111.7,281.4,112.1,281.3,112.5L281.3,112.5z"/>
	<path class="st5" d="M286.8,110.4l0.1,0.7c0.7-0.6,1.4-0.9,2.1-0.9c0.4,0,0.8,0.1,1,0.3c0.2,0.2,0.4,0.6,0.4,1v3.7h-1.5v-3.2
		c0-0.2,0-0.4-0.1-0.5s-0.2-0.1-0.4-0.1c-0.3,0-0.8,0.2-1.4,0.4v3.4h-1.5v-4.9L286.8,110.4L286.8,110.4z"/>
	<path class="st5" d="M292,108.3h0.7c0.3,0,0.4,0.1,0.4,0.4v0.5c0,0.3-0.1,0.4-0.4,0.4H292c-0.3,0-0.4-0.1-0.4-0.4v-0.5
		C291.6,108.4,291.8,108.3,292,108.3z M293.1,115.4h-1.5v-4.9h1.5V115.4z"/>
	<path class="st5" d="M295.6,110.4l0.1,0.7c0.7-0.6,1.4-0.9,2.1-0.9c0.4,0,0.8,0.1,1,0.3c0.2,0.2,0.4,0.6,0.4,1v3.7h-1.5v-3.2
		c0-0.2,0-0.4-0.1-0.5s-0.2-0.1-0.4-0.1c-0.3,0-0.8,0.2-1.4,0.4v3.4h-1.5v-4.9L295.6,110.4L295.6,110.4z"/>
	<path class="st5" d="M305.3,111.1l-0.6,0.1c0.1,0.2,0.1,0.4,0.1,0.7c0,0.6-0.2,1-0.5,1.2c-0.3,0.2-0.9,0.4-1.8,0.4
		c-0.3,0-0.6,0-0.9-0.1c-0.1,0.1-0.1,0.2,0,0.4s0.2,0.2,0.3,0.2l1.8,0.2c0.5,0.1,0.9,0.2,1.1,0.4c0.2,0.2,0.3,0.6,0.3,1
		c0,0.6-0.2,1.1-0.6,1.3c-0.4,0.2-1.1,0.3-2,0.3c-1,0-1.7-0.1-2.1-0.3s-0.5-0.6-0.5-1.2c0-0.3,0.1-0.5,0.2-0.6
		c0.1-0.2,0.3-0.3,0.6-0.4c-0.2-0.2-0.3-0.5-0.3-0.8c0-0.3,0.2-0.6,0.4-0.7c-0.5-0.2-0.7-0.7-0.7-1.3c0-0.6,0.2-1,0.5-1.2
		s1-0.4,1.8-0.4c0.5,0,1,0,1.3,0.1h1.6L305.3,111.1L305.3,111.1z M302.9,115.2l-1.2-0.1c-0.2,0.2-0.3,0.4-0.3,0.6
		c0,0.2,0.1,0.4,0.2,0.5c0.1,0.1,0.5,0.1,1,0.1c0.5,0,0.8,0,1-0.1c0.2-0.1,0.2-0.2,0.2-0.4c0-0.2,0-0.3-0.1-0.3
		C303.5,115.3,303.3,115.2,302.9,115.2L302.9,115.2z M302.5,112.5c0.4,0,0.6,0,0.7-0.1c0.1-0.1,0.2-0.3,0.2-0.5
		c0-0.2-0.1-0.4-0.2-0.5c-0.1-0.1-0.4-0.1-0.8-0.1c-0.4,0-0.6,0-0.8,0.1s-0.2,0.3-0.2,0.5c0,0.2,0.1,0.4,0.2,0.5
		C301.9,112.5,302.1,112.5,302.5,112.5L302.5,112.5z"/>
	<path class="st5" d="M310.6,110.3c0.9,0,1.6,0.2,2,0.6c0.4,0.4,0.6,1.1,0.6,2s-0.2,1.6-0.6,2c-0.4,0.4-1,0.6-2,0.6
		c-0.9,0-1.6-0.2-2-0.6c-0.4-0.4-0.6-1.1-0.6-2c0-1,0.2-1.6,0.6-2C309.1,110.5,309.7,110.3,310.6,110.3z M310.6,111.4
		c-0.4,0-0.7,0.1-0.8,0.3c-0.1,0.2-0.2,0.6-0.2,1.2c0,0.6,0.1,1,0.2,1.2c0.1,0.2,0.4,0.3,0.8,0.3c0.4,0,0.6-0.1,0.8-0.3
		c0.1-0.2,0.2-0.6,0.2-1.2c0-0.6-0.1-1-0.2-1.2C311.3,111.5,311,111.4,310.6,111.4L310.6,111.4z"/>
	<path class="st5" d="M315.4,110.4l0.1,0.7c0.7-0.6,1.4-0.9,2.1-0.9c0.4,0,0.8,0.1,1,0.3c0.2,0.2,0.4,0.6,0.4,1v3.7h-1.5v-3.2
		c0-0.2,0-0.4-0.1-0.5s-0.2-0.1-0.4-0.1c-0.3,0-0.8,0.2-1.4,0.4v3.4h-1.5v-4.9L315.4,110.4L315.4,110.4z"/>
	<path class="st5" d="M276.1,122.4l0.1,0.7c0.2-0.2,0.5-0.4,0.9-0.6c0.4-0.2,0.7-0.2,1.1-0.2c1.1,0,1.7,0.9,1.7,2.6
		c0,0.9-0.2,1.6-0.5,2s-0.8,0.6-1.4,0.6c-0.7,0-1.2-0.2-1.6-0.5c0,0.3,0,0.7,0,1.1v1.2h-1.5v-6.8L276.1,122.4L276.1,122.4z
		 M276.4,123.9v2.3c0.5,0.1,0.9,0.2,1.1,0.2c0.3,0,0.6-0.1,0.7-0.3s0.2-0.6,0.2-1.2c0-0.6-0.1-1-0.2-1.2s-0.3-0.3-0.6-0.3
		C277.3,123.5,276.9,123.6,276.4,123.9L276.4,123.9z"/>
	<path class="st5" d="M283.3,122.3c0.9,0,1.6,0.2,2,0.6c0.4,0.4,0.6,1.1,0.6,2s-0.2,1.6-0.6,2c-0.4,0.4-1,0.6-2,0.6
		c-0.9,0-1.6-0.2-2-0.6c-0.4-0.4-0.6-1.1-0.6-2c0-1,0.2-1.6,0.6-2C281.7,122.5,282.3,122.3,283.3,122.3z M283.3,123.4
		c-0.4,0-0.7,0.1-0.8,0.3c-0.1,0.2-0.2,0.6-0.2,1.2c0,0.6,0.1,1,0.2,1.2c0.1,0.2,0.4,0.3,0.8,0.3c0.4,0,0.6-0.1,0.8-0.3
		c0.1-0.2,0.2-0.6,0.2-1.2c0-0.6-0.1-1-0.2-1.2C283.9,123.5,283.7,123.4,283.3,123.4L283.3,123.4z"/>
	<path class="st5" d="M290.4,122.3l-0.1,1.4h-0.4c-0.3,0-0.8,0.1-1.5,0.3v3.4h-1.5v-4.9h1.1l0.1,0.7c0.7-0.6,1.3-0.9,2-0.9H290.4z"
		/>
	<path class="st5" d="M293,123.4v2.3c0,0.2,0,0.3,0.1,0.4s0.2,0.1,0.4,0.1h0.6l0.2,1c-0.4,0.1-0.8,0.2-1.4,0.2c-0.4,0-0.8-0.1-1-0.4
		c-0.2-0.2-0.4-0.6-0.4-1v-2.6h-0.9v-0.9l0.9-0.1v-1.4h1.5v1.4h1.4v1L293,123.4L293,123.4z"/>
	<path class="st5" d="M298.5,123.8L298.5,123.8c-0.3-0.1-0.6-0.2-0.8-0.5c-0.2-0.3-0.2-0.7-0.2-1.1c0-0.7,0.2-1.1,0.5-1.4
		c0.3-0.3,1-0.4,1.9-0.4c0.9,0,1.6,0.1,1.9,0.4c0.3,0.3,0.5,0.8,0.5,1.4c0,0.4-0.1,0.8-0.3,1.1s-0.4,0.5-0.8,0.5v0
		c0.4,0,0.7,0.2,0.9,0.5c0.2,0.3,0.3,0.8,0.3,1.3c0,0.7-0.2,1.1-0.5,1.4s-1,0.4-2,0.4c-1,0-1.7-0.1-2-0.4c-0.4-0.3-0.5-0.8-0.5-1.4
		C297.3,124.5,297.7,123.9,298.5,123.8L298.5,123.8z M299.9,124.3c-0.5,0-0.8,0.1-0.9,0.2s-0.2,0.4-0.2,0.8c0,0.4,0.1,0.6,0.2,0.8
		c0.2,0.1,0.5,0.2,0.9,0.2c0.4,0,0.7-0.1,0.9-0.2s0.2-0.4,0.2-0.8c0-0.4-0.1-0.7-0.2-0.8S300.3,124.3,299.9,124.3L299.9,124.3z
		 M299.8,121.4c-0.4,0-0.7,0.1-0.8,0.2c-0.1,0.1-0.2,0.4-0.2,0.7c0,0.4,0.1,0.6,0.2,0.7c0.1,0.1,0.4,0.2,0.8,0.2
		c0.4,0,0.7-0.1,0.8-0.2c0.1-0.1,0.2-0.4,0.2-0.7c0-0.4-0.1-0.6-0.2-0.7C300.5,121.5,300.3,121.4,299.8,121.4z"/>
	<path class="st5" d="M306.1,120.3c1,0,1.7,0.3,2.1,0.8s0.6,1.5,0.6,2.8s-0.2,2.2-0.6,2.8s-1.1,0.8-2.1,0.8c-1,0-1.7-0.3-2.1-0.8
		s-0.6-1.5-0.6-2.8s0.2-2.2,0.6-2.8S305.1,120.3,306.1,120.3z M306.1,121.5c-0.4,0-0.7,0.2-0.9,0.5c-0.2,0.3-0.2,1-0.2,1.9
		c0,0.9,0.1,1.6,0.2,1.9c0.2,0.3,0.5,0.5,0.9,0.5c0.5,0,0.8-0.2,0.9-0.5c0.2-0.3,0.2-1,0.2-1.9s-0.1-1.6-0.2-1.9
		S306.5,121.5,306.1,121.5z"/>
	<rect x="74.7" y="44.9" width="37" height="17.2"/>
	<path class="st5" d="M85.3,55.5l0.1,1.1c-0.6,0.2-1.3,0.3-2.1,0.3c-1,0-1.7-0.3-2.1-0.8c-0.4-0.5-0.6-1.4-0.6-2.6
		c0-1.2,0.2-2.1,0.6-2.6c0.4-0.5,1.1-0.8,2.1-0.8c0.7,0,1.4,0.1,2,0.2l-0.1,1.1c-0.5,0-1.1,0-1.8,0c-0.5,0-0.8,0.2-1,0.4
		c-0.2,0.3-0.3,0.9-0.3,1.7s0.1,1.4,0.3,1.7c0.2,0.3,0.5,0.4,1,0.4C84.2,55.6,84.8,55.5,85.3,55.5z"/>
	<path class="st5" d="M87.6,50.1v5.1c0,0.3,0.2,0.5,0.5,0.5h0.4l0.2,1c-0.2,0.1-0.6,0.2-1.1,0.2c-0.4,0-0.7-0.1-1-0.3
		c-0.2-0.2-0.4-0.5-0.4-1v-5.4C86.2,50.1,87.6,50.1,87.6,50.1z"/>
	<path class="st5" d="M89.7,50h0.6c0.3,0,0.4,0.1,0.4,0.4v0.5c0,0.3-0.1,0.4-0.4,0.4h-0.6c-0.3,0-0.4-0.1-0.4-0.4v-0.5
		C89.3,50.1,89.5,50,89.7,50z M90.7,56.7h-1.4V52h1.4V56.7z"/>
	<path class="st5" d="M94.9,54.8h-1.7c0,0.3,0.1,0.6,0.3,0.7s0.4,0.2,0.8,0.2c0.5,0,1.1,0,1.7-0.1l0.1,0.9c-0.5,0.2-1.2,0.3-2,0.3
		c-0.9,0-1.5-0.2-1.9-0.6s-0.6-1-0.6-1.9c0-0.9,0.2-1.6,0.5-1.9c0.4-0.4,1-0.5,1.8-0.5c0.8,0,1.3,0.1,1.7,0.4s0.5,0.7,0.5,1.2
		c0,0.4-0.1,0.8-0.3,1C95.8,54.7,95.4,54.8,94.9,54.8z M93.2,54h1.3c0.2,0,0.3,0,0.3-0.1s0.1-0.2,0.1-0.4c0-0.2-0.1-0.4-0.2-0.5
		c-0.1-0.1-0.3-0.1-0.6-0.1c-0.4,0-0.6,0.1-0.7,0.2C93.3,53.3,93.2,53.6,93.2,54z"/>
	<path class="st5" d="M98.4,52l0.1,0.7c0.7-0.5,1.3-0.8,2-0.8c0.4,0,0.7,0.1,1,0.3c0.2,0.2,0.3,0.5,0.3,1v3.5h-1.4v-3.1
		c0-0.2,0-0.4-0.1-0.4c-0.1-0.1-0.2-0.1-0.4-0.1c-0.3,0-0.7,0.1-1.3,0.4v3.2h-1.4V52C97.2,52,98.4,52,98.4,52z"/>
	<path class="st5" d="M104.7,53v2.2c0,0.2,0,0.3,0.1,0.4s0.2,0.1,0.4,0.1h0.6l0.2,1c-0.4,0.1-0.8,0.2-1.3,0.2c-0.4,0-0.8-0.1-1-0.4
		s-0.3-0.6-0.3-1V53h-0.8v-0.9l0.8,0v-1.3h1.4V52h1.3V53L104.7,53L104.7,53z"/>
	<rect x="269.3" y="44.9" width="38.6" height="17.2"/>
	<path class="st5" d="M277.1,53.6l-1.3-0.5c-0.5-0.2-0.8-0.4-1-0.7s-0.3-0.7-0.3-1.2c0-0.7,0.2-1.2,0.5-1.4c0.4-0.2,1-0.4,1.9-0.4
		c0.8,0,1.5,0.1,2.1,0.3l-0.1,1c-0.5,0-1.2,0-2,0c-0.4,0-0.6,0-0.8,0.1c-0.1,0.1-0.2,0.2-0.2,0.5c0,0.2,0,0.4,0.1,0.5
		s0.3,0.2,0.5,0.3l1.2,0.4c0.5,0.2,0.9,0.4,1.1,0.7c0.2,0.3,0.3,0.7,0.3,1.2c0,0.7-0.2,1.2-0.5,1.5s-1,0.4-1.9,0.4
		c-0.7,0-1.5-0.1-2.2-0.2l0.1-1c1.3,0,2.1,0,2.2,0c0.4,0,0.6,0,0.8-0.1c0.1-0.1,0.2-0.3,0.2-0.5c0-0.2,0-0.4-0.1-0.5
		C277.5,53.8,277.3,53.7,277.1,53.6L277.1,53.6z"/>
	<path class="st5" d="M283.1,54.2h-1.7c0,0.3,0.1,0.6,0.3,0.7s0.4,0.2,0.8,0.2c0.5,0,1.1,0,1.7-0.1l0.1,0.9c-0.5,0.2-1.2,0.3-2,0.3
		c-0.9,0-1.5-0.2-1.9-0.6s-0.6-1-0.6-1.9c0-0.9,0.2-1.6,0.5-1.9c0.4-0.4,1-0.5,1.8-0.5c0.8,0,1.3,0.1,1.7,0.4s0.5,0.7,0.5,1.2
		c0,0.4-0.1,0.8-0.3,1C283.9,54.1,283.6,54.2,283.1,54.2z M281.3,53.4h1.3c0.2,0,0.3,0,0.3-0.1s0.1-0.2,0.1-0.4
		c0-0.2-0.1-0.4-0.2-0.5c-0.1-0.1-0.3-0.1-0.6-0.1c-0.4,0-0.6,0.1-0.7,0.2C281.4,52.6,281.4,52.9,281.3,53.4z"/>
	<path class="st5" d="M288.7,51.3l-0.1,1.3h-0.4c-0.3,0-0.8,0.1-1.4,0.3v3.2h-1.4v-4.7h1.1l0.1,0.7c0.6-0.5,1.3-0.8,1.9-0.8H288.7z"
		/>
	<path class="st5" d="M294.1,51.4l-1.5,4.3c-0.1,0.2-0.2,0.3-0.5,0.3h-1.2c-0.2,0-0.4-0.1-0.5-0.3l-1.5-4.3h1.5l0.8,2.9
		c0.1,0.3,0.1,0.5,0.2,0.8h0.1l0.2-0.8l0.8-2.9H294.1L294.1,51.4z"/>
	<path class="st5" d="M297.6,54.2h-1.7c0,0.3,0.1,0.6,0.3,0.7s0.4,0.2,0.8,0.2c0.5,0,1.1,0,1.7-0.1l0.1,0.9c-0.5,0.2-1.2,0.3-2,0.3
		c-0.9,0-1.5-0.2-1.9-0.6s-0.6-1-0.6-1.9c0-0.9,0.2-1.6,0.5-1.9c0.4-0.4,1-0.5,1.8-0.5c0.8,0,1.3,0.1,1.7,0.4s0.5,0.7,0.5,1.2
		c0,0.4-0.1,0.8-0.3,1C298.5,54.1,298.1,54.2,297.6,54.2z M295.9,53.4h1.3c0.2,0,0.3,0,0.3-0.1s0.1-0.2,0.1-0.4
		c0-0.2-0.1-0.4-0.2-0.5c-0.1-0.1-0.3-0.1-0.6-0.1c-0.4,0-0.6,0.1-0.7,0.2C296,52.6,295.9,52.9,295.9,53.4z"/>
	<path class="st5" d="M303.3,51.3l-0.1,1.3h-0.4c-0.3,0-0.8,0.1-1.4,0.3v3.2h-1.4v-4.7h1.1l0.1,0.7c0.6-0.5,1.3-0.8,1.9-0.8H303.3z"
		/>
	<polygon points="245.1,74.5 249.2,71 250.3,76.3 251.3,81.6 246.2,79.9 241.1,78.1 	"/>
	<polygon points="138.6,133.3 135,137.3 133.3,132.1 131.7,127 137,128.1 142.3,129.3 	"/>
	<path d="M185,32.5v6.2h-1.4V36h-2.2v2.8H180v-6.2h1.4v2.4h2.2v-2.4H185z"/>
	<path d="M190.8,33.6H189v5.1h-1.4v-5.1h-1.9v-1.1h5.1C190.8,32.5,190.8,33.6,190.8,33.6z"/>
	<path d="M196.2,33.6h-1.9v5.1H193v-5.1h-1.9v-1.1h5.1C196.2,32.5,196.2,33.6,196.2,33.6z"/>
	<path d="M197,38.7v-6.2c0.6-0.1,1.3-0.1,2.4-0.1c0.9,0,1.5,0.1,1.8,0.4s0.5,0.8,0.5,1.6s-0.2,1.3-0.5,1.6c-0.3,0.3-0.8,0.4-1.6,0.4
		c-0.4,0-0.8,0-1.2-0.1v2.3C198.4,38.7,197,38.7,197,38.7z M198.4,35.5h1c0.4,0,0.6-0.1,0.7-0.2s0.2-0.4,0.2-0.8s-0.1-0.6-0.2-0.8
		s-0.4-0.2-0.7-0.2l-1,0V35.5z"/>
	<path d="M178.8,45l-0.1,1.2h-0.4c-0.3,0-0.7,0.1-1.4,0.3v3h-1.3v-4.4h1l0.1,0.6c0.6-0.5,1.2-0.8,1.8-0.8H178.8L178.8,45z"/>
	<path d="M182.2,47.8h-1.6c0,0.3,0.1,0.5,0.3,0.7c0.2,0.1,0.4,0.2,0.8,0.2c0.5,0,1,0,1.7-0.1l0.1,0.8c-0.5,0.2-1.1,0.3-1.9,0.3
		c-0.8,0-1.4-0.2-1.8-0.5s-0.5-1-0.5-1.8c0-0.9,0.2-1.5,0.5-1.8c0.3-0.3,0.9-0.5,1.7-0.5c0.7,0,1.3,0.1,1.6,0.4
		c0.3,0.3,0.5,0.6,0.5,1.2c0,0.4-0.1,0.7-0.3,0.9S182.7,47.8,182.2,47.8L182.2,47.8z M180.6,47h1.3c0.2,0,0.3,0,0.3-0.1
		c0.1-0.1,0.1-0.2,0.1-0.3c0-0.2-0.1-0.4-0.2-0.4c-0.1-0.1-0.3-0.1-0.6-0.1c-0.3,0-0.6,0.1-0.7,0.2S180.6,46.6,180.6,47z"/>
	<path d="M188.7,51.2h-1.3V50c0-0.4,0-0.7,0.1-1c-0.5,0.5-1.1,0.7-1.6,0.7s-1-0.2-1.2-0.6s-0.4-1-0.4-1.7c0-0.8,0.2-1.4,0.5-1.8
		c0.3-0.4,0.9-0.6,1.7-0.6c0.4,0,0.8,0,1.2,0.1c0.4,0.1,0.8,0.1,1,0.3V51.2z M187.4,48.2v-2.2c-0.3-0.1-0.6-0.1-0.9-0.1
		c-0.3,0-0.5,0.1-0.7,0.3s-0.2,0.6-0.2,1.1c0,0.4,0.1,0.7,0.1,0.9s0.3,0.3,0.6,0.3C186.6,48.5,187,48.4,187.4,48.2L187.4,48.2z"/>
	<path d="M194,45.1v4.4h-1.1l-0.1-0.6c-0.6,0.5-1.2,0.7-1.8,0.7c-0.8,0-1.3-0.4-1.3-1.2v-3.3h1.3V48c0,0.2,0,0.3,0.1,0.4
		c0.1,0.1,0.2,0.1,0.4,0.1c0.3,0,0.6-0.1,1.1-0.4v-3.1H194z"/>
	<path d="M197.9,47.8h-1.6c0,0.3,0.1,0.5,0.3,0.7c0.2,0.1,0.4,0.2,0.8,0.2c0.5,0,1,0,1.7-0.1l0.1,0.8c-0.5,0.2-1.1,0.3-1.9,0.3
		c-0.8,0-1.4-0.2-1.8-0.5s-0.5-1-0.5-1.8c0-0.9,0.2-1.5,0.5-1.8c0.3-0.3,0.9-0.5,1.7-0.5c0.7,0,1.3,0.1,1.6,0.4
		c0.3,0.3,0.5,0.6,0.5,1.2c0,0.4-0.1,0.7-0.3,0.9S198.4,47.8,197.9,47.8L197.9,47.8z M196.3,47h1.3c0.2,0,0.3,0,0.3-0.1
		c0.1-0.1,0.1-0.2,0.1-0.3c0-0.2-0.1-0.4-0.2-0.4c-0.1-0.1-0.3-0.1-0.6-0.1c-0.3,0-0.6,0.1-0.7,0.2S196.3,46.6,196.3,47z"/>
	<path d="M202.1,47.9l-1.1-0.3c-0.4-0.1-0.7-0.3-0.8-0.5s-0.2-0.5-0.2-0.9c0-0.5,0.1-0.8,0.4-1c0.3-0.2,0.8-0.3,1.5-0.3
		c0.8,0,1.5,0.1,2.1,0.2l-0.1,0.9c-0.8,0-1.3,0-1.7,0c-0.2,0-0.4,0-0.4,0s-0.2,0-0.2,0s-0.1,0-0.1,0.1c0,0,0,0.1,0,0.2
		c0,0,0,0.1,0,0.1c0,0,0,0,0,0.1s0,0,0,0c0,0,0,0,0,0s0,0,0.1,0c0,0,0,0,0.1,0c0,0,0.1,0,0.1,0s0.1,0,0.1,0c0.1,0,0.1,0,0.1,0
		l1.1,0.3c0.4,0.1,0.7,0.3,0.8,0.5s0.3,0.5,0.3,0.8c0,0.5-0.2,0.9-0.5,1.1c-0.3,0.2-0.8,0.3-1.6,0.3c-0.7,0-1.4-0.1-2-0.2l0.1-0.9
		c0.2,0,0.7,0,1.5,0c0.5,0,0.8,0,0.9-0.1s0.2-0.1,0.2-0.3c0,0,0-0.1,0-0.1s0,0,0-0.1s0,0,0,0s0,0-0.1,0c0,0,0,0-0.1,0c0,0,0,0-0.1,0
		s-0.1,0-0.1,0c0,0-0.1,0-0.1,0C202.2,47.9,202.1,47.9,202.1,47.9z"/>
	<path d="M206.6,46v2.1c0,0.2,0,0.3,0.1,0.4c0.1,0.1,0.2,0.1,0.4,0.1h0.6l0.1,0.9c-0.3,0.1-0.8,0.2-1.3,0.2c-0.4,0-0.7-0.1-0.9-0.3
		s-0.3-0.5-0.3-0.9V46h-0.8v-0.8l0.8,0v-1.2h1.3v1.2h1.2V46H206.6L206.6,46z"/>
	<path d="M185,157.5v6.2h-1.4V161h-2.2v2.8H180v-6.2h1.4v2.4h2.2v-2.4H185z"/>
	<path d="M190.8,158.6H189v5.1h-1.4v-5.1h-1.9v-1.1h5.1V158.6z"/>
	<path d="M196.2,158.6h-1.9v5.1H193v-5.1h-1.9v-1.1h5.1V158.6z"/>
	<path d="M197,163.7v-6.2c0.6-0.1,1.3-0.1,2.4-0.1c0.9,0,1.5,0.1,1.8,0.4s0.5,0.8,0.5,1.6s-0.2,1.3-0.5,1.6
		c-0.3,0.3-0.8,0.4-1.6,0.4c-0.4,0-0.8,0-1.2-0.1v2.3H197z M198.4,160.5h1c0.4,0,0.6-0.1,0.7-0.2s0.2-0.4,0.2-0.8s-0.1-0.6-0.2-0.8
		s-0.4-0.2-0.7-0.2l-1,0V160.5z"/>
	<path d="M175.6,170l-0.1,1.2h-0.4c-0.3,0-0.7,0.1-1.4,0.3v3h-1.3v-4.4h1l0.1,0.6c0.6-0.5,1.2-0.8,1.8-0.8H175.6L175.6,170z"/>
	<path d="M179,172.8h-1.6c0,0.3,0.1,0.5,0.3,0.7c0.2,0.1,0.4,0.2,0.8,0.2c0.5,0,1,0,1.7-0.1l0.1,0.8c-0.5,0.2-1.1,0.3-1.9,0.3
		c-0.8,0-1.4-0.2-1.8-0.5s-0.5-1-0.5-1.8c0-0.9,0.2-1.5,0.5-1.8c0.3-0.3,0.9-0.5,1.7-0.5c0.7,0,1.3,0.1,1.6,0.4
		c0.3,0.3,0.5,0.6,0.5,1.2c0,0.4-0.1,0.7-0.3,0.9S179.5,172.8,179,172.8L179,172.8z M177.4,172h1.3c0.2,0,0.3,0,0.3-0.1
		c0.1-0.1,0.1-0.2,0.1-0.3c0-0.2-0.1-0.4-0.2-0.4c-0.1-0.1-0.3-0.1-0.6-0.1c-0.3,0-0.6,0.1-0.7,0.2
		C177.5,171.3,177.4,171.6,177.4,172z"/>
	<path d="M183.2,172.9l-1.1-0.3c-0.4-0.1-0.7-0.3-0.8-0.5s-0.2-0.5-0.2-0.9c0-0.5,0.1-0.8,0.4-1c0.3-0.2,0.8-0.3,1.5-0.3
		c0.8,0,1.5,0.1,2.1,0.2l-0.1,0.9c-0.8,0-1.3,0-1.7,0c-0.2,0-0.4,0-0.4,0s-0.2,0-0.2,0s-0.1,0-0.1,0.1c0,0,0,0.1,0,0.2
		c0,0,0,0.1,0,0.1c0,0,0,0,0,0.1s0,0,0,0c0,0,0,0,0,0s0,0,0.1,0c0,0,0,0,0.1,0c0,0,0.1,0,0.1,0s0.1,0,0.1,0c0.1,0,0.1,0,0.1,0
		l1.1,0.3c0.4,0.1,0.7,0.3,0.8,0.5s0.3,0.5,0.3,0.8c0,0.5-0.2,0.9-0.5,1.1c-0.3,0.2-0.8,0.3-1.6,0.3c-0.7,0-1.4-0.1-2-0.2l0.1-0.9
		c0.2,0,0.7,0,1.5,0c0.5,0,0.8,0,0.9-0.1s0.2-0.1,0.2-0.3c0,0,0-0.1,0-0.1s0,0,0-0.1s0,0,0-0.1s0,0-0.1,0c0,0,0,0-0.1,0
		c0,0,0,0-0.1,0s-0.1,0-0.1,0c0,0-0.1,0-0.1,0C183.3,172.9,183.2,172.9,183.2,172.9L183.2,172.9z"/>
	<path d="M187,170.1l0.1,0.6c0.2-0.2,0.4-0.4,0.8-0.5s0.7-0.2,1-0.2c1,0,1.5,0.8,1.5,2.4c0,0.9-0.1,1.4-0.4,1.8
		c-0.3,0.3-0.7,0.5-1.3,0.5c-0.6,0-1.1-0.1-1.5-0.4c0,0.3,0,0.6,0,1v1.1H186v-6.1H187L187,170.1z M187.3,171.5v2
		c0.5,0.1,0.8,0.2,1,0.2c0.3,0,0.5-0.1,0.6-0.3s0.2-0.5,0.2-1.1c0-0.5-0.1-0.9-0.2-1.1c-0.1-0.2-0.3-0.3-0.5-0.3
		C188.1,171,187.7,171.2,187.3,171.5L187.3,171.5z"/>
	<path d="M193.4,170c0.8,0,1.4,0.2,1.8,0.5s0.5,1,0.5,1.8s-0.2,1.5-0.5,1.8s-0.9,0.5-1.8,0.5c-0.8,0-1.4-0.2-1.8-0.5
		c-0.3-0.4-0.5-1-0.5-1.8c0-0.9,0.2-1.5,0.5-1.8C192,170.2,192.6,170,193.4,170z M193.4,171c-0.4,0-0.6,0.1-0.7,0.3
		s-0.2,0.5-0.2,1.1c0,0.5,0.1,0.9,0.2,1.1s0.4,0.3,0.7,0.3c0.3,0,0.6-0.1,0.7-0.3s0.2-0.5,0.2-1.1c0-0.5-0.1-0.9-0.2-1.1
		S193.8,171,193.4,171z"/>
	<path d="M197.7,170.1l0.1,0.7c0.6-0.5,1.3-0.8,1.9-0.8c0.4,0,0.7,0.1,0.9,0.3s0.3,0.5,0.3,0.9v3.3h-1.3v-2.9c0-0.2,0-0.3-0.1-0.4
		c-0.1-0.1-0.2-0.1-0.3-0.1c-0.3,0-0.7,0.1-1.2,0.4v3h-1.3v-4.4H197.7z"/>
	<path d="M204,172.9l-1.1-0.3c-0.4-0.1-0.7-0.3-0.8-0.5s-0.2-0.5-0.2-0.9c0-0.5,0.1-0.8,0.4-1c0.3-0.2,0.8-0.3,1.5-0.3
		c0.8,0,1.5,0.1,2.1,0.2l-0.1,0.9c-0.8,0-1.3,0-1.7,0c-0.2,0-0.4,0-0.4,0s-0.2,0-0.2,0s-0.1,0-0.1,0.1c0,0,0,0.1,0,0.2
		c0,0,0,0.1,0,0.1c0,0,0,0,0,0.1s0,0,0,0c0,0,0,0,0,0s0,0,0.1,0c0,0,0,0,0.1,0c0,0,0.1,0,0.1,0s0.1,0,0.1,0c0.1,0,0.1,0,0.1,0
		l1.1,0.3c0.4,0.1,0.7,0.3,0.8,0.5s0.3,0.5,0.3,0.8c0,0.5-0.2,0.9-0.5,1.1c-0.3,0.2-0.8,0.3-1.6,0.3c-0.7,0-1.4-0.1-2-0.2l0.1-0.9
		c0.2,0,0.7,0,1.5,0c0.5,0,0.8,0,0.9-0.1s0.2-0.1,0.2-0.3c0,0,0-0.1,0-0.1s0,0,0-0.1s0,0,0-0.1s0,0-0.1,0c0,0,0,0-0.1,0
		c0,0,0,0-0.1,0s-0.1,0-0.1,0c0,0-0.1,0-0.1,0C204.1,172.9,204,172.9,204,172.9L204,172.9z"/>
	<path d="M209.6,172.8H208c0,0.3,0.1,0.5,0.3,0.7c0.2,0.1,0.4,0.2,0.8,0.2c0.5,0,1,0,1.7-0.1l0.1,0.8c-0.5,0.2-1.1,0.3-1.9,0.3
		c-0.8,0-1.4-0.2-1.8-0.5s-0.5-1-0.5-1.8c0-0.9,0.2-1.5,0.5-1.8c0.3-0.3,0.9-0.5,1.7-0.5c0.7,0,1.3,0.1,1.6,0.4
		c0.3,0.3,0.5,0.6,0.5,1.2c0,0.4-0.1,0.7-0.3,0.9S210.1,172.8,209.6,172.8L209.6,172.8z M208,172h1.3c0.2,0,0.3,0,0.3-0.1
		c0.1-0.1,0.1-0.2,0.1-0.3c0-0.2-0.1-0.4-0.2-0.4c-0.1-0.1-0.3-0.1-0.6-0.1c-0.3,0-0.6,0.1-0.7,0.2C208.1,171.3,208,171.6,208,172z"
		/>
</g>
</svg>
